<?xml version="1.0" encoding="utf-8"?>
<svg id="svg" version="1.1" viewBox="0 0 300 300" width="300" height="300" xmlns="http://www.w3.org/2000/svg">
  <svg xmlns="http://www.w3.org/2000/svg" style="">
    <defs>
      <clipPath id="clip-1">
        <rect x="0" y="0" transform="scale(0.14648,0.14648)" width="2048" height="2048" fill="none"/>
      </clipPath>
      <linearGradient x1="101.14893" y1="195.44971" x2="103.06626" y2="202.7666" gradientUnits="userSpaceOnUse" id="color-1" gradientTransform="matrix(1.174139, 0, 0, 1.17008, 37.829156, -28.859631)">
        <stop offset="0" stop-color="#681717"/>
        <stop offset="1" stop-color="#963736"/>
      </linearGradient>
      <linearGradient x1="47.58193" y1="210.58594" x2="35.36997" y2="183.34863" gradientUnits="userSpaceOnUse" id="color-2" gradientTransform="matrix(1.152886, 0, 0, 1.148904, 39.887101, -26.778725)">
        <stop offset="0" stop-color="#361414"/>
        <stop offset="1" stop-color="#1d1618"/>
      </linearGradient>
      <linearGradient x1="119.74043" y1="204.53027" x2="127.33096" y2="208.19971" gradientUnits="userSpaceOnUse" id="color-3" gradientTransform="matrix(1.174139, 0, 0, 1.17008, 37.829156, -28.859631)">
        <stop offset="0" stop-color="#4b2229"/>
        <stop offset="1" stop-color="#834a4e"/>
      </linearGradient>
    </defs>
    <g clip-path="url(#clip-1)" fill="none" fill-rule="nonzero" stroke="none" stroke-width="1" stroke-linecap="butt" stroke-linejoin="miter" stroke-miterlimit="10" stroke-dasharray="" stroke-dashoffset="0" font-family="none" font-weight="none" font-size="none" text-anchor="none" style="mix-blend-mode: normal">
      <path d="M 61.336 0.112 C 65.733 -0.038 70.844 0.082 75.301 0.082 L 101.116 0.092 L 179.129 0.082 L 220.741 0.072 C 229.149 0.072 241.268 -0.388 249.239 1.122 C 260.639 3.292 271.239 8.512 279.905 16.222 C 292.583 27.662 300.138 43.712 300.871 60.772 C 301.094 65.012 300.973 70.052 300.968 74.352 L 300.958 97.022 L 300.949 170.642 L 300.951 218.549 L 300.959 231.984 C 300.963 238.803 301.093 243.065 299.818 249.835 C 297.681 261.114 292.456 271.582 284.727 280.068 C 272.849 293.262 257.288 300.095 239.701 301.016 C 235.41 301.28 230.464 301.086 226.119 301.085 L 201.681 301.079 L 126.085 301.082 L 81.429 301.085 L 68.799 301.083 C 62.818 301.081 58.185 301.156 52.212 300.048 C 40.575 297.975 29.754 292.674 20.985 284.745 C 8.379 273.477 0.868 257.589 0.148 240.695 C -0.082 235.785 0.028 230.314 0.038 225.361 L 0.028 201.386 L 0.038 125.372 L 0.028 81.712 L 0.028 69.032 C 0.028 63.192 0.018 58.112 1.078 52.332 C 6.548 22.362 31.108 1.542 61.336 0.112 Z" style="fill: rgb(65, 14, 30); transform-box: fill-box; transform-origin: 52.1604% 23.3682%;" transform="matrix(1, -0.000042, 0.000042, 1, 0, 0)"/>
      <path d="M 285.592 182.895 L 285.761 183.137 C 285.437 183.667 285.221 183.645 284.585 183.999 L 284.462 183.749 C 284.86 183.415 285.166 183.195 285.592 182.895 Z" fill="#75737f" style="transform-origin: 150px 145.64px;"/>
      <path d="M 160.635 48.648 C 189.811 50.54 201.294 87.434 206.226 110.899 C 207.552 117.191 209.153 123.553 211.429 129.559 C 214.561 137.545 218.372 143.663 222.476 150.94 C 225.539 156.35 228.496 161.828 231.339 167.363 C 239.962 183.977 246.246 199.437 244.79 218.539 C 242.943 242.753 229.337 264.539 211.17 280.077 C 193.994 294.755 174.772 300.866 152.313 298.932 C 137.611 297.663 121.856 295.05 108.639 288.282 C 106.64 287.258 104.036 286.117 102.289 284.771 C 101.587 284.374 100.891 283.967 100.197 283.557 C 81.138 272.303 67.39 251.874 62.231 230.631 C 58.03 213.299 59.944 196.645 66.451 180.2 C 75.355 157.688 93.947 141.578 100.78 118.196 C 103.421 109.77 105.769 100.939 107.888 92.378 C 112.778 72.625 115.691 56.489 138.398 50.905 L 139.146 54.58 L 138.583 54.569 C 137.387 54.552 134.307 54.335 133.551 55.068 C 133.704 55.252 133.702 55.298 133.891 55.376 C 138.865 57.478 144.24 58.31 149.448 56.694 C 153.27 55.501 158.542 52.753 160.472 49.199 L 160.675 48.896 L 160.635 48.648 Z" fill="#ac4347" style="transform-origin: 150px 145.64px;"/>
      <path d="M 160.635 48.648 C 189.811 50.54 201.294 87.434 206.226 110.899 C 207.552 117.191 209.153 123.553 211.429 129.559 C 214.561 137.545 218.372 143.663 222.476 150.94 C 225.539 156.35 228.496 161.828 231.339 167.363 C 239.962 183.977 246.246 199.437 244.79 218.539 C 242.943 242.753 229.337 264.539 211.17 280.077 C 193.994 294.755 174.772 300.866 152.313 298.932 C 137.611 297.663 121.856 295.05 108.639 288.282 C 106.64 287.258 104.036 286.117 102.289 284.771 C 103.598 284.73 109.293 286.372 111.49 286.764 C 120.475 288.438 129.664 288.717 138.735 287.6 C 162.455 284.526 184.922 273.362 199.365 254.093 C 213.125 235.731 219.199 212.37 216.346 189.647 C 213.541 167.283 200.127 148.413 193.517 127.243 C 187.521 107.521 186.729 86.273 178.586 67.174 C 174.871 58.457 167.72 54.28 160.675 48.896 L 160.635 48.648 Z" fill="#862228" style="transform-origin: 150px 145.64px;"/>
      <path d="M 143.404 141.311 C 144.111 141.453 145.213 141.62 145.728 142.137 L 145.912 142.126 C 146.793 142.155 148.479 142.478 149.039 143.201 C 149.64 144.903 150.814 145.955 151.541 147.396 C 152.015 148.16 154.563 152.317 155.106 152.649 C 157.437 157.087 163.914 165.315 167.165 169.496 C 171.951 175.706 176.8 181.867 181.715 187.977 C 184.822 191.773 188.173 195.472 190.947 199.526 C 191.369 200.144 191.503 202.929 191.114 203.652 C 191.665 205.174 191.603 206.329 191.606 207.933 L 191.57 209.772 C 190.574 243.908 161.854 273.961 126.979 272.795 C 99.529 271.879 75.27 251.276 68.453 225.095 C 68.199 224.119 67.054 220.154 67.346 219.433 C 64.943 215.844 70.757 201.124 72.186 197.058 C 75.164 188.567 78.228 179.553 82.12 171.455 C 85.158 165.12 88.128 158.526 91.635 152.456 C 92.041 151.76 95.043 149.781 95.865 149.191 C 97.867 155.518 101.021 161.828 104.205 167.627 C 112.166 182.117 121.988 195.307 132.096 208.354 C 133.02 209.546 134.471 211.333 135.193 212.588 L 135.326 212.743 L 135.469 212.653 C 135.702 211.729 135.688 210.86 135.772 209.922 C 136.747 199.675 138.091 189.479 139.177 179.235 C 140.509 166.679 141.492 153.782 143.404 141.311 Z" fill="#f6d0cf" style="transform-origin: 150px 145.64px;"/>
      <path d="M 162.901 178.856 C 166.635 178.558 169.224 178.756 172.645 180.489 C 174.796 181.574 182.964 193.336 185.616 196.153 C 184.613 197.171 185.125 198.826 184.494 200.53 C 184.053 202.312 183.613 203.787 182.887 205.484 C 184.064 205.829 183.967 206.89 184.742 207.653 C 182.316 212.588 177.234 217.08 171.737 218.145 C 171.501 218.119 169.415 218.313 169.028 218.344 C 165.625 218.6 162.686 218.066 159.677 216.403 C 155.199 213.937 151.801 209.903 150.15 205.081 C 149.533 203.326 149.044 201.124 148.511 199.283 L 148.392 199.23 C 148.127 198.865 148.243 198.842 148.313 198.239 C 148.491 187.236 151.532 180.746 162.901 178.856 Z" fill="#261d20" style="transform-origin: 150px 145.64px;"/>
      <path d="M 161.403 186.374 L 161.805 186.33 C 161.927 186.542 161.991 186.73 162.186 186.889 C 163.006 187.347 166.889 186.903 168.104 186.876 C 169.21 186.855 171.578 187.04 172.551 186.908 C 175.858 188.206 179.43 191.759 180.863 195.013 C 181.936 197.466 183.189 201.793 182.089 204.362 C 181.99 204.716 181.812 205.326 181.747 205.66 C 181.414 206.791 180.995 208.477 180.401 209.428 C 176.893 215.883 169.73 219.757 162.795 215.8 C 160.338 214.401 158.24 212.193 157.085 209.603 C 155.806 207.2 155.449 205.379 155.04 202.701 C 154.36 199.56 155.815 194.484 157.267 191.655 L 156.716 191.811 C 156.717 191.574 156.872 191.376 156.992 191.155 L 156.83 190.752 C 157.318 189.861 158.476 188.922 159.26 188.241 C 159.777 187.517 160.672 186.932 161.403 186.374 Z" fill="#5a0b0b" style="transform-origin: 150px 145.64px;"/>
      <path d="M 177.64 205.26 C 179.153 206.701 179.511 207.573 180.401 209.428 C 176.893 215.883 169.73 219.757 162.795 215.801 C 160.338 214.401 158.24 212.193 157.085 209.603 C 158.052 208.126 158.812 207.113 159.889 205.729 C 164.375 214.165 174.654 215.933 177.64 205.26 Z" fill="#e26568" style="transform-origin: 150px 145.64px;"/>
      <path d="M 156.83 190.752 C 157.318 189.861 158.476 188.922 159.26 188.241 C 159.934 188.409 160.383 188.293 161.179 188.515 C 169.644 190.223 159.98 198.715 157.647 191.574 L 157.267 191.655 L 156.716 191.811 C 156.717 191.574 156.872 191.376 156.992 191.155 L 156.83 190.752 Z" fill="#f6f6f6" style="transform-origin: 150px 145.64px;"/>
      <path d="M 156.83 190.752 C 157.318 189.861 158.476 188.922 159.26 188.241 C 159.934 188.409 160.383 188.293 161.179 188.515 C 159.032 188.784 158.045 189.317 157.647 191.574 L 157.267 191.655 L 156.716 191.811 C 156.717 191.574 156.872 191.376 156.992 191.155 L 156.83 190.752 Z" fill="#350d14" style="transform-origin: 150px 145.64px;"/>
      <path d="M 159.015 198.966 C 159.077 201.179 159.172 203.609 159.889 205.729 C 158.812 207.113 158.052 208.126 157.085 209.603 C 155.806 207.2 155.449 205.379 155.04 202.701 C 155.264 200.971 157.73 199.87 159.015 198.966 Z" fill="url(#color-1)" style="transform-origin: 150px 145.64px;"/>
      <path d="M 178.21 202.338 L 178.602 202.304 C 179.419 202.991 181.402 204.684 181.747 205.66 C 181.414 206.791 180.995 208.477 180.401 209.428 C 179.511 207.573 179.153 206.701 177.64 205.26 C 177.937 204.331 178.055 203.309 178.21 202.338 Z" fill="#862228" style="transform-origin: 150px 145.64px;"/>
      <path d="M 178.412 200.128 C 179.806 201.785 180.905 202.471 182.089 204.362 C 181.99 204.716 181.812 205.326 181.747 205.66 C 181.402 204.684 179.419 202.991 178.602 202.304 L 178.21 202.338 C 178.248 201.527 178.306 200.933 178.412 200.128 Z" fill="#68242a" style="transform-origin: 150px 145.64px;"/>
      <path d="M 165.196 193.395 C 165.62 193.38 165.981 193.689 166.024 194.111 C 166.071 194.527 165.784 194.911 165.366 194.982 C 165.073 195.034 164.772 194.92 164.59 194.682 C 164.409 194.444 164.377 194.127 164.504 193.852 C 164.631 193.588 164.897 193.41 165.196 193.395 Z" fill="#f6f6f6" style="transform-origin: 150px 145.64px;"/>
      <path d="M 148.511 199.283 C 149.567 198.232 152.244 196.09 153.48 195.258 L 153.821 195.344 C 152.774 200.429 153.144 204.908 155.995 209.359 C 160.439 216.299 170.097 217.671 176.771 213.166 C 179.849 211.088 181.293 208.725 182.887 205.484 C 184.064 205.829 183.967 206.89 184.742 207.653 C 182.316 212.588 177.234 217.08 171.737 218.145 C 171.501 218.119 169.415 218.313 169.028 218.344 C 165.625 218.6 162.686 218.066 159.677 216.403 C 155.199 213.937 151.801 209.903 150.15 205.081 C 149.533 203.326 149.044 201.124 148.511 199.283 Z" fill="#f6f6f6" style="transform-origin: 150px 145.64px;"/>
      <path d="M 161.225 184.559 C 160.507 185.105 159.631 185.682 159.118 186.389 C 158.35 187.055 157.214 187.982 156.739 188.857 C 155.105 191.274 154.678 192.491 153.821 195.344 L 153.48 195.258 C 152.244 196.09 149.567 198.232 148.511 199.283 L 148.392 199.23 C 148.127 198.865 148.243 198.842 148.313 198.239 C 149.212 196.95 149.981 193.096 151.475 191.014 C 154.205 187.213 156.723 185.541 161.225 184.559 Z" fill="#a9a7af" style="transform-origin: 150px 145.64px;"/>
      <path d="M 162.186 186.889 C 165.603 184.842 169.079 185.269 172.551 186.908 C 171.579 187.04 169.21 186.855 168.104 186.876 C 166.889 186.903 163.006 187.347 162.186 186.889 Z" fill="#68242a" style="transform-origin: 150px 145.64px;"/>
      <path d="M 143.404 141.311 C 144.111 141.453 145.213 141.62 145.728 142.137 C 145.309 143.393 144.907 147.801 144.733 149.349 C 144.244 153.906 143.724 158.456 143.174 163.007 C 142.099 171.49 140.723 179.965 139.759 188.447 C 139.563 190.158 139.02 194.225 139.012 195.772 C 138.713 197.197 138.611 199.432 138.406 200.941 C 137.774 205.647 137.408 211.711 136.271 216.287 C 132.209 212.154 128.583 205.935 124.657 201.517 C 122.995 199.648 121.7 197.412 119.91 195.52 C 118.565 195.263 116.222 193.079 115.13 192.1 C 106.923 184.78 98.807 176.262 92.352 167.369 C 91.012 170.082 89.032 173.38 87.89 175.875 C 93.426 175.128 97.672 177.364 100.609 182.062 C 95.432 180.085 96.149 178.757 89.398 178.344 C 90.12 179.033 90.957 179.764 91.51 180.579 C 86.279 180.739 83.153 181.767 79.457 185.7 C 79.038 186.143 78.388 186.873 77.967 187.288 C 76.83 188.66 71.964 203.261 71.365 205.666 C 70.174 208.068 68.294 216.339 67.346 219.433 C 64.943 215.844 70.757 201.124 72.186 197.058 C 75.164 188.567 78.228 179.553 82.12 171.455 C 85.158 165.12 88.128 158.526 91.635 152.456 C 92.041 151.76 95.043 149.781 95.865 149.191 C 97.867 155.518 101.021 161.83 104.205 167.628 C 112.166 182.117 121.988 195.307 132.096 208.354 C 133.02 209.546 134.471 211.333 135.193 212.588 L 135.326 212.743 L 135.469 212.653 C 135.702 211.73 135.688 210.86 135.772 209.922 C 136.747 199.675 138.091 189.479 139.177 179.235 C 140.509 166.679 141.492 153.782 143.404 141.311 Z" fill="#68242a" style="transform-origin: 150px 145.64px;"/>
      <path d="M 94.032 152.995 L 94.156 153.203 C 95.626 155.729 96.728 158.624 98.097 161.217 C 102.41 169.404 107.188 177.234 112.424 184.865 C 114.705 188.182 117.924 192.057 119.91 195.52 C 118.565 195.263 116.222 193.079 115.13 192.1 C 106.923 184.78 98.807 176.262 92.352 167.369 C 91.012 170.082 89.032 173.38 87.89 175.875 C 93.426 175.128 97.672 177.364 100.609 182.062 C 95.432 180.085 96.149 178.757 89.398 178.344 C 90.12 179.033 90.957 179.764 91.51 180.579 C 86.279 180.739 83.153 181.767 79.457 185.7 C 79.038 186.143 78.388 186.873 77.967 187.288 C 78.084 184.393 91.796 155.85 94.032 152.995 Z" fill="#bb898c" style="transform-origin: 150px 145.64px;"/>
      <path d="M 91.51 180.579 C 95.703 181.477 98.61 183.495 100.927 187.136 C 102.498 189.599 106.313 196.879 106.136 199.678 C 105.758 199.759 105.919 199.705 105.648 199.834 C 105.497 200.816 105.519 201.737 105.372 202.715 C 104.818 206.452 103.012 210.78 99.865 213.101 C 94.758 216.866 85.792 214.739 82.237 209.682 C 80.197 206.791 79.939 203.938 79.968 200.553 C 79.972 200.047 79.975 199.812 79.922 199.299 C 79.804 199.336 76.56 202.112 75.979 202.516 C 75.921 203.468 75.855 204.315 75.884 205.269 C 74.294 205.847 73.505 206.794 71.984 207.368 L 71.365 205.666 C 71.964 203.261 76.83 188.66 77.967 187.288 C 78.388 186.873 79.038 186.143 79.457 185.7 C 83.153 181.767 86.279 180.739 91.51 180.579 Z" fill="url(#color-2)" style="transform-origin: 150px 145.64px;"/>
      <path d="M 96.634 186.729 C 100.992 188.533 105.62 197.664 103.939 201.836 L 103.888 202.614 C 103.379 204.304 102.529 207.002 101.496 208.47 C 101.401 208.632 101.301 208.793 101.201 208.957 C 99.643 211.449 97.126 212.967 94.293 213.655 C 88.312 215.099 83.336 211.345 82.085 205.514 L 81.753 203.485 C 81.706 202.217 81.75 200.819 81.95 199.568 C 81.152 197.958 82.27 193.614 83.9 192.671 C 83.726 191.753 83.747 191.338 83.758 190.427 C 84.114 190.007 84.461 189.633 84.834 189.231 L 86.399 188.698 L 87.705 188.858 C 87.893 188.621 87.908 188.666 88.196 188.5 C 89.816 188.642 94.578 187.176 96.634 186.729 Z" fill="#5a0b0b" style="transform-origin: 150px 145.64px;"/>
      <path d="M 82.777 202.197 C 82.868 202.079 82.953 201.958 83.048 201.84 C 83.53 201.216 83.666 201.022 84.379 200.931 C 85.006 203.661 85.748 206.23 87.823 208.26 C 89.596 209.994 92.166 210.525 94.529 209.89 C 96.961 209.231 98.264 207.408 99.603 205.448 C 101.024 206.632 100.797 206.838 101.496 208.47 C 101.401 208.632 101.301 208.793 101.201 208.957 C 99.643 211.449 97.126 212.967 94.293 213.655 C 88.312 215.099 83.336 211.345 82.085 205.514 C 82.02 204.2 82.258 203.394 82.777 202.197 Z" fill="#e26568" style="transform-origin: 150px 145.64px;"/>
      <path d="M 86.399 188.698 L 87.705 188.858 C 89.18 189.687 89.849 191.079 88.911 192.63 C 88.505 193.304 87.853 193.786 87.087 193.979 C 85.668 194.327 84.755 193.734 83.9 192.671 C 83.726 191.753 83.747 191.338 83.758 190.427 C 84.114 190.007 84.461 189.633 84.834 189.231 L 86.399 188.698 Z" fill="#f6f6f6" style="transform-origin: 150px 145.64px;"/>
      <path d="M 101.176 201.42 C 102 201.61 102.882 201.755 103.617 202.151 L 103.888 202.614 C 103.379 204.304 102.529 207.002 101.496 208.47 C 100.797 206.838 101.024 206.632 99.603 205.448 C 99.995 204.257 100.699 202.623 101.176 201.42 Z" fill="#862228" style="transform-origin: 150px 145.64px;"/>
      <path d="M 84.371 197.333 L 84.335 199.358 L 84.379 200.931 C 83.666 201.022 83.53 201.216 83.048 201.84 C 82.953 201.958 82.868 202.079 82.777 202.197 C 82.258 203.394 82.02 204.2 82.085 205.514 L 81.753 203.485 C 81.706 202.217 81.75 200.819 81.95 199.568 C 82.778 198.451 83.203 198.148 84.371 197.333 Z" fill="#ac4347" style="transform-origin: 150px 145.64px;"/>
      <path d="M 82.777 202.197 C 82.766 201.365 83.181 199.072 84.335 199.358 L 84.379 200.931 C 83.666 201.022 83.53 201.216 83.048 201.84 C 82.953 201.958 82.868 202.079 82.777 202.197 Z" fill="#c75f62" style="transform-origin: 150px 145.64px;"/>
      <path d="M 102.166 199.247 C 102.883 200.169 103.319 200.84 103.939 201.836 L 103.888 202.614 L 103.617 202.151 C 102.882 201.755 102 201.61 101.176 201.42 C 101.506 200.466 101.691 200.119 102.166 199.247 Z" fill="#68242a" style="transform-origin: 150px 145.64px;"/>
      <path d="M 89.48 192.574 C 89.742 192.381 90.092 192.343 90.387 192.481 C 90.688 192.618 90.887 192.901 90.911 193.226 C 90.937 193.556 90.782 193.867 90.513 194.047 C 90.105 194.318 89.556 194.212 89.274 193.813 C 88.995 193.412 89.086 192.862 89.48 192.574 Z" fill="#f6f6f6" style="transform-origin: 150px 145.64px;"/>
      <path d="M 75.979 202.516 C 76.26 199.064 77.884 194.405 79.859 191.551 C 82.266 188.069 84.577 186.376 88.68 185.516 C 87.683 186.118 84.599 187.974 84.834 189.231 C 84.461 189.633 84.114 190.007 83.758 190.427 C 82.916 191.119 82.354 192.336 81.883 193.317 C 81.176 195.041 80.72 196.464 80.366 198.304 C 80.309 198.606 80.033 200.379 79.968 200.553 C 79.972 200.047 79.975 199.812 79.922 199.299 C 79.804 199.336 76.56 202.112 75.979 202.516 Z" fill="#a9a7af" style="transform-origin: 150px 145.64px;"/>
      <path d="M 86.399 188.698 C 87.155 188.423 87.776 187.144 89.529 186.526 C 92.248 185.558 94.041 185.688 96.634 186.729 C 94.578 187.176 89.816 188.642 88.196 188.5 C 87.908 188.666 87.893 188.621 87.705 188.858 L 86.399 188.698 Z" fill="#68242a" style="transform-origin: 150px 145.64px;"/>
      <path d="M 81.883 193.317 C 82.354 192.336 82.916 191.119 83.758 190.427 C 83.747 191.338 83.726 191.753 83.9 192.671 C 82.27 193.614 81.153 197.958 81.95 199.568 C 81.75 200.819 81.706 202.217 81.753 203.485 C 80.473 201.3 81.453 198.136 81.688 195.699 C 81.749 195.105 82.553 193.824 82.391 193.21 L 81.883 193.317 Z" fill="#350d14" style="transform-origin: 150px 145.64px;"/>
      <path d="M 145.912 142.126 C 146.793 142.155 148.479 142.478 149.039 143.201 C 149.64 144.903 150.814 145.955 151.541 147.396 C 152.015 148.16 154.563 152.317 155.106 152.649 C 157.437 157.087 163.914 165.315 167.165 169.496 C 171.951 175.706 176.8 181.867 181.715 187.977 C 184.822 191.773 188.173 195.472 190.947 199.526 C 191.369 200.144 191.503 202.929 191.114 203.652 C 190.536 202.819 189.889 201.968 189.293 201.147 L 189.228 200.836 L 189.006 200.714 L 188.708 201.178 C 187.657 201.49 187.196 201.32 186.102 201.147 C 185.67 201.447 185.46 201.628 184.949 201.793 C 184.813 201.141 184.797 201.136 184.494 200.53 C 185.125 198.826 184.613 197.171 185.616 196.153 C 182.964 193.336 174.796 181.574 172.645 180.489 C 169.224 178.756 166.635 178.558 162.901 178.856 C 161.523 177.538 160.248 175.728 159.171 174.74 C 160.663 174.368 162.966 173.694 164.352 173.141 C 161.786 172.478 159.85 172.139 157.247 172.555 C 155.136 170.452 152.174 167.458 150.717 164.902 C 148.432 172.444 143.219 189.541 139.012 195.772 C 139.02 194.225 139.563 190.158 139.759 188.447 C 140.723 179.965 142.099 171.49 143.174 163.007 C 143.724 158.456 144.244 153.906 144.733 149.349 C 144.907 147.801 145.309 143.393 145.728 142.137 L 145.912 142.126 Z" fill="#bb898c" style="transform-origin: 150px 145.64px;"/>
      <path d="M 145.912 142.126 C 146.793 142.155 148.479 142.478 149.039 143.201 C 149.64 144.903 150.814 145.955 151.541 147.396 C 152.015 148.16 154.563 152.317 155.106 152.649 C 157.437 157.087 163.914 165.315 167.165 169.496 C 171.951 175.706 176.8 181.867 181.715 187.977 C 184.822 191.773 188.173 195.472 190.947 199.526 C 191.369 200.144 191.503 202.929 191.114 203.652 C 190.536 202.819 189.889 201.968 189.293 201.147 L 189.228 200.836 L 189.006 200.714 L 188.708 201.178 C 187.657 201.49 187.196 201.32 186.102 201.147 C 185.67 201.447 185.46 201.628 184.949 201.793 C 184.813 201.141 184.797 201.136 184.494 200.53 C 185.125 198.826 184.613 197.171 185.616 196.153 C 182.964 193.336 174.796 181.574 172.645 180.489 C 172.425 179.319 169.247 175.664 168.389 174.579 C 164.698 169.914 161.442 164.842 157.814 160.14 C 153.335 154.345 149.311 148.612 145.912 142.126 Z" fill="#68242a" style="transform-origin: 150px 145.64px;"/>
      <path d="M 186.243 198.181 C 187.317 199.389 188.6 200.923 189.22 202.424 C 188.275 202.601 187.567 202.743 186.739 203.265 C 186.296 203.572 186.087 203.754 185.565 203.923 C 185.427 203.26 185.411 203.255 185.102 202.641 C 185.747 200.905 185.225 199.22 186.243 198.181 Z" fill="#350d14" style="transform-origin: 150px 145.64px;"/>
      <path d="M 185.102 202.641 C 185.411 203.255 185.427 203.26 185.565 203.923 C 186.087 203.754 186.296 203.572 186.739 203.265 C 187.857 203.442 188.324 203.617 189.392 203.301 L 189.696 202.827 L 189.923 202.952 L 189.986 203.265 C 190.599 204.102 191.257 204.971 191.844 205.816 C 192.405 207.374 192.343 208.544 192.347 210.179 C 191.233 210.253 190.619 210.856 190.021 210.685 L 189.939 210.248 C 189.435 211.324 188.951 211.882 188.61 212.586 C 188.055 213.055 187.988 213.115 187.344 213.436 L 187.126 213.397 C 187.109 212.935 187.11 212.602 187.12 212.14 C 186.835 212.148 186.918 212.091 186.644 212.399 C 185.957 213.152 185.363 214.075 184.715 214.87 C 181.384 218.922 178.364 220.549 173.069 220.659 C 172.605 220.673 172.568 220.659 172.109 220.575 C 177.711 219.497 182.883 214.92 185.353 209.89 C 184.565 209.118 184.664 208.039 183.467 207.686 C 184.204 205.957 184.653 204.455 185.102 202.641 Z" fill="url(#color-3)" style="transform-origin: 150px 145.64px;"/>
      <path d="M 189.986 203.265 C 190.599 204.102 191.257 204.971 191.844 205.816 C 192.405 207.374 192.343 208.544 192.347 210.179 C 191.233 210.253 190.619 210.856 190.021 210.685 L 189.939 210.248 C 191.175 207.51 190.076 205.762 189.986 203.265 Z" fill="#f6d0cf" style="transform-origin: 150px 145.64px;"/>
      <path d="M 185.102 202.641 C 185.411 203.255 185.427 203.26 185.565 203.923 C 185.981 206.051 186.309 207.808 185.353 209.89 C 184.565 209.118 184.664 208.039 183.467 207.686 C 184.204 205.957 184.653 204.455 185.102 202.641 Z" fill="#a9a7af" style="transform-origin: 150px 145.64px;"/>
      <path d="M 76.5 208.164 C 78.469 211.785 80.736 214.224 84.582 215.93 C 85.693 216.425 87.151 216.859 88.159 217.331 C 82.228 217.165 76.515 214.815 73.152 209.758 C 74.293 209.485 75.36 208.714 76.5 208.164 Z" fill="#68242a" style="transform-origin: 150px 145.64px;"/>
      <path d="M 157.247 172.555 C 159.85 172.139 161.786 172.478 164.352 173.141 C 162.966 173.694 160.663 174.368 159.171 174.74 C 155.148 175.927 153.38 177.477 150.124 179.954 C 151.675 175.468 152.64 174.11 157.247 172.555 Z" fill="#68242a" style="transform-origin: 150px 145.64px;"/>
      <path d="M 71.984 207.368 C 73.505 206.794 74.294 205.847 75.884 205.269 C 76.07 206.41 76.166 207.057 76.5 208.164 C 75.36 208.718 74.293 209.485 73.152 209.758 C 72.695 208.961 72.364 208.201 71.984 207.368 Z" fill="#350d14" style="transform-origin: 150px 145.64px;"/>
      <path d="M 189.939 210.248 L 190.021 210.685 C 190.619 210.856 191.233 210.253 192.347 210.179 L 192.308 212.05 C 190.934 212.19 189.963 212.324 188.61 212.586 C 188.951 211.882 189.435 211.324 189.939 210.248 Z" fill="#bb898c" style="transform-origin: 150px 145.64px;"/>
      <path d="M 146.672 240.297 C 147.29 240.225 147.883 240.168 148.443 240.504 C 148.804 240.721 149.08 241.047 149.153 241.467 C 149.226 241.921 149.047 242.342 148.798 242.713 C 147.516 244.562 137.097 247.312 134.717 247.793 C 128.379 249.068 119.632 249.708 113.975 245.98 C 113.245 245.213 112.645 244.377 113.643 243.356 C 113.807 243.178 114.468 243.003 114.675 243.14 C 119.245 246.187 123.503 247.874 129.179 247.475 C 133.605 247.164 138.844 245.679 142.749 243.348 C 144.125 242.526 145.377 241.333 146.672 240.297 Z" fill="#68242a" style="transform-origin: 150px 145.64px;"/>
      <path d="M 122.042 217.699 C 123.423 219.025 121.767 225.256 121.413 226.988 C 122.018 228.91 123.097 230.593 123.994 232.443 C 123.358 232.092 122.7 231.677 122.067 231.304 C 114.938 227.148 118.905 223.66 122.042 217.699 Z" fill="#bb898c" style="transform-origin: 150px 145.64px;"/>
      <path d="M 137.275 253.159 L 137.395 253.212 C 136.197 255.663 131.618 258.093 129.044 257.111 C 128.253 256.812 127.743 256.574 127.026 256.152 C 126.244 255.65 125.675 255.134 124.973 254.539 C 130.164 254.364 132.164 254.351 137.275 253.159 Z" fill="#bb898c" style="transform-origin: 150px 145.64px;"/>
      <path d="M 99.086 147.445 C 99.391 147.246 99.701 147.052 100.016 146.872 C 113.171 139.373 128.773 137.377 143.404 141.311 C 141.492 153.782 140.509 166.679 139.177 179.235 C 138.091 189.479 136.747 199.675 135.772 209.922 C 135.688 210.86 135.702 211.729 135.469 212.653 L 135.326 212.743 L 135.193 212.588 C 134.993 211.002 134.936 207.708 134.854 206.014 C 134.503 199.175 134.445 192.325 134.695 185.48 C 134.815 182.067 135.184 176.907 135.052 173.628 C 134.864 173.996 134.947 175.795 134.845 176.28 C 134.547 177.667 135.076 183.151 134.051 183.742 C 128.46 183.868 124.824 175.798 122.396 171.845 C 118.949 166.235 116.232 160.542 113.418 154.623 C 113.679 155.927 114.15 157.307 114.461 158.697 C 115.969 165.349 117.802 172.61 121.074 178.622 C 121.423 179.264 121.42 178.941 121.54 179.796 L 121.286 179.73 C 119.905 177.357 118.035 175.415 116.609 173.089 C 114.692 169.956 113.195 166.554 111.799 163.167 C 111.382 162.153 111.247 161.297 110.77 160.211 L 110.61 160.311 C 110.638 161.049 111.614 163.628 111.891 164.515 C 113.671 170.091 115.347 176.172 117.711 181.517 C 115.644 179.228 113.465 177.012 111.506 174.633 C 104.392 165.958 101.57 158.107 99.086 147.445 Z" fill="#e26568" style="transform-origin: 150px 145.64px;"/>
      <path d="M 131.246 64.136 C 131.993 64.103 132.67 64.256 133.387 64.457 C 135.674 65.109 136.929 68.045 136.291 70.256 C 135.268 73.816 133.303 77.243 132.108 80.772 C 130.658 85.036 129.84 89.566 128.346 93.822 C 127.329 96.681 126.085 98.29 123.294 99.557 C 118.837 100.006 117.902 95.655 117.939 92.132 C 118.03 83.744 122.083 66.744 131.246 64.136 Z" fill="#c75f62" style="transform-origin: 150px 145.64px;"/>
      <path d="M 149.039 143.201 C 149.631 143.032 149.748 143.048 150.304 143.442 C 154.026 145.071 156.979 146.457 160.442 148.614 C 171.364 155.417 181.215 167.037 185.832 179.05 C 186.038 179.591 186.228 180.142 186.398 180.693 C 179.315 175.771 174.404 171.747 168.136 165.787 C 166.626 164.346 165.169 162.859 163.754 161.329 C 163.418 160.971 161.733 159.143 161.492 158.962 C 160.572 158.731 155.714 152.637 154.849 151.522 L 154.689 151.307 C 154.574 151.936 155.132 151.559 155.106 152.649 C 154.563 152.317 152.015 148.16 151.541 147.396 C 150.814 145.955 149.64 144.903 149.039 143.201 Z" fill="#e26568" style="transform-origin: 150px 145.64px;"/>
      <path d="M 151.541 148.524 C 152.021 148.722 152.154 148.813 152.674 148.907 C 155.994 153.862 158.19 155.852 161.676 160.306 C 160.736 160.071 155.793 153.865 154.91 152.726 L 154.746 152.508 C 154.631 153.152 155.198 152.765 155.166 153.878 C 154.622 153.536 152.023 149.304 151.541 148.524 Z" fill="#a34043" style="transform-origin: 150px 145.64px;"/>
      <path d="M 149.039 143.201 C 149.631 143.032 149.748 143.048 150.304 143.442 L 150.122 143.724 C 150.949 145.042 151.991 146.387 152.655 147.771 C 152.142 147.679 152.015 147.591 151.541 147.396 C 150.814 145.955 149.64 144.903 149.039 143.201 Z" fill="#c75f62" style="transform-origin: 150px 145.64px;"/>
      <path d="M 118.935 106.714 C 120.871 106.918 122.301 107.832 122.543 109.873 C 122.973 113.478 121.839 118.942 117.647 119.572 C 113.517 119.053 113.242 115.519 114.141 112.208 C 114.91 109.364 115.797 107.309 118.935 106.714 Z" fill="#c75f62" style="transform-origin: 150px 145.64px;"/>
      <path d="M 83.724 159.505 L 83.877 159.657 C 83.691 160.376 81.386 164.228 80.834 165.284 C 75.191 176.079 69.686 185.087 66.786 197.069 L 66.669 196.912 C 66.548 195.421 67.689 190.784 68.092 189.144 C 71.157 176.689 75.864 169.395 83.724 159.505 Z" fill="#e26568" style="transform-origin: 150px 145.64px;"/>
      <path d="M 140.941 47.645 C 137.387 31.802 132.913 16.46 120.523 5.211 C 120.018 4.757 118.59 3.151 118.445 2.581 C 117.547 -0.93 124.424 -9.718 127.74 -7.703 C 129.738 -6.087 132.046 -1.963 133.429 0.32 C 142.756 15.77 148.405 34.866 151.678 52.557 C 148.511 53.815 145.816 54.56 142.354 54.547 C 142.117 53.426 140.958 48.397 140.941 47.645 Z" fill="#862228" style="transform-origin: 150px 145.64px;"/>
      <path d="M 127.74 -7.703 C 129.738 -6.087 132.045 -1.963 133.429 0.32 C 142.756 15.77 148.405 34.866 151.678 52.557 C 148.511 53.815 145.816 54.56 142.354 54.547 C 142.117 53.426 140.958 48.397 140.941 47.645 L 141.381 48.333 L 141.492 48.161 L 141.301 48.19 L 141.493 48.054 C 140.847 37.948 140.18 33.299 136.202 24.003 C 136.286 23.931 136.495 23.816 136.604 23.752 C 137.734 24.419 141.977 35.217 142.532 37.155 C 143.141 39.294 143.961 42.597 144.659 44.878 C 144.534 42.523 144.105 40.318 143.853 38.072 C 142.571 26.616 138.047 15.615 132.139 5.775 C 130.141 2.463 129.622 0.474 126.814 -2.569 C 127.722 -4.309 127.747 -5.809 127.74 -7.703 Z" fill="#68242a" style="transform-origin: 150px 145.64px;"/>
      <path d="M 140.941 47.645 C 137.387 31.802 132.913 16.46 120.523 5.211 C 120.018 4.757 118.59 3.151 118.445 2.581 C 117.547 -0.93 124.424 -9.718 127.74 -7.703 C 127.747 -5.809 127.722 -4.309 126.814 -2.569 C 125.354 -0.342 123.937 0.402 121.741 1.933 C 124.307 5.53 127.371 8.497 129.731 12.235 C 131.192 14.556 132.503 16.817 133.792 19.228 C 134.347 20.271 135.666 23.207 136.202 24.003 C 140.18 33.299 140.847 37.948 141.493 48.054 L 141.301 48.19 L 141.492 48.161 L 141.381 48.333 L 140.941 47.645 Z" fill="#a34043" style="transform-origin: 150px 145.64px;"/>
      <path d="M 154.243 48.428 C 156.378 48.388 158.51 48.462 160.635 48.648 L 160.675 48.896 L 160.472 49.199 C 159.477 48.67 156.173 50.732 154.872 51.217 L 154.601 51.321 C 154.504 50.351 154.384 49.388 154.243 48.428 Z" fill="#a34043" style="transform-origin: 150px 145.64px;"/>
    </g>
  </svg>
</svg>