<?xml version="1.0" encoding="utf-8"?>
<svg id="svg" version="1.1" viewBox="0 0 300 300" width="300" height="300" xmlns="http://www.w3.org/2000/svg">
  <svg xmlns="http://www.w3.org/2000/svg" style="">
    <defs>
      <clipPath id="clip-1">
        <rect x="0" y="0" transform="scale(0.14648,0.14648)" width="2048" height="2048" fill="none"/>
      </clipPath>
      <linearGradient x1="101.14893" y1="195.44971" x2="103.06626" y2="202.7666" gradientUnits="userSpaceOnUse" id="color-1" gradientTransform="matrix(1.127218, 0, 0, 1.123321, 40.717357, -20.027134)">
        <stop offset="0" stop-color="#681717"/>
        <stop offset="1" stop-color="#963736"/>
      </linearGradient>
      <linearGradient x1="47.58193" y1="210.58594" x2="35.36997" y2="183.34863" gradientUnits="userSpaceOnUse" id="color-2" gradientTransform="matrix(1.106815, 0, 0, 1.102991, 42.693065, -18.029381)">
        <stop offset="0" stop-color="#361414"/>
        <stop offset="1" stop-color="#1d1618"/>
      </linearGradient>
      <linearGradient x1="119.74043" y1="204.53027" x2="127.33096" y2="208.19971" gradientUnits="userSpaceOnUse" id="color-3" gradientTransform="matrix(1.127218, 0, 0, 1.123321, 40.717357, -20.027134)">
        <stop offset="0" stop-color="#4b2229"/>
        <stop offset="1" stop-color="#834a4e"/>
      </linearGradient>
    </defs>
    <g clip-path="url(#clip-1)" fill="none" fill-rule="nonzero" stroke="none" stroke-width="1" stroke-linecap="butt" stroke-linejoin="miter" stroke-miterlimit="10" stroke-dasharray="" stroke-dashoffset="0" font-family="none" font-weight="none" font-size="none" text-anchor="none" style="mix-blend-mode: normal">
      <path d="M 61.336 0.112 C 65.733 -0.038 70.844 0.082 75.301 0.082 L 101.116 0.092 L 179.129 0.082 L 220.741 0.072 C 229.149 0.072 241.268 -0.388 249.239 1.122 C 260.639 3.292 271.239 8.512 279.905 16.222 C 292.583 27.662 300.138 43.712 300.871 60.772 C 301.094 65.012 300.973 70.052 300.968 74.352 L 300.958 97.022 L 300.949 170.642 L 300.951 218.549 L 300.959 231.984 C 300.963 238.803 301.093 243.065 299.818 249.835 C 297.681 261.114 292.456 271.582 284.727 280.068 C 272.849 293.262 257.288 300.095 239.701 301.016 C 235.41 301.28 230.464 301.086 226.119 301.085 L 201.681 301.079 L 126.085 301.082 L 81.429 301.085 L 68.799 301.083 C 62.818 301.081 58.185 301.156 52.212 300.048 C 40.575 297.975 29.754 292.674 20.985 284.745 C 8.379 273.477 0.868 257.589 0.148 240.695 C -0.082 235.785 0.028 230.314 0.038 225.361 L 0.028 201.386 L 0.038 125.372 L 0.028 81.712 L 0.028 69.032 C 0.028 63.192 0.018 58.112 1.078 52.332 C 6.548 22.362 31.108 1.542 61.336 0.112 Z" style="transform-box: fill-box; transform-origin: 52.1604% 23.3682%; fill: rgb(24, 24, 31);" transform="matrix(1, -0.000042, 0.000042, 1, 0, 0)"/>
      <path d="M 281.575 183.266 L 281.738 183.499 C 281.427 184.007 281.22 183.986 280.609 184.326 L 280.491 184.086 C 280.873 183.766 281.167 183.554 281.575 183.266 Z" fill="#75737f" style="transform-origin: 151.402px 147.5px;"/>
      <path d="M 158.612 54.384 C 186.622 56.201 197.647 91.62 202.381 114.148 C 203.655 120.187 205.191 126.296 207.377 132.062 C 210.384 139.728 214.042 145.602 217.981 152.588 C 220.922 157.782 223.762 163.041 226.491 168.355 C 234.77 184.305 240.802 199.146 239.405 217.486 C 237.631 240.732 224.568 261.648 207.129 276.564 C 190.638 290.656 172.184 296.523 150.623 294.666 C 136.509 293.448 121.383 290.939 108.694 284.442 C 106.775 283.458 104.275 282.363 102.598 281.071 C 101.924 280.689 101.255 280.299 100.59 279.905 C 82.292 269.101 69.093 249.489 64.141 229.095 C 60.108 212.455 61.945 196.467 68.193 180.678 C 76.741 159.066 94.589 143.6 101.148 121.153 C 103.685 113.063 105.94 104.586 107.973 96.366 C 112.668 77.402 115.465 61.911 137.263 56.552 L 137.983 60.079 L 137.441 60.068 C 136.293 60.052 133.336 59.843 132.612 60.547 C 132.758 60.724 132.756 60.768 132.937 60.843 C 137.713 62.861 142.872 63.659 147.872 62.109 C 151.541 60.963 156.603 58.325 158.457 54.913 L 158.651 54.622 L 158.612 54.384 Z" fill="#ac4347" style="transform-origin: 148.402px 147.5px;"/>
      <path d="M 158.612 54.384 C 186.622 56.201 197.647 91.62 202.381 114.148 C 203.655 120.187 205.191 126.296 207.377 132.062 C 210.384 139.728 214.042 145.602 217.981 152.588 C 220.922 157.782 223.762 163.041 226.491 168.355 C 234.77 184.305 240.802 199.146 239.405 217.486 C 237.631 240.732 224.568 261.648 207.129 276.564 C 190.638 290.656 172.184 296.523 150.623 294.666 C 136.509 293.448 121.383 290.939 108.694 284.442 C 106.775 283.458 104.275 282.363 102.598 281.071 C 103.855 281.032 109.322 282.608 111.432 282.984 C 120.057 284.591 128.878 284.859 137.588 283.787 C 160.359 280.836 181.928 270.118 195.794 251.619 C 209.005 233.991 214.836 211.563 212.097 189.748 C 209.404 168.278 196.527 150.162 190.18 129.838 C 184.425 110.905 183.663 90.505 175.846 72.17 C 172.279 63.801 165.415 59.792 158.651 54.622 L 158.612 54.384 Z" fill="#862228" style="transform-origin: 148.402px 147.5px;"/>
      <path d="M 142.07 143.344 C 142.748 143.481 143.807 143.641 144.302 144.137 L 144.478 144.127 C 145.323 144.154 146.942 144.465 147.48 145.158 C 148.056 146.793 149.183 147.803 149.882 149.186 C 150.337 149.919 152.782 153.91 153.304 154.229 C 155.542 158.489 161.761 166.389 164.882 170.403 C 169.476 176.364 174.131 182.279 178.849 188.145 C 181.833 191.789 185.049 195.341 187.712 199.233 C 188.118 199.826 188.248 202.499 187.874 203.193 C 188.402 204.655 188.343 205.763 188.346 207.304 L 188.311 209.07 C 187.355 241.841 159.782 270.693 126.302 269.573 C 99.949 268.694 76.659 248.914 70.114 223.78 C 69.871 222.842 68.772 219.036 69.051 218.344 C 66.744 214.898 72.327 200.767 73.698 196.864 C 76.558 188.711 79.498 180.058 83.236 172.284 C 86.151 166.201 89.002 159.871 92.37 154.044 C 92.76 153.376 95.641 151.475 96.43 150.909 C 98.353 156.983 101.38 163.041 104.437 168.609 C 112.08 182.52 121.509 195.182 131.214 207.707 C 132.101 208.853 133.495 210.568 134.187 211.772 L 134.314 211.922 L 134.452 211.834 C 134.677 210.947 134.662 210.114 134.743 209.213 C 135.679 199.375 136.969 189.587 138.012 179.753 C 139.291 167.698 140.235 155.317 142.07 143.344 Z" fill="#f6d0cf" style="transform-origin: 148.402px 147.5px;"/>
      <path d="M 160.788 179.388 C 164.373 179.103 166.858 179.292 170.143 180.956 C 172.208 181.998 180.049 193.29 182.595 195.994 C 181.632 196.972 182.124 198.56 181.517 200.197 C 181.094 201.907 180.672 203.323 179.975 204.952 C 181.104 205.283 181.012 206.303 181.757 207.035 C 179.427 211.772 174.548 216.084 169.271 217.108 C 169.044 217.082 167.041 217.268 166.67 217.299 C 163.402 217.544 160.582 217.032 157.693 215.435 C 153.394 213.068 150.132 209.195 148.546 204.565 C 147.954 202.881 147.485 200.767 146.972 198.999 L 146.859 198.948 C 146.604 198.598 146.716 198.576 146.783 197.997 C 146.954 187.434 149.873 181.203 160.788 179.388 Z" fill="#261d20" style="transform-origin: 148.402px 147.5px;"/>
      <path d="M 159.35 186.606 L 159.736 186.563 C 159.853 186.768 159.914 186.948 160.101 187.1 C 160.889 187.54 164.616 187.114 165.783 187.088 C 166.845 187.068 169.118 187.245 170.052 187.12 C 173.227 188.365 176.657 191.775 178.032 194.9 C 179.062 197.255 180.265 201.409 179.209 203.874 C 179.115 204.215 178.943 204.801 178.881 205.122 C 178.56 206.208 178.159 207.825 177.589 208.739 C 174.221 214.936 167.343 218.655 160.686 214.857 C 158.327 213.513 156.312 211.394 155.204 208.907 C 153.976 206.601 153.634 204.851 153.241 202.281 C 152.588 199.265 153.985 194.392 155.379 191.676 L 154.849 191.826 C 154.851 191.598 155 191.408 155.115 191.196 L 154.959 190.809 C 155.427 189.954 156.539 189.052 157.293 188.399 C 157.788 187.703 158.648 187.142 159.35 186.606 Z" fill="#5a0b0b" style="transform-origin: 148.402px 147.5px;"/>
      <path d="M 174.938 204.738 C 176.39 206.122 176.734 206.958 177.589 208.739 C 174.221 214.936 167.343 218.655 160.686 214.858 C 158.327 213.513 156.312 211.394 155.204 208.907 C 156.132 207.49 156.863 206.516 157.896 205.188 C 162.203 213.287 172.071 214.984 174.938 204.738 Z" fill="#e26568" style="transform-origin: 148.402px 147.5px;"/>
      <path d="M 154.959 190.809 C 155.427 189.954 156.539 189.052 157.293 188.399 C 157.94 188.56 158.371 188.448 159.135 188.662 C 167.261 190.301 157.984 198.454 155.744 191.598 L 155.379 191.676 L 154.849 191.826 C 154.851 191.598 155 191.408 155.115 191.196 L 154.959 190.809 Z" fill="#f6f6f6" style="transform-origin: 148.402px 147.5px;"/>
      <path d="M 154.959 190.809 C 155.427 189.954 156.539 189.052 157.293 188.399 C 157.94 188.56 158.371 188.448 159.135 188.662 C 157.074 188.919 156.125 189.432 155.744 191.598 L 155.379 191.676 L 154.849 191.826 C 154.851 191.598 155 191.408 155.115 191.196 L 154.959 190.809 Z" fill="#350d14" style="transform-origin: 148.402px 147.5px;"/>
      <path d="M 157.057 198.695 C 157.116 200.819 157.207 203.152 157.896 205.188 C 156.863 206.516 156.132 207.49 155.204 208.907 C 153.976 206.601 153.634 204.851 153.241 202.281 C 153.457 200.619 155.823 199.562 157.057 198.695 Z" fill="url(#color-1)" style="transform-origin: 148.402px 147.5px;"/>
      <path d="M 175.485 201.933 L 175.862 201.899 C 176.646 202.559 178.549 204.185 178.881 205.122 C 178.56 206.208 178.159 207.825 177.589 208.739 C 176.734 206.958 176.39 206.122 174.938 204.738 C 175.223 203.846 175.337 202.864 175.485 201.933 Z" fill="#862228" style="transform-origin: 148.402px 147.5px;"/>
      <path d="M 175.68 199.811 C 177.017 201.402 178.072 202.06 179.209 203.874 C 179.115 204.215 178.943 204.801 178.881 205.122 C 178.549 204.185 176.646 202.559 175.862 201.899 L 175.485 201.933 C 175.522 201.153 175.578 200.584 175.68 199.811 Z" fill="#68242a" style="transform-origin: 148.402px 147.5px;"/>
      <path d="M 162.991 193.346 C 163.397 193.333 163.745 193.629 163.786 194.034 C 163.831 194.432 163.556 194.803 163.154 194.87 C 162.873 194.92 162.585 194.811 162.409 194.582 C 162.236 194.353 162.205 194.049 162.326 193.785 C 162.448 193.532 162.704 193.36 162.991 193.346 Z" fill="#f6f6f6" style="transform-origin: 148.402px 147.5px;"/>
      <path d="M 146.972 198.999 C 147.986 197.99 150.557 195.934 151.744 195.135 L 152.071 195.218 C 151.065 200.099 151.42 204.399 154.158 208.673 C 158.424 215.336 167.696 216.652 174.104 212.327 C 177.059 210.333 178.444 208.064 179.975 204.952 C 181.104 205.283 181.012 206.303 181.757 207.035 C 179.427 211.772 174.548 216.084 169.271 217.108 C 169.044 217.082 167.041 217.268 166.67 217.299 C 163.402 217.544 160.582 217.032 157.693 215.435 C 153.394 213.068 150.132 209.195 148.546 204.565 C 147.954 202.881 147.485 200.767 146.972 198.999 Z" fill="#f6f6f6" style="transform-origin: 148.402px 147.5px;"/>
      <path d="M 159.179 184.864 C 158.489 185.387 157.649 185.943 157.157 186.621 C 156.418 187.26 155.329 188.15 154.872 188.99 C 153.303 191.311 152.893 192.478 152.071 195.218 L 151.744 195.135 C 150.557 195.934 147.986 197.99 146.972 198.999 L 146.859 198.948 C 146.604 198.598 146.716 198.576 146.783 197.997 C 147.646 196.76 148.384 193.059 149.819 191.061 C 152.44 187.411 154.857 185.806 159.179 184.864 Z" fill="#a9a7af" style="transform-origin: 148.402px 147.5px;"/>
      <path d="M 160.101 187.1 C 163.382 185.136 166.72 185.546 170.052 187.12 C 169.118 187.245 166.845 187.068 165.783 187.088 C 164.616 187.114 160.889 187.54 160.101 187.1 Z" fill="#68242a" style="transform-origin: 148.402px 147.5px;"/>
      <path d="M 142.07 143.344 C 142.748 143.481 143.807 143.641 144.302 144.137 C 143.899 145.343 143.513 149.575 143.346 151.06 C 142.877 155.436 142.377 159.805 141.849 164.173 C 140.817 172.317 139.496 180.454 138.571 188.597 C 138.382 190.239 137.861 194.144 137.853 195.629 C 137.567 196.996 137.468 199.142 137.272 200.591 C 136.664 205.109 136.313 210.931 135.222 215.324 C 131.323 211.355 127.841 205.385 124.072 201.144 C 122.477 199.35 121.233 197.202 119.516 195.387 C 118.224 195.139 115.975 193.044 114.926 192.103 C 107.046 185.076 99.255 176.898 93.058 168.361 C 91.771 170.965 89.87 174.131 88.774 176.526 C 94.089 175.81 98.166 177.956 100.985 182.467 C 96.015 180.568 96.704 179.293 90.222 178.897 C 90.916 179.559 91.719 180.26 92.25 181.044 C 87.227 181.196 84.228 182.183 80.678 185.96 C 80.277 186.384 79.652 187.085 79.248 187.484 C 78.156 188.801 73.485 202.819 72.91 205.128 C 71.766 207.433 69.962 215.373 69.051 218.344 C 66.744 214.898 72.327 200.767 73.698 196.864 C 76.558 188.711 79.498 180.058 83.236 172.284 C 86.151 166.201 89.002 159.871 92.37 154.044 C 92.76 153.376 95.641 151.475 96.43 150.909 C 98.353 156.983 101.38 163.043 104.437 168.609 C 112.08 182.52 121.509 195.182 131.214 207.707 C 132.101 208.853 133.495 210.568 134.187 211.772 L 134.314 211.922 L 134.452 211.834 C 134.677 210.948 134.662 210.114 134.743 209.213 C 135.679 199.375 136.969 189.587 138.012 179.753 C 139.291 167.698 140.235 155.317 142.07 143.344 Z" fill="#68242a" style="transform-origin: 148.402px 147.5px;"/>
      <path d="M 94.671 154.561 L 94.79 154.761 C 96.201 157.185 97.259 159.965 98.574 162.454 C 102.715 170.315 107.302 177.831 112.328 185.157 C 114.518 188.341 117.608 192.061 119.516 195.387 C 118.224 195.139 115.975 193.044 114.926 192.103 C 107.046 185.076 99.255 176.898 93.058 168.361 C 91.771 170.965 89.87 174.131 88.774 176.526 C 94.089 175.81 98.166 177.956 100.985 182.467 C 96.015 180.568 96.704 179.293 90.222 178.897 C 90.916 179.559 91.719 180.26 92.25 181.044 C 87.227 181.196 84.228 182.183 80.678 185.96 C 80.277 186.384 79.652 187.085 79.248 187.484 C 79.36 184.704 92.524 157.302 94.671 154.561 Z" fill="#bb898c" style="transform-origin: 148.402px 147.5px;"/>
      <path d="M 92.25 181.044 C 96.275 181.905 99.066 183.842 101.291 187.338 C 102.799 189.701 106.46 196.691 106.292 199.378 C 105.928 199.456 106.083 199.405 105.823 199.529 C 105.677 200.471 105.698 201.355 105.558 202.294 C 105.026 205.881 103.293 210.037 100.27 212.265 C 95.367 215.879 86.76 213.837 83.347 208.982 C 81.388 206.208 81.141 203.468 81.17 200.219 C 81.173 199.732 81.176 199.507 81.125 199.015 C 81.011 199.05 77.897 201.715 77.34 202.102 C 77.284 203.017 77.221 203.831 77.248 204.745 C 75.721 205.301 74.965 206.21 73.505 206.761 L 72.91 205.128 C 73.485 202.819 78.156 188.801 79.248 187.484 C 79.652 187.085 80.277 186.384 80.678 185.96 C 84.228 182.183 87.227 181.196 92.25 181.044 Z" fill="url(#color-2)" style="transform-origin: 148.402px 147.5px;"/>
      <path d="M 97.169 186.947 C 101.353 188.679 105.796 197.446 104.183 201.45 L 104.133 202.197 C 103.645 203.82 102.828 206.41 101.836 207.819 C 101.745 207.975 101.649 208.13 101.553 208.286 C 100.058 210.679 97.641 212.137 94.922 212.798 C 89.179 214.184 84.403 210.579 83.201 204.981 L 82.883 203.033 C 82.838 201.816 82.88 200.474 83.072 199.272 C 82.306 197.727 83.379 193.557 84.944 192.651 C 84.777 191.769 84.797 191.372 84.807 190.497 C 85.149 190.094 85.483 189.735 85.84 189.349 L 87.343 188.837 L 88.597 188.991 C 88.777 188.763 88.792 188.807 89.068 188.647 C 90.624 188.784 95.195 187.376 97.169 186.947 Z" fill="#5a0b0b" style="transform-origin: 148.402px 147.5px;"/>
      <path d="M 83.865 201.796 C 83.953 201.684 84.035 201.567 84.126 201.454 C 84.589 200.855 84.72 200.669 85.405 200.582 C 86.006 203.202 86.718 205.669 88.711 207.617 C 90.412 209.282 92.88 209.792 95.148 209.182 C 97.483 208.55 98.733 206.8 100.019 204.918 C 101.383 206.054 101.166 206.252 101.836 207.819 C 101.745 207.975 101.649 208.13 101.553 208.286 C 100.058 210.679 97.641 212.137 94.922 212.798 C 89.179 214.184 84.403 210.579 83.201 204.981 C 83.139 203.72 83.367 202.946 83.865 201.796 Z" fill="#e26568" style="transform-origin: 148.402px 147.5px;"/>
      <path d="M 87.343 188.837 L 88.597 188.991 C 90.014 189.787 90.654 191.123 89.754 192.613 C 89.365 193.259 88.739 193.722 88.004 193.908 C 86.641 194.241 85.765 193.672 84.944 192.651 C 84.777 191.769 84.797 191.372 84.807 190.497 C 85.149 190.094 85.483 189.735 85.84 189.349 L 87.343 188.837 Z" fill="#f6f6f6" style="transform-origin: 148.402px 147.5px;"/>
      <path d="M 101.53 201.051 C 102.321 201.233 103.168 201.373 103.874 201.753 L 104.133 202.197 C 103.645 203.82 102.828 206.41 101.836 207.819 C 101.166 206.252 101.383 206.054 100.019 204.918 C 100.396 203.774 101.071 202.205 101.53 201.051 Z" fill="#862228" style="transform-origin: 148.402px 147.5px;"/>
      <path d="M 85.396 197.127 L 85.362 199.071 L 85.405 200.582 C 84.72 200.669 84.589 200.855 84.126 201.454 C 84.035 201.567 83.953 201.684 83.865 201.796 C 83.367 202.946 83.139 203.72 83.201 204.981 L 82.883 203.033 C 82.838 201.816 82.88 200.474 83.072 199.272 C 83.866 198.2 84.274 197.909 85.396 197.127 Z" fill="#ac4347" style="transform-origin: 148.402px 147.5px;"/>
      <path d="M 83.865 201.796 C 83.855 200.999 84.253 198.796 85.362 199.071 L 85.405 200.582 C 84.72 200.669 84.589 200.855 84.126 201.454 C 84.035 201.567 83.953 201.684 83.865 201.796 Z" fill="#c75f62" style="transform-origin: 148.402px 147.5px;"/>
      <path d="M 102.48 198.964 C 103.169 199.849 103.587 200.494 104.183 201.45 L 104.133 202.197 L 103.874 201.753 C 103.168 201.373 102.321 201.233 101.53 201.051 C 101.846 200.135 102.024 199.802 102.48 198.964 Z" fill="#68242a" style="transform-origin: 148.402px 147.5px;"/>
      <path d="M 90.302 192.558 C 90.552 192.373 90.888 192.337 91.171 192.469 C 91.46 192.6 91.651 192.872 91.675 193.184 C 91.7 193.502 91.551 193.8 91.293 193.973 C 90.902 194.232 90.374 194.13 90.103 193.748 C 89.836 193.362 89.923 192.835 90.302 192.558 Z" fill="#f6f6f6" style="transform-origin: 148.402px 147.5px;"/>
      <path d="M 77.34 202.102 C 77.609 198.789 79.168 194.316 81.065 191.576 C 83.375 188.233 85.594 186.608 89.533 185.782 C 88.575 186.36 85.614 188.142 85.84 189.349 C 85.483 189.735 85.149 190.094 84.807 190.497 C 84 191.162 83.46 192.33 83.008 193.272 C 82.328 194.927 81.891 196.292 81.551 198.059 C 81.496 198.35 81.232 200.052 81.17 200.219 C 81.173 199.732 81.176 199.507 81.125 199.015 C 81.011 199.05 77.897 201.715 77.34 202.102 Z" fill="#a9a7af" style="transform-origin: 148.402px 147.5px;"/>
      <path d="M 87.343 188.837 C 88.069 188.573 88.665 187.345 90.347 186.751 C 92.959 185.823 94.68 185.948 97.169 186.947 C 95.195 187.376 90.624 188.784 89.068 188.647 C 88.792 188.807 88.777 188.763 88.597 188.991 L 87.343 188.837 Z" fill="#68242a" style="transform-origin: 148.402px 147.5px;"/>
      <path d="M 83.008 193.272 C 83.46 192.33 84 191.162 84.807 190.497 C 84.797 191.372 84.777 191.769 84.944 192.651 C 83.379 193.557 82.307 197.727 83.072 199.272 C 82.88 200.474 82.838 201.816 82.883 203.033 C 81.654 200.936 82.595 197.898 82.821 195.559 C 82.879 194.989 83.65 193.758 83.495 193.169 L 83.008 193.272 Z" fill="#350d14" style="transform-origin: 148.402px 147.5px;"/>
      <path d="M 144.478 144.127 C 145.323 144.154 146.942 144.465 147.48 145.158 C 148.056 146.793 149.183 147.803 149.882 149.186 C 150.337 149.919 152.782 153.91 153.304 154.229 C 155.542 158.489 161.761 166.389 164.882 170.403 C 169.476 176.364 174.131 182.279 178.849 188.145 C 181.833 191.789 185.049 195.341 187.712 199.233 C 188.118 199.826 188.248 202.499 187.874 203.193 C 187.319 202.393 186.698 201.578 186.125 200.789 L 186.062 200.49 L 185.85 200.373 L 185.563 200.818 C 184.554 201.118 184.112 200.955 183.062 200.789 C 182.648 201.077 182.445 201.251 181.955 201.409 C 181.824 200.783 181.808 200.778 181.517 200.197 C 182.124 198.56 181.632 196.972 182.595 195.994 C 180.049 193.29 172.208 181.998 170.143 180.956 C 166.858 179.292 164.373 179.103 160.788 179.388 C 159.465 178.123 158.241 176.386 157.206 175.438 C 158.64 175.079 160.85 174.433 162.181 173.901 C 159.718 173.266 157.859 172.94 155.359 173.34 C 153.334 171.32 150.49 168.446 149.091 165.992 C 146.897 173.233 141.892 189.646 137.853 195.629 C 137.861 194.144 138.382 190.239 138.571 188.597 C 139.496 180.454 140.817 172.317 141.849 164.173 C 142.377 159.805 142.877 155.436 143.346 151.06 C 143.513 149.575 143.899 145.343 144.302 144.137 L 144.478 144.127 Z" fill="#bb898c" style="transform-origin: 148.402px 147.5px;"/>
      <path d="M 144.478 144.127 C 145.323 144.154 146.942 144.465 147.48 145.158 C 148.056 146.793 149.183 147.803 149.882 149.186 C 150.337 149.919 152.782 153.91 153.304 154.229 C 155.542 158.489 161.761 166.389 164.882 170.403 C 169.476 176.364 174.131 182.279 178.849 188.145 C 181.833 191.789 185.049 195.341 187.712 199.233 C 188.118 199.826 188.248 202.499 187.874 203.193 C 187.319 202.393 186.698 201.578 186.125 200.789 L 186.062 200.49 L 185.85 200.373 L 185.563 200.818 C 184.554 201.118 184.112 200.955 183.062 200.789 C 182.648 201.077 182.445 201.251 181.955 201.409 C 181.824 200.783 181.808 200.778 181.517 200.197 C 182.124 198.56 181.632 196.972 182.595 195.994 C 180.049 193.29 172.208 181.998 170.143 180.956 C 169.931 179.833 166.88 176.325 166.056 175.282 C 162.512 170.804 159.387 165.934 155.904 161.42 C 151.603 155.858 147.741 150.353 144.478 144.127 Z" fill="#68242a" style="transform-origin: 148.402px 147.5px;"/>
      <path d="M 183.197 197.942 C 184.228 199.102 185.459 200.574 186.055 202.015 C 185.148 202.185 184.467 202.321 183.673 202.822 C 183.249 203.117 183.047 203.292 182.547 203.454 C 182.414 202.818 182.398 202.812 182.101 202.222 C 182.721 200.556 182.219 198.939 183.197 197.942 Z" fill="#350d14" style="transform-origin: 148.402px 147.5px;"/>
      <path d="M 182.101 202.222 C 182.398 202.812 182.414 202.818 182.547 203.454 C 183.047 203.292 183.249 203.117 183.673 202.822 C 184.746 202.992 185.195 203.16 186.22 202.857 L 186.512 202.402 L 186.73 202.522 L 186.791 202.822 C 187.38 203.626 188.011 204.459 188.574 205.271 C 189.113 206.766 189.054 207.891 189.057 209.46 C 187.987 209.531 187.398 210.11 186.823 209.946 L 186.745 209.526 C 186.262 210.559 185.797 211.095 185.469 211.77 C 184.936 212.221 184.872 212.279 184.254 212.587 L 184.044 212.55 C 184.029 212.106 184.03 211.787 184.039 211.342 C 183.766 211.35 183.846 211.295 183.581 211.591 C 182.922 212.315 182.353 213.201 181.73 213.963 C 178.533 217.853 175.633 219.415 170.55 219.521 C 170.104 219.534 170.069 219.521 169.628 219.44 C 175.006 218.406 179.971 214.011 182.342 209.182 C 181.586 208.441 181.681 207.405 180.532 207.067 C 181.24 205.406 181.671 203.964 182.101 202.222 Z" fill="url(#color-3)" style="transform-origin: 148.402px 147.5px;"/>
      <path d="M 186.791 202.822 C 187.38 203.626 188.011 204.459 188.574 205.271 C 189.113 206.766 189.054 207.891 189.057 209.46 C 187.987 209.531 187.398 210.11 186.823 209.946 L 186.745 209.526 C 187.932 206.898 186.877 205.219 186.791 202.822 Z" fill="#f6d0cf" style="transform-origin: 148.402px 147.5px;"/>
      <path d="M 182.101 202.222 C 182.398 202.812 182.414 202.818 182.547 203.454 C 182.946 205.497 183.26 207.184 182.342 209.182 C 181.586 208.441 181.681 207.405 180.532 207.067 C 181.24 205.406 181.671 203.964 182.101 202.222 Z" fill="#a9a7af" style="transform-origin: 148.402px 147.5px;"/>
      <path d="M 77.84 207.525 C 79.729 211.002 81.906 213.343 85.599 214.981 C 86.666 215.457 88.066 215.873 89.033 216.327 C 83.34 216.167 77.854 213.911 74.625 209.056 C 75.72 208.793 76.746 208.053 77.84 207.525 Z" fill="#68242a" style="transform-origin: 148.402px 147.5px;"/>
      <path d="M 155.359 173.34 C 157.859 172.94 159.718 173.266 162.181 173.901 C 160.85 174.433 158.64 175.079 157.206 175.438 C 153.345 176.577 151.647 178.065 148.521 180.443 C 150.01 176.135 150.937 174.832 155.359 173.34 Z" fill="#68242a" style="transform-origin: 148.402px 147.5px;"/>
      <path d="M 73.505 206.761 C 74.965 206.21 75.721 205.301 77.248 204.745 C 77.427 205.841 77.519 206.462 77.84 207.525 C 76.746 208.057 75.72 208.793 74.625 209.056 C 74.187 208.29 73.869 207.561 73.505 206.761 Z" fill="#350d14" style="transform-origin: 148.402px 147.5px;"/>
      <path d="M 186.745 209.526 L 186.823 209.946 C 187.398 210.11 187.987 209.531 189.057 209.46 L 189.02 211.256 C 187.7 211.391 186.768 211.519 185.469 211.77 C 185.797 211.095 186.262 210.559 186.745 209.526 Z" fill="#bb898c" style="transform-origin: 148.402px 147.5px;"/>
      <path d="M 145.207 238.375 C 145.8 238.305 146.371 238.251 146.908 238.573 C 147.255 238.781 147.519 239.094 147.589 239.497 C 147.659 239.934 147.488 240.338 147.249 240.693 C 146.018 242.469 136.015 245.109 133.73 245.57 C 127.645 246.795 119.247 247.409 113.817 243.83 C 113.116 243.094 112.54 242.292 113.499 241.311 C 113.655 241.14 114.29 240.972 114.489 241.103 C 118.876 244.029 122.965 245.648 128.413 245.265 C 132.662 244.966 137.693 243.541 141.441 241.304 C 142.762 240.514 143.964 239.368 145.207 238.375 Z" fill="#68242a" style="transform-origin: 148.402px 147.5px;"/>
      <path d="M 121.561 216.679 C 122.887 217.952 121.298 223.934 120.958 225.597 C 121.539 227.443 122.574 229.058 123.436 230.834 C 122.825 230.498 122.193 230.099 121.586 229.74 C 114.742 225.751 118.55 222.402 121.561 216.679 Z" fill="#bb898c" style="transform-origin: 148.402px 147.5px;"/>
      <path d="M 136.186 250.722 L 136.301 250.772 C 135.152 253.127 130.754 255.46 128.284 254.516 C 127.524 254.229 127.035 254.001 126.346 253.596 C 125.596 253.114 125.049 252.619 124.375 252.047 C 129.359 251.879 131.279 251.866 136.186 250.722 Z" fill="#bb898c" style="transform-origin: 148.402px 147.5px;"/>
      <path d="M 99.523 149.232 C 99.816 149.042 100.114 148.856 100.416 148.683 C 113.045 141.483 128.024 139.567 142.07 143.344 C 140.235 155.317 139.291 167.698 138.012 179.753 C 136.969 189.587 135.679 199.375 134.743 209.213 C 134.662 210.114 134.677 210.947 134.452 211.834 L 134.314 211.922 L 134.187 211.772 C 133.995 210.251 133.94 207.088 133.862 205.461 C 133.524 198.896 133.469 192.32 133.708 185.748 C 133.824 182.472 134.179 177.517 134.052 174.369 C 133.872 174.723 133.951 176.45 133.853 176.916 C 133.567 178.247 134.075 183.511 133.091 184.08 C 127.723 184.2 124.233 176.453 121.901 172.658 C 118.592 167.272 115.984 161.806 113.282 156.124 C 113.533 157.375 113.985 158.701 114.284 160.035 C 115.732 166.421 117.49 173.392 120.632 179.165 C 120.967 179.78 120.964 179.471 121.08 180.291 L 120.836 180.228 C 119.511 177.949 117.715 176.085 116.346 173.853 C 114.506 170.844 113.068 167.577 111.728 164.327 C 111.328 163.353 111.198 162.532 110.74 161.488 L 110.586 161.585 C 110.613 162.293 111.551 164.769 111.816 165.62 C 113.525 170.974 115.134 176.812 117.404 181.943 C 115.419 179.746 113.328 177.617 111.447 175.335 C 104.617 167.006 101.908 159.469 99.523 149.232 Z" fill="#e26568" style="transform-origin: 148.402px 147.5px;"/>
      <path d="M 130.398 69.253 C 131.115 69.221 131.765 69.368 132.453 69.561 C 134.649 70.188 135.855 73.005 135.241 75.128 C 134.26 78.546 132.373 81.836 131.226 85.225 C 129.834 89.318 129.048 93.667 127.613 97.753 C 126.637 100.497 125.443 102.043 122.764 103.259 C 118.484 103.69 117.587 99.513 117.623 96.13 C 117.71 88.078 121.601 71.757 130.398 69.253 Z" fill="#c75f62" style="transform-origin: 148.402px 147.5px;"/>
      <path d="M 147.48 145.158 C 148.048 144.996 148.16 145.012 148.694 145.389 C 152.268 146.954 155.103 148.284 158.427 150.355 C 168.912 156.886 178.37 168.042 182.802 179.575 C 183.001 180.094 183.183 180.623 183.346 181.151 C 176.546 176.426 171.831 172.564 165.813 166.842 C 164.365 165.458 162.965 164.031 161.607 162.561 C 161.285 162.218 159.666 160.464 159.435 160.29 C 158.552 160.068 153.888 154.217 153.058 153.147 L 152.904 152.94 C 152.794 153.544 153.33 153.182 153.304 154.229 C 152.782 153.91 150.337 149.919 149.882 149.186 C 149.183 147.803 148.056 146.793 147.48 145.158 Z" fill="#e26568" style="transform-origin: 148.402px 147.5px;"/>
      <path d="M 149.882 150.268 C 150.342 150.459 150.47 150.547 150.97 150.636 C 154.157 155.393 156.265 157.304 159.612 161.58 C 158.709 161.355 153.963 155.396 153.116 154.302 L 152.959 154.094 C 152.849 154.711 153.393 154.34 153.362 155.408 C 152.839 155.08 150.344 151.018 149.882 150.268 Z" fill="#a34043" style="transform-origin: 148.402px 147.5px;"/>
      <path d="M 147.48 145.158 C 148.048 144.996 148.16 145.012 148.694 145.389 L 148.52 145.66 C 149.314 146.925 150.314 148.217 150.951 149.546 C 150.459 149.458 150.337 149.374 149.882 149.186 C 149.183 147.803 148.056 146.793 147.48 145.158 Z" fill="#c75f62" style="transform-origin: 148.402px 147.5px;"/>
      <path d="M 118.579 110.13 C 120.437 110.326 121.81 111.203 122.042 113.162 C 122.455 116.624 121.367 121.869 117.343 122.474 C 113.378 121.975 113.113 118.583 113.977 115.404 C 114.715 112.674 115.567 110.701 118.579 110.13 Z" fill="#c75f62" style="transform-origin: 148.402px 147.5px;"/>
      <path d="M 84.775 160.811 L 84.921 160.957 C 84.743 161.647 82.531 165.344 82 166.359 C 76.583 176.722 71.297 185.371 68.513 196.874 L 68.401 196.723 C 68.285 195.292 69.381 190.84 69.767 189.266 C 72.71 177.308 77.229 170.306 84.775 160.811 Z" fill="#e26568" style="transform-origin: 148.402px 147.5px;"/>
      <path d="M 139.705 53.421 C 136.293 38.211 131.998 23.482 120.104 12.683 C 119.618 12.247 118.248 10.706 118.109 10.157 C 117.246 6.787 123.849 -1.65 127.032 0.285 C 128.951 1.836 131.166 5.795 132.494 7.987 C 141.448 22.82 146.871 41.153 150.014 58.136 C 146.972 59.344 144.386 60.06 141.063 60.047 C 140.835 58.971 139.721 54.143 139.705 53.421 Z" fill="#862228" style="transform-origin: 148.402px 147.5px;"/>
      <path d="M 127.032 0.285 C 128.951 1.836 131.165 5.795 132.494 7.987 C 141.448 22.82 146.871 41.153 150.014 58.136 C 146.972 59.344 144.386 60.06 141.063 60.047 C 140.835 58.971 139.721 54.143 139.705 53.421 L 140.128 54.082 L 140.235 53.916 L 140.051 53.944 L 140.236 53.813 C 139.615 44.112 138.975 39.648 135.156 30.724 C 135.237 30.655 135.437 30.544 135.542 30.483 C 136.627 31.123 140.7 41.49 141.233 43.351 C 141.818 45.404 142.605 48.575 143.274 50.765 C 143.154 48.503 142.742 46.387 142.501 44.231 C 141.269 33.232 136.928 22.671 131.255 13.224 C 129.337 10.044 128.839 8.135 126.143 5.215 C 127.014 3.543 127.038 2.103 127.032 0.285 Z" fill="#68242a" style="transform-origin: 148.402px 147.5px;"/>
      <path d="M 139.705 53.421 C 136.293 38.211 131.998 23.482 120.104 12.683 C 119.618 12.247 118.248 10.706 118.109 10.157 C 117.246 6.787 123.849 -1.65 127.032 0.285 C 127.038 2.103 127.014 3.543 126.143 5.215 C 124.742 7.352 123.38 8.066 121.272 9.536 C 123.736 12.989 126.678 15.838 128.943 19.426 C 130.346 21.654 131.605 23.825 132.841 26.14 C 133.376 27.141 134.641 29.96 135.156 30.724 C 138.975 39.648 139.615 44.112 140.236 53.813 L 140.051 53.944 L 140.235 53.916 L 140.128 54.082 L 139.705 53.421 Z" fill="#a34043" style="transform-origin: 148.402px 147.5px;"/>
      <path d="M 152.476 54.173 C 154.526 54.135 156.573 54.205 158.612 54.384 L 158.651 54.622 L 158.457 54.913 C 157.5 54.404 154.329 56.385 153.079 56.85 L 152.819 56.949 C 152.727 56.019 152.612 55.094 152.476 54.173 Z" fill="#a34043" style="transform-origin: 148.402px 147.5px;"/>
    </g>
  </svg>
</svg>