<?xml version="1.0" encoding="utf-8"?>
<svg id="svg" version="1.1" viewBox="0 0 300 300" width="300" height="300" xmlns="http://www.w3.org/2000/svg">
  <svg xmlns="http://www.w3.org/2000/svg" style="">
    <defs>
      <clipPath id="clip-1">
        <rect x="0" y="0" transform="scale(0.14648,0.14648)" width="2048" height="2048" fill="none"/>
      </clipPath>
      <linearGradient x1="101.14893" y1="195.44971" x2="103.06626" y2="202.7666" gradientUnits="userSpaceOnUse" id="color-1" gradientTransform="matrix(1.174139, 0, 0, 1.17008, 2.834108, -32.859423)">
        <stop offset="0" stop-color="#681717"/>
        <stop offset="1" stop-color="#963736"/>
      </linearGradient>
      <linearGradient x1="47.58193" y1="210.58594" x2="35.36997" y2="183.34863" gradientUnits="userSpaceOnUse" id="color-2" gradientTransform="matrix(1.152886, 0, 0, 1.148904, 4.892051, -30.778531)">
        <stop offset="0" stop-color="#361414"/>
        <stop offset="1" stop-color="#1d1618"/>
      </linearGradient>
      <linearGradient x1="119.74043" y1="204.53027" x2="127.33096" y2="208.19971" gradientUnits="userSpaceOnUse" id="color-3" gradientTransform="matrix(1.174139, 0, 0, 1.17008, 2.834108, -32.859423)">
        <stop offset="0" stop-color="#4b2229"/>
        <stop offset="1" stop-color="#834a4e"/>
      </linearGradient>
    </defs>
    <g clip-path="url(#clip-1)" fill="none" fill-rule="nonzero" stroke="none" stroke-width="1" stroke-linecap="butt" stroke-linejoin="miter" stroke-miterlimit="10" stroke-dasharray="" stroke-dashoffset="0" font-family="none" font-weight="none" font-size="none" text-anchor="none" style="mix-blend-mode: normal">
      <path d="M 61.331 0.106 C 65.728 -0.044 70.839 0.076 75.296 0.076 L 101.111 0.086 L 179.124 0.076 L 220.736 0.066 C 229.144 0.066 241.263 -0.394 249.234 1.116 C 260.634 3.286 271.234 8.506 279.9 16.216 C 292.578 27.656 300.133 43.706 300.866 60.766 C 301.089 65.006 300.968 70.046 300.963 74.346 L 300.953 97.016 L 300.944 170.636 L 300.946 218.543 L 300.954 231.978 C 300.958 238.797 301.088 243.059 299.813 249.829 C 297.676 261.108 292.451 271.576 284.722 280.062 C 272.844 293.256 257.283 300.089 239.696 301.01 C 235.405 301.274 230.459 301.08 226.114 301.079 L 201.676 301.073 L 126.08 301.076 L 81.424 301.079 L 68.794 301.077 C 62.813 301.075 58.18 301.15 52.207 300.042 C 40.57 297.969 29.749 292.668 20.98 284.739 C 8.374 273.471 0.858 257.583 0.143 240.689 C -0.085 235.779 0.027 230.308 0.031 225.355 L 0.027 201.38 L 0.032 125.366 L 0.022 81.706 L 0.023 69.026 C 0.027 63.186 0.015 58.106 1.072 52.326 C 6.544 22.356 31.103 1.536 61.331 0.106 Z" style="fill: rgb(65, 14, 30);"/>
      <path d="M 141.17 97.617 C 148.597 93.252 156.373 89.026 163.891 84.801 L 204.392 62.051 C 211.545 57.964 218.72 53.919 225.919 49.914 C 228.437 48.5 233.598 45.388 236.052 44.299 C 237.067 43.845 238.205 43.74 239.283 44.008 C 241.43 44.555 243.305 47.12 244.173 49.039 C 245.335 51.615 248.159 55.546 248.808 58.114 C 249.041 59.019 249.028 59.973 248.769 60.871 C 248.297 62.534 247.454 63.382 246.028 64.257 C 242.295 66.537 238.29 68.687 234.484 70.844 L 208.335 85.513 C 193.851 93.802 179.318 102.009 164.742 110.136 C 159.266 113.202 153.537 116.653 148.013 119.58 C 147.57 119.811 147.128 120.039 146.68 120.259 C 146.544 119.95 146.228 118.68 146.124 118.283 C 147.86 117.436 150.3 115.973 152.055 115.016 C 153.793 114.07 157.136 112.293 158.583 111.159 C 157.209 110.798 153.793 109.297 152.341 108.687 C 149.369 107.436 145.955 106.15 143.076 104.763 C 142.591 103.186 142.161 101.317 141.716 99.693 L 141.17 97.617 Z" fill="#75737f" style=""/>
      <path d="M 142.631 99.833 C 144.778 98.615 147.266 97.257 149.416 96.075 C 150.871 95.276 155.493 92.413 156.691 92.069 C 161.652 94.071 166.601 96.101 171.537 98.163 C 173.636 99.027 176.339 100.234 178.435 100.968 C 177.783 101.592 160.77 111.173 159.811 111.51 C 158.41 111.144 154.932 109.614 153.456 108.993 C 150.427 107.72 146.948 106.411 144.018 104.997 C 143.522 103.39 143.087 101.486 142.631 99.833 Z" fill="#f6f6f6" style=""/>
      <path d="M 149.622 271.068 C 148.52 271.517 144.327 275.181 142.92 276.183 C 139.941 278.28 136.827 280.185 133.602 281.886 C 115.766 291.335 97.775 291.402 78.326 287.787 C 72.917 286.783 68.931 286.197 63.491 284.534 C 42.131 278.052 24.301 263.252 14.042 243.488 C 10.23 236.269 7.592 228.495 6.233 220.451 C 2.362 198.393 7.826 178.874 19.531 160.095 C 25.453 150.228 33.684 140.961 38.383 130.414 C 45.176 115.169 47.757 98.068 52.603 82.186 C 55.714 71.998 61.293 63.798 71.195 59.201 C 73.781 58.002 76.956 57.44 79.281 56.225 C 79.067 54.079 77.047 48.32 76.386 46.182 C 75.591 43.689 75.068 40.423 73.93 38.084 C 71.477 33.046 69.032 27.988 65.352 23.707 C 63.42 21.46 60.032 20.037 59.247 16.848 C 58.743 14.681 59.304 11.804 60.541 10.011 C 63.928 5.128 69.849 -0.131 74.315 7.116 C 75.359 8.813 76.949 10.716 78.028 12.404 C 78.944 13.837 79.598 15.585 80.434 17.091 C 83.974 23.549 86.853 30.308 89.108 37.319 C 90.196 40.711 90.803 44.375 92.128 47.733 C 92.426 48.491 93.074 54.063 93.551 54.125 C 95.805 54.417 98.346 54.158 100.642 54.36 C 106.44 54.997 112.328 56.738 117.128 60.117 C 127.499 66.985 133.845 78.575 138.425 89.789 C 139.076 91.385 140.878 96.088 141.17 97.617 L 141.716 99.693 C 142.161 101.317 142.591 103.186 143.076 104.763 C 145.955 106.15 149.369 107.436 152.341 108.687 C 153.793 109.297 157.209 110.798 158.583 111.159 C 157.136 112.293 153.793 114.07 152.055 115.016 C 150.3 115.973 147.86 117.436 146.124 118.283 C 146.228 118.68 146.544 119.95 146.68 120.259 C 147.014 121.7 149.431 129.979 150.082 131.15 C 161.395 127.701 172.729 124.323 184.081 121.01 L 224.303 108.937 L 246.504 102.278 C 250.035 101.197 253.599 99.979 257.131 98.993 C 258.793 98.5 261.513 99.598 262.295 101.132 C 264.033 104.538 264.958 108.588 266.07 112.26 C 267.201 115.994 267.805 118.5 264.931 121.532 C 267.006 129.297 269.428 137.195 271.664 144.928 L 284.264 188.703 L 288.448 203.432 C 290.694 211.178 293.37 217.086 288.929 224.722 C 287.11 227.905 284.322 230.432 280.967 231.935 C 278.669 232.977 275.644 233.838 273.2 234.563 L 264.012 237.298 L 231.447 247.041 L 179.499 262.537 L 162.928 267.497 C 159.958 268.39 156.601 269.49 153.622 270.267 C 152.304 270.601 150.968 270.868 149.622 271.068 Z" fill="#261d20" style=""/>
      <path d="M 151.153 131.871 C 162.674 128.357 174.216 124.914 185.781 121.545 L 226.742 109.248 L 249.351 102.465 C 252.949 101.367 256.578 100.125 260.175 99.122 C 261.866 98.618 264.641 99.737 265.437 101.301 C 267.205 104.77 268.148 108.892 269.279 112.633 C 270.429 116.436 271.045 118.99 268.119 122.074 C 270.233 129.983 272.697 138.026 274.976 145.905 L 287.81 190.485 L 292.068 205.487 C 294.357 213.372 297.082 219.39 292.56 227.169 C 290.709 230.41 287.867 232.982 284.451 234.513 C 282.111 235.576 279.03 236.451 276.54 237.186 L 267.182 239.975 L 234.018 249.898 L 181.113 265.677 L 164.235 270.728 C 161.209 271.639 157.791 272.76 154.759 273.549 C 153.415 273.891 152.056 274.163 150.685 274.366 C 150.823 273.6 156.175 268.707 157.078 268.326 C 159.238 267.415 162.422 266.638 164.76 265.933 C 170.843 264.047 176.949 262.227 183.07 260.472 L 252.903 239.597 L 271.593 234.028 C 278.272 232.047 285.216 231.097 288.861 224.52 C 290.246 222.057 290.791 219.21 290.415 216.409 C 290.15 214.405 289.059 210.756 288.499 208.704 C 286.998 203.198 285.277 197.731 283.754 192.228 L 264.007 123.627 L 195.911 144.109 L 172.142 151.211 C 169.677 151.963 165.083 153.1 162.931 153.969 C 162.448 153.155 162.112 152.48 161.696 151.632 C 160.562 149.722 159.07 147.302 158.143 145.343 C 159.675 141.1 162.562 135.014 164.429 130.758 C 164.288 130.723 164.148 130.688 164.011 130.654 C 160.782 131.614 155.39 133.052 152.332 134.192 C 152.03 133.529 151.578 132.415 151.153 131.871 Z" fill="#75737f" style=""/>
      <path d="M 242.411 107.543 C 242.434 107.48 242.44 107.411 242.479 107.355 C 242.808 106.861 260.038 101.79 261.5 101.66 C 262.024 101.872 261.785 101.711 262.15 102.274 C 259.088 109.741 255.496 117.028 252.412 124.409 C 250.733 125.043 233.056 130.306 232.318 130.268 C 235.618 122.663 238.982 115.088 242.411 107.543 Z" fill="#f6f6f6" style=""/>
      <path d="M 204.103 118.818 C 204.156 118.778 223.618 112.814 224.358 112.766 C 222.202 117.689 220.008 122.595 217.765 127.481 C 216.674 129.896 215.183 133.507 213.951 135.758 C 213.415 136.307 204.681 138.804 203.392 139.167 C 200.399 139.998 196.861 141.332 193.869 142.086 C 197.378 134.632 200.782 126.414 204.103 118.818 Z" fill="#f6f6f6" style=""/>
      <path d="M 184.602 124.627 C 185.723 124.078 203.588 118.688 204.103 118.818 C 200.782 126.414 197.377 134.632 193.869 142.086 C 193.195 142.495 174.991 147.833 174.281 147.856 C 175.885 144.502 177.226 141.081 178.766 137.717 C 180.78 133.313 182.819 129.139 184.602 124.627 Z" fill="#350d14" style=""/>
      <path d="M 164.429 130.758 C 164.69 130.476 182.681 125.024 184.602 124.627 C 182.819 129.139 180.78 133.313 178.766 137.717 C 177.226 141.081 175.885 144.502 174.281 147.856 C 172.863 148.408 170.789 148.94 169.277 149.379 C 166.745 150.112 164.217 150.865 161.695 151.632 C 160.562 149.722 159.07 147.302 158.143 145.343 C 159.675 141.1 162.562 135.014 164.429 130.758 Z" fill="#f6f6f6" style=""/>
      <path d="M 224.358 112.766 C 225.038 112.229 240.34 107.504 242.153 107.266 L 242.411 107.543 C 238.982 115.088 235.618 122.663 232.318 130.268 C 232.007 130.534 231.33 130.915 230.964 130.994 C 228.848 131.473 214.931 136.191 213.951 135.758 C 215.183 133.507 216.674 129.896 217.765 127.481 C 220.008 122.595 222.202 117.689 224.358 112.766 Z" fill="#350d14" style=""/>
      <path d="M 262.15 102.274 C 262.778 102.077 262.479 102.066 263.078 102.296 C 263.45 102.681 263.895 103.401 264.065 104.042 C 265.204 108.407 267.151 113.333 267.843 117.685 C 267.959 118.4 266.746 119.742 266.363 120.017 C 265.052 120.967 252.994 124.424 252.412 124.409 C 255.496 117.028 259.088 109.741 262.15 102.274 Z" fill="#350d14" style=""/>
      <path d="M 170.65 168.57 C 175.173 167.555 179.672 165.846 184.177 164.65 C 186.131 164.134 188.477 163.176 190.506 162.56 L 229.951 150.69 C 231.349 150.28 239.787 147.501 240.732 147.541 C 240.741 147.929 240.632 148.069 240.47 148.427 L 240.64 148.503 C 241.014 148.282 241.115 147.823 241.288 147.388 C 241.749 147.054 245.578 145.806 246.316 145.601 C 246.638 145.71 246.826 145.866 247.144 145.711 C 249.029 144.824 258.702 141.822 260.148 142.386 C 260.495 142.521 260.574 142.63 260.784 142.919 C 260.282 145.218 244.736 148.762 242.023 149.577 C 239.038 150.474 235.841 151.777 232.853 152.703 L 222.522 155.919 C 221.276 156.294 219.786 156.589 218.605 157.018 C 220.672 164.619 223.184 172.173 225.109 179.83 C 225.565 181.647 225.876 183.607 226.384 185.387 C 228.988 184.845 231.374 183.92 233.92 183.172 C 238.858 181.727 243.876 180.467 248.708 178.671 C 250.061 178.168 250.811 177.898 252.241 177.671 C 252.726 177.066 252.994 177.039 253.84 176.964 C 257.616 176.624 265.873 172.954 269.269 173.462 C 269.641 173.87 269.535 173.639 269.606 174.177 L 269.483 174.363 C 269.061 174.132 269.049 174.13 268.697 173.803 L 268.57 173.851 C 268.693 174.553 268.836 174.619 268.573 175.099 C 265.097 176.595 260.921 177.848 257.285 178.927 C 255.135 179.57 252.663 180.368 250.501 180.885 L 250.313 180.808 L 250.242 180.511 C 250.2 180.515 249.079 181.328 247.972 181.699 C 233.881 186.448 216.114 191.455 202.187 195.681 L 186.518 200.356 C 184.977 200.813 183.474 201.381 181.926 201.806 C 181.839 201.245 181.583 199.82 181.558 199.315 C 179.754 190.296 177.527 182.487 173.508 174.08 C 172.774 172.624 171.47 169.854 170.65 168.57 Z" fill="#171718" style=""/>
      <path d="M 170.65 168.57 C 175.173 167.555 179.672 165.846 184.177 164.65 C 186.131 164.134 188.477 163.176 190.506 162.56 L 229.951 150.69 C 231.349 150.28 239.787 147.501 240.732 147.541 C 240.741 147.929 240.632 148.069 240.47 148.427 L 240.64 148.503 C 241.014 148.282 241.115 147.823 241.288 147.388 C 241.749 147.054 245.578 145.806 246.316 145.601 C 246.638 145.71 246.826 145.866 247.144 145.711 C 249.029 144.824 258.702 141.822 260.148 142.386 C 260.495 142.521 260.574 142.63 260.784 142.919 C 260.282 145.218 244.736 148.762 242.023 149.577 C 239.038 150.474 235.841 151.777 232.853 152.703 L 222.522 155.919 C 221.276 156.294 219.786 156.589 218.605 157.018 C 220.672 164.619 223.184 172.173 225.109 179.83 C 225.565 181.647 225.876 183.607 226.384 185.387 C 228.988 184.845 231.374 183.92 233.92 183.172 C 238.858 181.727 243.876 180.467 248.708 178.671 C 250.061 178.168 250.811 177.898 252.241 177.671 C 252.726 177.066 252.994 177.039 253.84 176.964 C 257.616 176.624 265.873 172.954 269.269 173.462 C 269.641 173.87 269.535 173.639 269.606 174.177 L 269.483 174.363 C 269.061 174.132 269.049 174.13 268.697 173.803 L 268.57 173.851 C 268.693 174.553 268.836 174.619 268.573 175.099 C 265.097 176.595 260.921 177.848 257.285 178.927 C 255.135 179.57 252.663 180.368 250.501 180.885 L 250.313 180.808 L 250.242 180.511 C 250.2 180.515 249.079 181.328 247.972 181.699 C 233.881 186.448 216.114 191.455 202.187 195.681 L 186.518 200.356 C 184.977 200.813 183.474 201.381 181.926 201.806 C 181.839 201.245 181.583 199.82 181.558 199.315 C 185.848 197.421 192.582 195.922 197.174 194.506 C 199.844 193.681 203.138 192.324 205.922 191.641 C 206.155 191.58 206.202 191.728 206.45 191.952 C 206.834 191.948 207.049 191.826 207.357 191.595 C 209.292 190.144 215.052 189.034 217.595 188.331 C 219.915 187.693 222.659 186.866 224.784 185.764 C 224.424 185.171 223.117 182.738 223.123 182.164 C 223.486 182.047 223.311 182.113 223.639 181.965 C 223.407 181.086 222.448 179.663 222.142 178.665 C 221.913 178.449 222.246 177.583 222.216 177.5 C 221.327 175.076 220.541 172.681 219.555 170.293 L 219.824 169.832 C 219.789 169.065 219.076 168.37 218.928 167.715 C 218.171 164.283 217.024 160.982 216.132 157.58 C 214.122 158.537 206.874 160.552 204.392 161.318 C 193.929 164.51 183.439 167.607 172.918 170.614 C 173.27 171.87 173.525 172.774 173.508 174.08 C 172.774 172.624 171.47 169.854 170.65 168.57 Z" fill="#a9a7af" style=""/>
      <path d="M 250.592 178.894 L 250.761 179.136 C 250.437 179.666 250.221 179.644 249.585 179.998 L 249.462 179.748 C 249.86 179.414 250.166 179.194 250.592 178.894 Z" fill="#75737f" style=""/>
      <path d="M 276.315 205.069 C 277.056 205.308 277.96 204.83 278.399 205.316 C 278.174 205.63 278.174 205.615 278.004 205.965 L 278.353 206.173 L 278.389 206.376 C 278.117 206.548 277.841 206.715 277.587 206.912 C 275.896 208.228 263.309 211.586 260.282 212.488 C 251.737 215.036 243.263 217.835 234.711 220.363 L 220.797 224.563 C 217.951 225.424 216.016 225.882 213.151 227.006 C 214.008 228.977 214.061 230.459 214.741 232.353 C 215.815 235.36 216.452 238.387 217.362 241.411 C 217.694 242.513 218.116 243.72 217.626 244.782 C 217.102 245.153 217.159 245.026 216.377 245.041 C 215.449 244.304 211.454 229.696 210.851 227.552 C 208.626 228.327 206.209 228.846 203.972 229.622 C 201.391 230.514 198.481 230.956 195.972 231.964 C 193.552 232.706 191.154 233.515 188.702 234.139 C 184.911 235.105 181.027 236.172 177.334 237.468 L 177.237 237.323 C 177.849 236.262 177.574 235.912 178.287 234.577 C 180.29 233.929 182.408 233.394 184.398 232.668 C 184.631 232.583 184.728 232.756 184.945 232.91 C 185.561 232.866 188.001 231.561 189.123 231.232 L 219.092 222.145 C 221.745 221.345 224.537 220.724 227.196 219.885 C 229.191 219.256 231.084 218.239 233.042 217.608 C 233.192 217.719 233.343 217.835 233.497 217.942 C 237.847 216.253 243.275 214.905 247.775 213.554 C 251.015 212.579 254.11 211.549 257.425 210.633 C 259.775 209.904 262.11 209.099 264.446 208.311 C 264.674 208.235 264.914 208.431 265.077 208.555 C 266.79 207.952 275.819 205.44 276.315 205.069 Z" fill="#a9a7af" style=""/>
      <path d="M 214.23 205.9 C 214.656 205.499 222.014 203.703 222.79 203.776 C 223.039 204.194 223.23 205.382 222.615 205.626 C 219.372 206.903 215.973 207.843 212.654 208.911 C 206.933 210.544 201.299 212.662 195.656 214.335 L 187.309 216.775 C 185.553 217.277 183.509 217.786 181.833 218.466 C 181.887 217.892 182.051 215.568 182.366 215.466 C 190.118 212.954 203.909 208.732 211.149 206.686 L 211.629 206.997 C 211.986 206.271 213.466 205.977 214.23 205.9 Z" fill="#a9a7af" style=""/>
      <path d="M 211.629 206.997 C 211.986 206.271 213.466 205.977 214.23 205.9 C 213.461 206.987 212.993 207.769 211.629 206.997 Z" fill="#898890" style=""/>
      <path d="M 155.518 92.069 C 156.648 91.048 162.387 87.993 164.019 87.058 C 165.756 86.061 173.839 81.248 175.029 81.182 C 177.971 82.295 180.895 83.562 183.803 84.774 C 187.774 86.429 192.109 88.186 195.974 90.044 C 195.011 91.026 177.199 100.815 176.869 100.805 C 174.811 100.087 172.161 98.903 170.098 98.05 C 165.248 96.029 160.391 94.034 155.518 92.069 Z" fill="#350d14" style=""/>
      <path d="M 175.029 81.182 C 175.239 80.717 177.843 79.247 178.37 79.038 C 180.369 78.25 192.04 70.949 193.081 70.991 C 199.402 73.312 205.65 76.145 211.915 78.626 C 212.763 78.96 213.641 79.335 214.474 79.705 L 202.533 86.393 C 201.088 87.214 197.34 89.48 195.974 90.044 C 192.109 88.186 187.774 86.429 183.803 84.774 C 180.895 83.562 177.971 82.296 175.029 81.182 Z" fill="#f6f6f6" style=""/>
      <path d="M 193.081 70.991 L 193.19 70.72 C 194.994 69.679 209.101 61.441 209.946 61.335 C 216.857 63.886 224.433 67.274 231.27 70.103 C 230.705 70.746 216.105 79.044 214.474 79.705 C 213.641 79.335 212.763 78.96 211.915 78.626 C 205.65 76.145 199.402 73.312 193.081 70.991 Z" fill="#350d14" style=""/>
      <path d="M 226.905 51.834 C 231.033 53.414 235.142 55.04 239.231 56.708 C 241.607 57.67 244.295 58.843 246.697 59.635 C 246.245 61.503 246.019 61.856 244.348 62.833 C 241.779 64.337 239.133 65.808 236.521 67.232 C 234.895 68.119 232.892 69.366 231.27 70.103 C 224.433 67.274 216.857 63.886 209.946 61.335 C 210.654 60.591 225.049 52.773 226.905 51.834 Z" fill="#f6f6f6" style=""/>
      <path d="M 226.905 51.834 C 228.649 50.546 236.922 45.574 238.826 45.993 C 240.645 46.395 242.082 49.654 242.917 51.159 C 243.673 52.517 247.216 58.157 246.755 59.512 C 246.738 59.553 246.716 59.593 246.697 59.635 C 244.295 58.843 241.607 57.67 239.231 56.708 C 235.142 55.04 231.033 53.414 226.905 51.834 Z" fill="#350d14" style=""/>
      <path d="M 125.635 44.647 C 154.811 46.539 166.294 83.433 171.226 106.898 C 172.552 113.19 174.153 119.552 176.429 125.558 C 179.561 133.544 183.372 139.662 187.476 146.939 C 190.539 152.349 193.496 157.827 196.339 163.362 C 204.962 179.976 211.246 195.436 209.79 214.538 C 207.943 238.752 194.337 260.538 176.17 276.076 C 158.994 290.754 139.772 296.865 117.313 294.931 C 102.611 293.662 86.856 291.049 73.639 284.281 C 71.64 283.257 69.036 282.116 67.289 280.77 C 66.587 280.373 65.891 279.966 65.197 279.556 C 46.138 268.302 32.39 247.873 27.231 226.63 C 23.03 209.298 24.944 192.644 31.451 176.199 C 40.355 153.687 58.947 137.577 65.78 114.195 C 68.421 105.769 70.769 96.938 72.888 88.377 C 77.778 68.624 80.691 52.488 103.398 46.904 L 104.146 50.579 L 103.583 50.568 C 102.387 50.551 99.307 50.334 98.551 51.067 C 98.704 51.251 98.702 51.297 98.891 51.375 C 103.865 53.477 109.24 54.309 114.448 52.693 C 118.27 51.5 123.542 48.752 125.472 45.198 L 125.675 44.895 L 125.635 44.647 Z" fill="#ac4347" style=""/>
      <path d="M 125.635 44.647 C 154.811 46.539 166.294 83.433 171.226 106.898 C 172.552 113.19 174.153 119.552 176.429 125.558 C 179.561 133.544 183.372 139.662 187.476 146.939 C 190.539 152.349 193.496 157.827 196.339 163.362 C 204.962 179.976 211.246 195.436 209.79 214.538 C 207.943 238.752 194.337 260.538 176.17 276.076 C 158.994 290.754 139.772 296.865 117.313 294.931 C 102.611 293.662 86.856 291.049 73.639 284.281 C 71.64 283.257 69.036 282.116 67.289 280.77 C 68.598 280.729 74.293 282.371 76.49 282.763 C 85.475 284.437 94.664 284.716 103.735 283.599 C 127.455 280.525 149.922 269.361 164.365 250.092 C 178.125 231.73 184.199 208.369 181.346 185.646 C 178.541 163.282 165.127 144.412 158.517 123.242 C 152.521 103.52 151.729 82.272 143.586 63.173 C 139.871 54.456 132.72 50.279 125.675 44.895 L 125.635 44.647 Z" fill="#862228" style=""/>
      <path d="M 108.404 137.31 C 109.111 137.452 110.213 137.619 110.728 138.136 L 110.912 138.125 C 111.793 138.154 113.479 138.477 114.039 139.2 C 114.64 140.902 115.814 141.954 116.541 143.395 C 117.015 144.159 119.563 148.316 120.106 148.648 C 122.437 153.086 128.914 161.314 132.165 165.495 C 136.951 171.705 141.8 177.866 146.715 183.976 C 149.822 187.772 153.173 191.471 155.947 195.525 C 156.369 196.143 156.503 198.928 156.114 199.651 C 156.665 201.173 156.603 202.328 156.606 203.932 L 156.57 205.771 C 155.574 239.907 126.854 269.96 91.979 268.794 C 64.529 267.878 40.27 247.275 33.453 221.094 C 33.199 220.118 32.054 216.153 32.346 215.432 C 29.943 211.843 35.757 197.123 37.186 193.057 C 40.164 184.566 43.228 175.552 47.12 167.454 C 50.158 161.119 53.128 154.525 56.635 148.455 C 57.041 147.759 60.043 145.78 60.865 145.19 C 62.867 151.517 66.021 157.827 69.205 163.626 C 77.166 178.116 86.988 191.306 97.096 204.353 C 98.02 205.545 99.471 207.332 100.193 208.587 L 100.326 208.742 L 100.469 208.652 C 100.702 207.728 100.688 206.859 100.772 205.921 C 101.747 195.674 103.091 185.478 104.177 175.234 C 105.509 162.678 106.492 149.781 108.404 137.31 Z" fill="#f6d0cf" style=""/>
      <path d="M 127.901 174.855 C 131.635 174.557 134.224 174.755 137.645 176.488 C 139.796 177.573 147.964 189.335 150.616 192.152 C 149.613 193.17 150.125 194.825 149.494 196.529 C 149.053 198.311 148.613 199.786 147.887 201.483 C 149.064 201.828 148.967 202.889 149.742 203.652 C 147.316 208.587 142.234 213.079 136.737 214.144 C 136.501 214.118 134.415 214.312 134.028 214.343 C 130.625 214.599 127.686 214.065 124.677 212.402 C 120.199 209.936 116.801 205.902 115.15 201.08 C 114.533 199.325 114.044 197.123 113.511 195.282 L 113.392 195.229 C 113.127 194.864 113.243 194.841 113.313 194.238 C 113.491 183.235 116.532 176.745 127.901 174.855 Z" fill="#261d20" style=""/>
      <path d="M 126.403 182.373 L 126.805 182.329 C 126.927 182.541 126.991 182.729 127.186 182.888 C 128.006 183.346 131.889 182.902 133.104 182.875 C 134.21 182.854 136.578 183.039 137.551 182.907 C 140.858 184.205 144.43 187.758 145.863 191.012 C 146.936 193.465 148.189 197.792 147.089 200.361 C 146.99 200.715 146.812 201.325 146.747 201.659 C 146.414 202.79 145.995 204.476 145.401 205.427 C 141.893 211.882 134.73 215.756 127.795 211.799 C 125.338 210.4 123.24 208.192 122.085 205.602 C 120.806 203.199 120.449 201.378 120.04 198.7 C 119.36 195.559 120.815 190.483 122.267 187.654 L 121.716 187.81 C 121.717 187.573 121.872 187.375 121.992 187.154 L 121.83 186.751 C 122.318 185.86 123.476 184.921 124.26 184.24 C 124.777 183.516 125.672 182.931 126.403 182.373 Z" fill="#5a0b0b" style=""/>
      <path d="M 142.64 201.259 C 144.153 202.7 144.511 203.572 145.401 205.427 C 141.893 211.882 134.73 215.756 127.795 211.8 C 125.338 210.4 123.24 208.192 122.085 205.602 C 123.052 204.125 123.812 203.112 124.889 201.728 C 129.375 210.164 139.654 211.932 142.64 201.259 Z" fill="#e26568" style=""/>
      <path d="M 121.83 186.751 C 122.318 185.86 123.476 184.921 124.26 184.24 C 124.934 184.408 125.383 184.292 126.179 184.514 C 134.644 186.222 124.98 194.714 122.647 187.573 L 122.267 187.654 L 121.716 187.81 C 121.717 187.573 121.872 187.375 121.992 187.154 L 121.83 186.751 Z" fill="#f6f6f6" style=""/>
      <path d="M 121.83 186.751 C 122.318 185.86 123.476 184.921 124.26 184.24 C 124.934 184.408 125.383 184.292 126.179 184.514 C 124.032 184.783 123.045 185.316 122.647 187.573 L 122.267 187.654 L 121.716 187.81 C 121.717 187.573 121.872 187.375 121.992 187.154 L 121.83 186.751 Z" fill="#350d14" style=""/>
      <path d="M 124.015 194.965 C 124.077 197.178 124.172 199.608 124.889 201.728 C 123.812 203.112 123.052 204.125 122.085 205.602 C 120.806 203.199 120.449 201.378 120.04 198.7 C 120.264 196.97 122.73 195.869 124.015 194.965 Z" fill="url(#color-1)" style=""/>
      <path d="M 143.21 198.337 L 143.602 198.303 C 144.419 198.99 146.402 200.683 146.747 201.659 C 146.414 202.79 145.995 204.476 145.401 205.427 C 144.511 203.572 144.153 202.7 142.64 201.259 C 142.937 200.33 143.055 199.308 143.21 198.337 Z" fill="#862228" style=""/>
      <path d="M 143.412 196.127 C 144.806 197.784 145.905 198.47 147.089 200.361 C 146.99 200.715 146.812 201.325 146.747 201.659 C 146.402 200.683 144.419 198.99 143.602 198.303 L 143.21 198.337 C 143.248 197.526 143.306 196.932 143.412 196.127 Z" fill="#68242a" style=""/>
      <path d="M 130.196 189.394 C 130.62 189.379 130.981 189.688 131.024 190.11 C 131.071 190.526 130.784 190.91 130.366 190.981 C 130.073 191.033 129.772 190.919 129.59 190.681 C 129.409 190.443 129.377 190.126 129.504 189.851 C 129.631 189.587 129.897 189.409 130.196 189.394 Z" fill="#f6f6f6" style=""/>
      <path d="M 113.511 195.282 C 114.567 194.231 117.244 192.089 118.48 191.257 L 118.821 191.343 C 117.774 196.428 118.144 200.907 120.995 205.358 C 125.439 212.298 135.097 213.67 141.771 209.165 C 144.849 207.087 146.293 204.724 147.887 201.483 C 149.064 201.828 148.967 202.889 149.742 203.652 C 147.316 208.587 142.234 213.079 136.737 214.144 C 136.501 214.118 134.415 214.312 134.028 214.343 C 130.625 214.599 127.686 214.065 124.677 212.402 C 120.199 209.936 116.801 205.902 115.15 201.08 C 114.533 199.325 114.044 197.123 113.511 195.282 Z" fill="#f6f6f6" style=""/>
      <path d="M 126.225 180.558 C 125.507 181.104 124.631 181.681 124.118 182.388 C 123.35 183.054 122.214 183.981 121.739 184.856 C 120.105 187.273 119.678 188.49 118.821 191.343 L 118.48 191.257 C 117.244 192.089 114.567 194.231 113.511 195.282 L 113.392 195.229 C 113.127 194.864 113.243 194.841 113.313 194.238 C 114.212 192.949 114.981 189.095 116.475 187.013 C 119.205 183.212 121.723 181.54 126.225 180.558 Z" fill="#a9a7af" style=""/>
      <path d="M 127.186 182.888 C 130.603 180.841 134.079 181.268 137.551 182.907 C 136.579 183.039 134.21 182.854 133.104 182.875 C 131.889 182.902 128.006 183.346 127.186 182.888 Z" fill="#68242a" style=""/>
      <path d="M 108.404 137.31 C 109.111 137.452 110.213 137.619 110.728 138.136 C 110.309 139.392 109.907 143.8 109.733 145.348 C 109.244 149.905 108.724 154.455 108.174 159.006 C 107.099 167.489 105.723 175.964 104.759 184.446 C 104.563 186.157 104.02 190.224 104.012 191.771 C 103.713 193.196 103.611 195.431 103.406 196.94 C 102.774 201.646 102.408 207.71 101.271 212.286 C 97.209 208.153 93.583 201.934 89.657 197.516 C 87.995 195.647 86.7 193.411 84.91 191.519 C 83.565 191.262 81.222 189.078 80.13 188.099 C 71.923 180.779 63.807 172.261 57.352 163.368 C 56.012 166.081 54.032 169.379 52.89 171.874 C 58.426 171.127 62.672 173.363 65.609 178.061 C 60.432 176.084 61.149 174.756 54.398 174.343 C 55.12 175.032 55.957 175.763 56.51 176.578 C 51.279 176.738 48.153 177.766 44.457 181.699 C 44.038 182.142 43.388 182.872 42.967 183.287 C 41.83 184.659 36.964 199.26 36.365 201.665 C 35.174 204.067 33.294 212.338 32.346 215.432 C 29.943 211.843 35.757 197.123 37.186 193.057 C 40.164 184.566 43.228 175.552 47.12 167.454 C 50.158 161.119 53.128 154.525 56.635 148.455 C 57.041 147.759 60.043 145.78 60.865 145.19 C 62.867 151.517 66.021 157.829 69.205 163.627 C 77.166 178.116 86.988 191.306 97.096 204.353 C 98.02 205.545 99.471 207.332 100.193 208.587 L 100.326 208.742 L 100.469 208.652 C 100.702 207.729 100.688 206.859 100.772 205.921 C 101.747 195.674 103.091 185.478 104.177 175.234 C 105.509 162.678 106.492 149.781 108.404 137.31 Z" fill="#68242a" style=""/>
      <path d="M 59.032 148.994 L 59.156 149.202 C 60.626 151.728 61.728 154.623 63.097 157.216 C 67.41 165.403 72.188 173.233 77.424 180.864 C 79.705 184.181 82.924 188.056 84.91 191.519 C 83.565 191.262 81.222 189.078 80.13 188.099 C 71.923 180.779 63.807 172.261 57.352 163.368 C 56.012 166.081 54.032 169.379 52.89 171.874 C 58.426 171.127 62.672 173.363 65.609 178.061 C 60.432 176.084 61.149 174.756 54.398 174.343 C 55.12 175.032 55.957 175.763 56.51 176.578 C 51.279 176.738 48.153 177.766 44.457 181.699 C 44.038 182.142 43.388 182.872 42.967 183.287 C 43.084 180.392 56.796 151.849 59.032 148.994 Z" fill="#bb898c" style=""/>
      <path d="M 56.51 176.578 C 60.703 177.476 63.61 179.494 65.927 183.135 C 67.498 185.598 71.313 192.878 71.136 195.677 C 70.758 195.758 70.919 195.704 70.648 195.833 C 70.497 196.815 70.519 197.736 70.372 198.714 C 69.818 202.451 68.012 206.779 64.865 209.1 C 59.758 212.865 50.792 210.738 47.237 205.681 C 45.197 202.79 44.939 199.937 44.968 196.552 C 44.972 196.046 44.975 195.811 44.922 195.298 C 44.804 195.335 41.56 198.111 40.979 198.515 C 40.921 199.467 40.855 200.314 40.884 201.268 C 39.294 201.846 38.505 202.793 36.984 203.367 L 36.365 201.665 C 36.964 199.26 41.83 184.659 42.967 183.287 C 43.388 182.872 44.038 182.142 44.457 181.699 C 48.153 177.766 51.279 176.738 56.51 176.578 Z" fill="url(#color-2)" style=""/>
      <path d="M 61.634 182.728 C 65.992 184.532 70.62 193.663 68.939 197.835 L 68.888 198.613 C 68.379 200.303 67.529 203.001 66.496 204.469 C 66.401 204.631 66.301 204.792 66.201 204.956 C 64.643 207.448 62.126 208.966 59.293 209.654 C 53.312 211.098 48.336 207.344 47.085 201.513 L 46.753 199.484 C 46.706 198.216 46.75 196.818 46.95 195.567 C 46.152 193.957 47.27 189.613 48.9 188.67 C 48.726 187.752 48.747 187.337 48.758 186.426 C 49.114 186.006 49.461 185.632 49.834 185.23 L 51.399 184.697 L 52.705 184.857 C 52.893 184.62 52.908 184.665 53.196 184.499 C 54.816 184.641 59.578 183.175 61.634 182.728 Z" fill="#5a0b0b" style=""/>
      <path d="M 47.777 198.196 C 47.868 198.078 47.953 197.957 48.048 197.839 C 48.53 197.215 48.666 197.021 49.379 196.93 C 50.006 199.66 50.748 202.229 52.823 204.259 C 54.596 205.993 57.166 206.524 59.529 205.889 C 61.961 205.23 63.264 203.407 64.603 201.447 C 66.024 202.631 65.797 202.837 66.496 204.469 C 66.401 204.631 66.301 204.792 66.201 204.956 C 64.643 207.448 62.126 208.966 59.293 209.654 C 53.312 211.098 48.336 207.344 47.085 201.513 C 47.02 200.199 47.258 199.393 47.777 198.196 Z" fill="#e26568" style=""/>
      <path d="M 51.399 184.697 L 52.705 184.857 C 54.18 185.686 54.849 187.078 53.911 188.629 C 53.505 189.303 52.853 189.785 52.087 189.978 C 50.668 190.326 49.755 189.733 48.9 188.67 C 48.726 187.752 48.747 187.337 48.758 186.426 C 49.114 186.006 49.461 185.632 49.834 185.23 L 51.399 184.697 Z" fill="#f6f6f6" style=""/>
      <path d="M 66.176 197.419 C 67 197.609 67.882 197.754 68.617 198.15 L 68.888 198.613 C 68.379 200.303 67.529 203.001 66.496 204.469 C 65.797 202.837 66.024 202.631 64.603 201.447 C 64.995 200.256 65.699 198.622 66.176 197.419 Z" fill="#862228" style=""/>
      <path d="M 49.371 193.332 L 49.335 195.357 L 49.379 196.93 C 48.666 197.021 48.53 197.215 48.048 197.839 C 47.953 197.957 47.868 198.078 47.777 198.196 C 47.258 199.393 47.02 200.199 47.085 201.513 L 46.753 199.484 C 46.706 198.216 46.75 196.818 46.95 195.567 C 47.778 194.45 48.203 194.147 49.371 193.332 Z" fill="#ac4347" style=""/>
      <path d="M 47.777 198.196 C 47.766 197.364 48.181 195.071 49.335 195.357 L 49.379 196.93 C 48.666 197.021 48.53 197.215 48.048 197.839 C 47.953 197.957 47.868 198.078 47.777 198.196 Z" fill="#c75f62" style=""/>
      <path d="M 67.166 195.246 C 67.883 196.168 68.319 196.839 68.939 197.835 L 68.888 198.613 L 68.617 198.15 C 67.882 197.754 67 197.609 66.176 197.419 C 66.506 196.465 66.691 196.118 67.166 195.246 Z" fill="#68242a" style=""/>
      <path d="M 54.48 188.573 C 54.742 188.38 55.092 188.342 55.387 188.48 C 55.688 188.617 55.887 188.9 55.911 189.225 C 55.937 189.555 55.782 189.866 55.513 190.046 C 55.105 190.317 54.556 190.211 54.274 189.812 C 53.995 189.411 54.086 188.861 54.48 188.573 Z" fill="#f6f6f6" style=""/>
      <path d="M 40.979 198.515 C 41.26 195.063 42.884 190.404 44.859 187.55 C 47.266 184.068 49.577 182.375 53.68 181.515 C 52.683 182.117 49.599 183.973 49.834 185.23 C 49.461 185.632 49.114 186.006 48.758 186.426 C 47.916 187.118 47.354 188.335 46.883 189.316 C 46.176 191.04 45.72 192.463 45.366 194.303 C 45.309 194.605 45.033 196.378 44.968 196.552 C 44.972 196.046 44.975 195.811 44.922 195.298 C 44.804 195.335 41.56 198.111 40.979 198.515 Z" fill="#a9a7af" style=""/>
      <path d="M 51.399 184.697 C 52.155 184.422 52.776 183.143 54.529 182.525 C 57.248 181.557 59.041 181.687 61.634 182.728 C 59.578 183.175 54.816 184.641 53.196 184.499 C 52.908 184.665 52.893 184.62 52.705 184.857 L 51.399 184.697 Z" fill="#68242a" style=""/>
      <path d="M 46.883 189.316 C 47.354 188.335 47.916 187.118 48.758 186.426 C 48.747 187.337 48.726 187.752 48.9 188.67 C 47.27 189.613 46.153 193.957 46.95 195.567 C 46.75 196.818 46.706 198.216 46.753 199.484 C 45.473 197.299 46.453 194.135 46.688 191.698 C 46.749 191.104 47.553 189.823 47.391 189.209 L 46.883 189.316 Z" fill="#350d14" style=""/>
      <path d="M 110.912 138.125 C 111.793 138.154 113.479 138.477 114.039 139.2 C 114.64 140.902 115.814 141.954 116.541 143.395 C 117.015 144.159 119.563 148.316 120.106 148.648 C 122.437 153.086 128.914 161.314 132.165 165.495 C 136.951 171.705 141.8 177.866 146.715 183.976 C 149.822 187.772 153.173 191.471 155.947 195.525 C 156.369 196.143 156.503 198.928 156.114 199.651 C 155.536 198.818 154.889 197.967 154.293 197.146 L 154.228 196.835 L 154.006 196.713 L 153.708 197.177 C 152.657 197.489 152.196 197.319 151.102 197.146 C 150.67 197.446 150.46 197.627 149.949 197.792 C 149.813 197.14 149.797 197.135 149.494 196.529 C 150.125 194.825 149.613 193.17 150.616 192.152 C 147.964 189.335 139.796 177.573 137.645 176.488 C 134.224 174.755 131.635 174.557 127.901 174.855 C 126.523 173.537 125.248 171.727 124.171 170.739 C 125.663 170.367 127.966 169.693 129.352 169.14 C 126.786 168.477 124.85 168.138 122.247 168.554 C 120.136 166.451 117.174 163.457 115.717 160.901 C 113.432 168.443 108.219 185.54 104.012 191.771 C 104.02 190.224 104.563 186.157 104.759 184.446 C 105.723 175.964 107.099 167.489 108.174 159.006 C 108.724 154.455 109.244 149.905 109.733 145.348 C 109.907 143.8 110.309 139.392 110.728 138.136 L 110.912 138.125 Z" fill="#bb898c" style=""/>
      <path d="M 110.912 138.125 C 111.793 138.154 113.479 138.477 114.039 139.2 C 114.64 140.902 115.814 141.954 116.541 143.395 C 117.015 144.159 119.563 148.316 120.106 148.648 C 122.437 153.086 128.914 161.314 132.165 165.495 C 136.951 171.705 141.8 177.866 146.715 183.976 C 149.822 187.772 153.173 191.471 155.947 195.525 C 156.369 196.143 156.503 198.928 156.114 199.651 C 155.536 198.818 154.889 197.967 154.293 197.146 L 154.228 196.835 L 154.006 196.713 L 153.708 197.177 C 152.657 197.489 152.196 197.319 151.102 197.146 C 150.67 197.446 150.46 197.627 149.949 197.792 C 149.813 197.14 149.797 197.135 149.494 196.529 C 150.125 194.825 149.613 193.17 150.616 192.152 C 147.964 189.335 139.796 177.573 137.645 176.488 C 137.425 175.318 134.247 171.663 133.389 170.578 C 129.698 165.913 126.442 160.841 122.814 156.139 C 118.335 150.344 114.311 144.611 110.912 138.125 Z" fill="#68242a" style=""/>
      <path d="M 151.243 194.18 C 152.317 195.388 153.6 196.922 154.22 198.423 C 153.275 198.6 152.567 198.742 151.739 199.264 C 151.296 199.571 151.087 199.753 150.565 199.922 C 150.427 199.259 150.411 199.254 150.102 198.64 C 150.747 196.904 150.225 195.219 151.243 194.18 Z" fill="#350d14" style=""/>
      <path d="M 150.102 198.64 C 150.411 199.254 150.427 199.259 150.565 199.922 C 151.087 199.753 151.296 199.571 151.739 199.264 C 152.857 199.441 153.324 199.616 154.392 199.3 L 154.696 198.826 L 154.923 198.951 L 154.986 199.264 C 155.599 200.101 156.257 200.97 156.844 201.815 C 157.405 203.373 157.343 204.543 157.347 206.178 C 156.233 206.252 155.619 206.855 155.021 206.684 L 154.939 206.247 C 154.435 207.323 153.951 207.881 153.61 208.585 C 153.055 209.054 152.988 209.114 152.344 209.435 L 152.126 209.396 C 152.109 208.934 152.11 208.601 152.12 208.139 C 151.835 208.147 151.918 208.09 151.644 208.398 C 150.957 209.151 150.363 210.074 149.715 210.869 C 146.384 214.921 143.364 216.548 138.069 216.658 C 137.605 216.672 137.568 216.658 137.109 216.574 C 142.711 215.496 147.883 210.919 150.353 205.889 C 149.565 205.117 149.664 204.038 148.467 203.685 C 149.204 201.956 149.653 200.454 150.102 198.64 Z" fill="url(#color-3)" style=""/>
      <path d="M 154.986 199.264 C 155.599 200.101 156.257 200.97 156.844 201.815 C 157.405 203.373 157.343 204.543 157.347 206.178 C 156.233 206.252 155.619 206.855 155.021 206.684 L 154.939 206.247 C 156.175 203.509 155.076 201.761 154.986 199.264 Z" fill="#f6d0cf" style=""/>
      <path d="M 150.102 198.64 C 150.411 199.254 150.427 199.259 150.565 199.922 C 150.981 202.05 151.309 203.807 150.353 205.889 C 149.565 205.117 149.664 204.038 148.467 203.685 C 149.204 201.956 149.653 200.454 150.102 198.64 Z" fill="#a9a7af" style=""/>
      <path d="M 41.5 204.163 C 43.469 207.784 45.736 210.223 49.582 211.929 C 50.693 212.424 52.151 212.858 53.159 213.33 C 47.228 213.164 41.515 210.814 38.152 205.757 C 39.293 205.484 40.36 204.713 41.5 204.163 Z" fill="#68242a" style=""/>
      <path d="M 122.247 168.554 C 124.85 168.138 126.786 168.477 129.352 169.14 C 127.966 169.693 125.663 170.367 124.171 170.739 C 120.148 171.926 118.38 173.476 115.124 175.953 C 116.675 171.467 117.64 170.109 122.247 168.554 Z" fill="#68242a" style=""/>
      <path d="M 36.984 203.367 C 38.505 202.793 39.294 201.846 40.884 201.268 C 41.07 202.409 41.166 203.056 41.5 204.163 C 40.36 204.717 39.293 205.484 38.152 205.757 C 37.695 204.96 37.364 204.2 36.984 203.367 Z" fill="#350d14" style=""/>
      <path d="M 154.939 206.247 L 155.021 206.684 C 155.619 206.855 156.233 206.252 157.347 206.178 L 157.308 208.049 C 155.934 208.189 154.963 208.323 153.61 208.585 C 153.951 207.881 154.435 207.323 154.939 206.247 Z" fill="#bb898c" style=""/>
      <path d="M 111.672 236.296 C 112.29 236.224 112.883 236.167 113.443 236.503 C 113.804 236.72 114.08 237.046 114.153 237.466 C 114.226 237.92 114.047 238.341 113.798 238.712 C 112.516 240.561 102.097 243.311 99.717 243.792 C 93.379 245.067 84.632 245.707 78.975 241.979 C 78.245 241.212 77.645 240.376 78.643 239.355 C 78.807 239.177 79.468 239.002 79.675 239.139 C 84.245 242.186 88.503 243.873 94.179 243.474 C 98.605 243.163 103.844 241.678 107.749 239.347 C 109.125 238.525 110.377 237.332 111.672 236.296 Z" fill="#68242a" style=""/>
      <path d="M 87.042 213.698 C 88.423 215.024 86.767 221.255 86.413 222.987 C 87.018 224.909 88.097 226.592 88.994 228.442 C 88.358 228.091 87.7 227.676 87.067 227.303 C 79.938 223.147 83.905 219.659 87.042 213.698 Z" fill="#bb898c" style=""/>
      <path d="M 102.275 249.158 L 102.395 249.211 C 101.197 251.662 96.618 254.092 94.044 253.11 C 93.253 252.811 92.743 252.573 92.026 252.151 C 91.244 251.649 90.675 251.133 89.973 250.538 C 95.164 250.363 97.164 250.35 102.275 249.158 Z" fill="#bb898c" style=""/>
      <path d="M 64.086 143.444 C 64.391 143.245 64.701 143.051 65.016 142.871 C 78.171 135.372 93.773 133.376 108.404 137.31 C 106.492 149.781 105.509 162.678 104.177 175.234 C 103.091 185.478 101.747 195.674 100.772 205.921 C 100.688 206.859 100.702 207.728 100.469 208.652 L 100.326 208.742 L 100.193 208.587 C 99.993 207.001 99.936 203.707 99.854 202.013 C 99.503 195.174 99.445 188.324 99.695 181.479 C 99.815 178.066 100.184 172.906 100.052 169.627 C 99.864 169.995 99.947 171.794 99.845 172.279 C 99.547 173.666 100.076 179.15 99.051 179.741 C 93.46 179.867 89.824 171.797 87.396 167.844 C 83.949 162.234 81.232 156.541 78.418 150.622 C 78.679 151.926 79.15 153.306 79.461 154.696 C 80.969 161.348 82.802 168.609 86.074 174.621 C 86.423 175.263 86.42 174.94 86.54 175.795 L 86.286 175.729 C 84.905 173.356 83.035 171.414 81.609 169.088 C 79.692 165.955 78.195 162.553 76.799 159.166 C 76.382 158.152 76.247 157.296 75.77 156.21 L 75.61 156.31 C 75.638 157.048 76.614 159.627 76.891 160.514 C 78.671 166.09 80.347 172.171 82.711 177.516 C 80.644 175.227 78.465 173.011 76.506 170.632 C 69.392 161.957 66.57 154.106 64.086 143.444 Z" fill="#e26568" style=""/>
      <path d="M 96.246 60.135 C 96.993 60.102 97.67 60.255 98.387 60.456 C 100.674 61.108 101.929 64.044 101.291 66.255 C 100.268 69.815 98.303 73.242 97.108 76.771 C 95.658 81.035 94.84 85.565 93.346 89.821 C 92.329 92.68 91.085 94.289 88.294 95.556 C 83.837 96.005 82.902 91.654 82.939 88.131 C 83.03 79.743 87.083 62.743 96.246 60.135 Z" fill="#c75f62" style=""/>
      <path d="M 114.039 139.2 C 114.631 139.031 114.748 139.047 115.304 139.441 C 119.026 141.07 121.979 142.456 125.442 144.613 C 136.364 151.416 146.215 163.036 150.832 175.049 C 151.038 175.59 151.228 176.141 151.398 176.692 C 144.315 171.77 139.404 167.746 133.136 161.786 C 131.626 160.345 130.169 158.858 128.754 157.328 C 128.418 156.97 126.733 155.142 126.492 154.961 C 125.572 154.73 120.714 148.636 119.849 147.521 L 119.689 147.306 C 119.574 147.935 120.132 147.558 120.106 148.648 C 119.563 148.316 117.015 144.159 116.541 143.395 C 115.814 141.954 114.64 140.902 114.039 139.2 Z" fill="#e26568" style=""/>
      <path d="M 116.541 144.523 C 117.021 144.721 117.154 144.812 117.674 144.906 C 120.994 149.861 123.19 151.851 126.676 156.305 C 125.736 156.07 120.793 149.864 119.91 148.725 L 119.746 148.507 C 119.631 149.151 120.198 148.764 120.166 149.877 C 119.622 149.535 117.023 145.303 116.541 144.523 Z" fill="#a34043" style=""/>
      <path d="M 114.039 139.2 C 114.631 139.031 114.748 139.047 115.304 139.441 L 115.122 139.723 C 115.949 141.041 116.991 142.386 117.655 143.77 C 117.142 143.678 117.015 143.59 116.541 143.395 C 115.814 141.954 114.64 140.902 114.039 139.2 Z" fill="#c75f62" style=""/>
      <path d="M 83.935 102.713 C 85.871 102.917 87.301 103.831 87.543 105.872 C 87.973 109.477 86.839 114.941 82.647 115.571 C 78.517 115.052 78.242 111.518 79.141 108.207 C 79.91 105.363 80.797 103.308 83.935 102.713 Z" fill="#c75f62" style=""/>
      <path d="M 48.724 155.504 L 48.877 155.656 C 48.691 156.375 46.386 160.227 45.834 161.283 C 40.191 172.078 34.686 181.086 31.786 193.068 L 31.669 192.911 C 31.548 191.42 32.689 186.783 33.092 185.143 C 36.157 172.688 40.864 165.394 48.724 155.504 Z" fill="#e26568" style=""/>
      <path d="M 105.941 43.644 C 102.387 27.801 97.913 12.459 85.523 1.21 C 85.018 0.756 83.59 -0.85 83.445 -1.42 C 82.547 -4.931 89.424 -13.719 92.74 -11.704 C 94.738 -10.088 97.046 -5.964 98.429 -3.681 C 107.756 11.769 113.405 30.865 116.678 48.556 C 113.511 49.814 110.816 50.559 107.354 50.546 C 107.117 49.425 105.958 44.396 105.941 43.644 Z" fill="#862228" style=""/>
      <path d="M 92.74 -11.704 C 94.738 -10.088 97.045 -5.964 98.429 -3.681 C 107.756 11.769 113.405 30.865 116.678 48.556 C 113.511 49.814 110.816 50.559 107.354 50.546 C 107.117 49.425 105.958 44.396 105.941 43.644 L 106.381 44.332 L 106.492 44.16 L 106.301 44.189 L 106.493 44.053 C 105.847 33.947 105.18 29.298 101.202 20.002 C 101.286 19.93 101.495 19.815 101.604 19.751 C 102.734 20.418 106.977 31.216 107.532 33.154 C 108.141 35.293 108.961 38.596 109.659 40.877 C 109.534 38.522 109.105 36.317 108.853 34.071 C 107.571 22.615 103.047 11.614 97.139 1.774 C 95.141 -1.538 94.622 -3.527 91.814 -6.57 C 92.722 -8.31 92.747 -9.81 92.74 -11.704 Z" fill="#68242a" style=""/>
      <path d="M 105.941 43.644 C 102.387 27.801 97.913 12.459 85.523 1.21 C 85.018 0.756 83.59 -0.85 83.445 -1.42 C 82.547 -4.931 89.424 -13.719 92.74 -11.704 C 92.747 -9.81 92.722 -8.31 91.814 -6.57 C 90.354 -4.343 88.937 -3.599 86.741 -2.068 C 89.307 1.529 92.371 4.496 94.731 8.234 C 96.192 10.555 97.503 12.816 98.792 15.227 C 99.347 16.27 100.666 19.206 101.202 20.002 C 105.18 29.298 105.847 33.947 106.493 44.053 L 106.301 44.189 L 106.492 44.16 L 106.381 44.332 L 105.941 43.644 Z" fill="#a34043" style=""/>
      <path d="M 119.243 44.427 C 121.378 44.387 123.51 44.461 125.635 44.647 L 125.675 44.895 L 125.472 45.198 C 124.477 44.669 121.173 46.731 119.872 47.216 L 119.601 47.32 C 119.504 46.35 119.384 45.387 119.243 44.427 Z" fill="#a34043" style=""/>
    </g>
  </svg>
</svg>