<?xml version="1.0" encoding="utf-8"?>
<svg id="svg" version="1.1" viewBox="0 0 300 300" width="300" height="300" xmlns="http://www.w3.org/2000/svg">
  <svg xmlns="http://www.w3.org/2000/svg" style="">
    <defs>
      <clipPath id="clip-1">
        <rect x="0" y="0" transform="scale(0.14648,0.14648)" width="2048" height="2048" fill="none"/>
      </clipPath>
      <linearGradient x1="101.14893" y1="195.44971" x2="103.06626" y2="202.7666" gradientUnits="userSpaceOnUse" id="color-1" gradientTransform="matrix(1.071303, 0, 0, 1.0676, -11.763148, -12.830286)">
        <stop offset="0" stop-color="#681717"/>
        <stop offset="1" stop-color="#963736"/>
      </linearGradient>
      <linearGradient x1="47.58193" y1="210.58594" x2="35.36997" y2="183.34863" gradientUnits="userSpaceOnUse" id="color-2" gradientTransform="matrix(1.051913, 0, 0, 1.048279, -9.885451, -10.931647)">
        <stop offset="0" stop-color="#361414"/>
        <stop offset="1" stop-color="#1d1618"/>
      </linearGradient>
      <linearGradient x1="119.74043" y1="204.53027" x2="127.33096" y2="208.19971" gradientUnits="userSpaceOnUse" id="color-3" gradientTransform="matrix(1.071303, 0, 0, 1.0676, -11.763148, -12.830286)">
        <stop offset="0" stop-color="#4b2229"/>
        <stop offset="1" stop-color="#834a4e"/>
      </linearGradient>
    </defs>
    <g clip-path="url(#clip-1)" fill="none" fill-rule="nonzero" stroke="none" stroke-width="1" stroke-linecap="butt" stroke-linejoin="miter" stroke-miterlimit="10" stroke-dasharray="" stroke-dashoffset="0" font-family="none" font-weight="none" font-size="none" text-anchor="none" style="mix-blend-mode: normal">
      <path d="M 61.331 -0.894 C 65.728 -1.044 70.839 -0.924 75.296 -0.924 L 101.111 -0.914 L 179.124 -0.924 L 220.736 -0.934 C 229.144 -0.934 241.263 -1.394 249.234 0.116 C 260.634 2.286 271.234 7.506 279.9 15.216 C 292.578 26.656 300.133 42.706 300.866 59.766 C 301.089 64.006 300.968 69.046 300.963 73.346 L 300.953 96.016 L 300.944 169.636 L 300.946 217.543 L 300.954 230.978 C 300.958 237.797 301.088 242.059 299.813 248.829 C 297.676 260.108 292.451 270.576 284.722 279.062 C 272.844 292.256 257.283 299.089 239.696 300.01 C 235.405 300.274 230.459 300.08 226.114 300.079 L 201.676 300.073 L 126.08 300.076 L 81.424 300.079 L 68.794 300.077 C 62.813 300.075 58.18 300.15 52.207 299.042 C 40.57 296.969 29.749 291.668 20.98 283.739 C 8.374 272.471 0.858 256.583 0.143 239.689 C -0.085 234.779 0.027 229.308 0.031 224.355 L 0.027 200.38 L 0.032 124.366 L 0.022 80.706 L 0.023 68.026 C 0.027 62.186 0.015 57.106 1.072 51.326 C 6.544 21.356 31.103 0.536 61.331 -0.894 Z" style="fill: rgb(65, 14, 30);"/>
      <path d="M 149.622 271.068 C 148.52 271.517 144.327 275.181 142.92 276.183 C 139.941 278.28 136.827 280.185 133.602 281.886 C 115.766 291.335 97.775 291.402 78.326 287.787 C 72.917 286.783 68.931 286.197 63.491 284.534 C 42.131 278.052 24.301 263.252 14.042 243.488 C 10.23 236.269 7.592 228.495 6.233 220.451 C 2.362 198.393 7.826 178.874 19.531 160.095 C 25.453 150.228 33.684 140.961 38.383 130.414 C 45.176 115.169 47.757 98.068 52.603 82.186 C 55.714 71.998 61.293 63.798 71.195 59.201 C 73.781 58.002 76.956 57.44 79.281 56.225 C 79.067 54.079 77.047 48.32 76.386 46.182 C 75.591 43.689 75.068 40.423 73.93 38.084 C 71.477 33.046 69.032 27.988 65.352 23.707 C 63.42 21.46 60.032 20.037 59.247 16.848 C 58.743 14.681 59.304 11.804 60.541 10.011 C 63.928 5.128 69.849 -0.131 74.315 7.116 C 75.359 8.813 76.949 10.716 78.028 12.404 C 78.944 13.837 79.598 15.585 80.434 17.091 C 83.974 23.549 86.853 30.308 89.108 37.319 C 90.196 40.711 90.803 44.375 92.128 47.733 C 92.426 48.491 93.074 54.063 93.551 54.125 C 95.805 54.417 98.346 54.158 100.642 54.36 C 106.44 54.997 112.328 56.738 117.128 60.117 C 127.499 66.985 133.845 78.575 138.425 89.789 C 139.076 91.385 140.878 96.088 141.17 97.617 L 141.716 99.693 C 142.161 101.317 142.591 103.186 143.076 104.763 C 145.955 106.15 149.369 107.436 152.341 108.687 C 153.793 109.297 157.209 110.798 158.583 111.159 C 157.136 112.293 153.793 114.07 152.055 115.016 C 150.3 115.973 147.86 117.436 146.124 118.283 C 146.228 118.68 146.544 119.95 146.68 120.259 C 147.014 121.7 149.431 129.979 150.082 131.15 C 161.395 127.701 172.729 124.323 184.081 121.01 L 224.303 108.937 L 246.504 102.278 C 250.035 101.197 253.599 99.979 257.131 98.993 C 258.793 98.5 261.513 99.598 262.295 101.132 C 264.033 104.538 264.958 108.588 266.07 112.26 C 267.201 115.994 267.805 118.5 264.931 121.532 C 267.006 129.297 269.428 137.195 271.664 144.928 L 284.264 188.703 L 288.448 203.432 C 290.694 211.178 293.37 217.086 288.929 224.722 C 287.11 227.905 284.322 230.432 280.967 231.935 C 278.669 232.977 275.644 233.838 273.2 234.563 L 264.012 237.298 L 231.447 247.041 L 179.499 262.537 L 162.928 267.497 C 159.958 268.39 156.601 269.49 153.622 270.267 C 152.304 270.601 150.968 270.868 149.622 271.068 Z" fill="#261d20" style=""/>
      <path d="M 151.153 131.871 C 162.674 128.357 174.216 124.914 185.781 121.545 L 226.742 109.248 L 249.351 102.465 C 252.949 101.367 256.578 100.125 260.175 99.122 C 261.866 98.618 264.641 99.737 265.437 101.301 C 267.205 104.77 268.148 108.892 269.279 112.633 C 270.429 116.436 271.045 118.99 268.119 122.074 C 270.233 129.983 272.697 138.026 274.976 145.905 L 287.81 190.485 L 292.068 205.487 C 294.357 213.372 297.082 219.39 292.56 227.169 C 290.709 230.41 287.867 232.982 284.451 234.513 C 282.111 235.576 279.03 236.451 276.54 237.186 L 267.182 239.975 L 234.018 249.898 L 181.113 265.677 L 164.235 270.728 C 161.209 271.639 157.791 272.76 154.759 273.549 C 153.415 273.891 152.056 274.163 150.685 274.366 C 150.823 273.6 156.175 268.707 157.078 268.326 C 159.238 267.415 162.422 266.638 164.76 265.933 C 170.843 264.047 176.949 262.227 183.07 260.472 L 252.903 239.597 L 271.593 234.028 C 278.272 232.047 285.216 231.097 288.861 224.52 C 290.246 222.057 290.791 219.21 290.415 216.409 C 290.15 214.405 289.059 210.756 288.499 208.704 C 286.998 203.198 285.277 197.731 283.754 192.228 L 264.007 123.627 L 195.911 144.109 L 172.142 151.211 C 169.677 151.963 165.083 153.1 162.931 153.969 C 162.448 153.155 162.112 152.48 161.696 151.632 C 160.562 149.722 159.07 147.302 158.143 145.343 C 159.675 141.1 162.562 135.014 164.429 130.758 C 164.288 130.723 164.148 130.688 164.011 130.654 C 160.782 131.614 155.39 133.052 152.332 134.192 C 152.03 133.529 151.578 132.415 151.153 131.871 Z" fill="#75737f" style=""/>
      <path d="M 242.411 107.543 C 242.434 107.48 242.44 107.411 242.479 107.355 C 242.808 106.861 260.038 101.79 261.5 101.66 C 262.024 101.872 261.785 101.711 262.15 102.274 C 259.088 109.741 255.496 117.028 252.412 124.409 C 250.733 125.043 233.056 130.306 232.318 130.268 C 235.618 122.663 238.982 115.088 242.411 107.543 Z" fill="#f6f6f6" style=""/>
      <path d="M 204.103 118.818 C 204.156 118.778 223.618 112.814 224.358 112.766 C 222.202 117.689 220.008 122.595 217.765 127.481 C 216.674 129.896 215.183 133.507 213.951 135.758 C 213.415 136.307 204.681 138.804 203.392 139.167 C 200.399 139.998 196.861 141.332 193.869 142.086 C 197.378 134.632 200.782 126.414 204.103 118.818 Z" fill="#f6f6f6" style=""/>
      <path d="M 184.602 124.627 C 185.723 124.078 203.588 118.688 204.103 118.818 C 200.782 126.414 197.377 134.632 193.869 142.086 C 193.195 142.495 174.991 147.833 174.281 147.856 C 175.885 144.502 177.226 141.081 178.766 137.717 C 180.78 133.313 182.819 129.139 184.602 124.627 Z" fill="#350d14" style=""/>
      <path d="M 164.429 130.758 C 164.69 130.476 182.681 125.024 184.602 124.627 C 182.819 129.139 180.78 133.313 178.766 137.717 C 177.226 141.081 175.885 144.502 174.281 147.856 C 172.863 148.408 170.789 148.94 169.277 149.379 C 166.745 150.112 164.217 150.865 161.695 151.632 C 160.562 149.722 159.07 147.302 158.143 145.343 C 159.675 141.1 162.562 135.014 164.429 130.758 Z" fill="#f6f6f6" style=""/>
      <path d="M 224.358 112.766 C 225.038 112.229 240.34 107.504 242.153 107.266 L 242.411 107.543 C 238.982 115.088 235.618 122.663 232.318 130.268 C 232.007 130.534 231.33 130.915 230.964 130.994 C 228.848 131.473 214.931 136.191 213.951 135.758 C 215.183 133.507 216.674 129.896 217.765 127.481 C 220.008 122.595 222.202 117.689 224.358 112.766 Z" fill="#350d14" style=""/>
      <path d="M 262.15 102.274 C 262.778 102.077 262.479 102.066 263.078 102.296 C 263.45 102.681 263.895 103.401 264.065 104.042 C 265.204 108.407 267.151 113.333 267.843 117.685 C 267.959 118.4 266.746 119.742 266.363 120.017 C 265.052 120.967 252.994 124.424 252.412 124.409 C 255.496 117.028 259.088 109.741 262.15 102.274 Z" fill="#350d14" style=""/>
      <path d="M 100.28 57.889 C 126.902 59.616 137.38 93.277 141.88 114.688 C 143.089 120.429 144.549 126.233 146.627 131.713 C 149.483 139 152.961 144.583 156.705 151.221 C 159.501 156.158 162.199 161.155 164.793 166.204 C 172.661 181.365 178.394 195.471 177.066 212.901 C 175.381 234.992 162.967 254.871 146.39 269.048 C 130.718 282.441 113.182 288.017 92.688 286.252 C 79.274 285.094 64.9 282.711 52.838 276.535 C 51.016 275.601 48.64 274.559 47.045 273.332 C 46.405 272.967 45.77 272.598 45.138 272.224 C 27.748 261.955 15.202 243.315 10.496 223.934 C 6.664 208.119 8.408 192.923 14.345 177.919 C 22.47 157.379 39.433 142.68 45.67 121.345 C 48.077 113.657 50.222 105.599 52.153 97.788 C 56.617 79.765 59.274 65.043 79.991 59.949 L 80.673 63.302 L 80.16 63.291 C 79.07 63.276 76.259 63.077 75.569 63.745 C 75.71 63.913 75.708 63.956 75.881 64.027 C 80.418 65.944 85.322 66.707 90.074 65.228 C 93.561 64.142 98.372 61.635 100.133 58.392 L 100.318 58.114 L 100.28 57.889 Z" fill="#ac4347" style=""/>
      <path d="M 100.28 57.889 C 126.902 59.616 137.38 93.277 141.88 114.688 C 143.089 120.429 144.549 126.233 146.627 131.713 C 149.483 139 152.961 144.583 156.705 151.221 C 159.501 156.158 162.199 161.155 164.793 166.204 C 172.661 181.365 178.394 195.471 177.066 212.901 C 175.381 234.992 162.967 254.871 146.39 269.048 C 130.718 282.441 113.182 288.017 92.688 286.252 C 79.274 285.094 64.9 282.711 52.838 276.535 C 51.016 275.601 48.64 274.559 47.045 273.332 C 48.238 273.293 53.438 274.792 55.441 275.149 C 63.637 276.675 72.022 276.932 80.299 275.912 C 101.941 273.107 122.442 262.922 135.62 245.339 C 148.174 228.585 153.717 207.271 151.112 186.539 C 148.552 166.132 136.314 148.915 130.284 129.6 C 124.812 111.606 124.09 92.218 116.66 74.793 C 113.269 66.839 106.746 63.026 100.318 58.114 L 100.28 57.889 Z" fill="#862228" style=""/>
      <path d="M 84.559 142.436 C 85.205 142.565 86.21 142.718 86.681 143.19 L 86.849 143.179 C 87.652 143.206 89.191 143.501 89.701 144.161 C 90.249 145.714 91.318 146.674 91.983 147.987 C 92.418 148.684 94.741 152.478 95.236 152.782 C 97.363 156.831 103.273 164.339 106.24 168.152 C 110.606 173.818 115.031 179.44 119.513 185.015 C 122.35 188.479 125.406 191.854 127.937 195.552 C 128.323 196.115 128.445 198.656 128.091 199.315 C 128.594 200.706 128.538 201.76 128.541 203.223 L 128.507 204.9 C 127.597 236.048 101.394 263.467 69.573 262.405 C 44.526 261.569 22.391 242.769 16.172 218.883 C 15.942 217.991 14.897 214.373 15.161 213.716 C 12.969 210.441 18.276 197.009 19.578 193.299 C 22.295 185.554 25.09 177.329 28.64 169.94 C 31.414 164.16 34.125 158.143 37.324 152.605 C 37.695 151.97 40.436 150.163 41.183 149.626 C 43.01 155.397 45.887 161.155 48.793 166.448 C 56.057 179.667 65.02 191.703 74.24 203.606 C 75.083 204.695 76.409 206.325 77.069 207.47 L 77.189 207.611 L 77.318 207.529 C 77.532 206.686 77.52 205.894 77.595 205.038 C 78.485 195.688 79.712 186.384 80.702 177.037 C 81.918 165.582 82.814 153.815 84.559 142.436 Z" fill="#f6d0cf" style=""/>
      <path d="M 102.349 176.693 C 105.757 176.42 108.12 176.601 111.237 178.183 C 113.202 179.173 120.654 189.905 123.074 192.475 C 122.16 193.404 122.627 194.913 122.049 196.468 C 121.648 198.095 121.247 199.441 120.585 200.989 C 121.658 201.304 121.57 202.271 122.276 202.967 C 120.063 207.47 115.427 211.569 110.41 212.539 C 110.196 212.516 108.293 212.694 107.939 212.721 C 104.833 212.956 102.153 212.469 99.406 210.951 C 95.321 208.702 92.221 205.021 90.715 200.621 C 90.151 199.02 89.706 197.009 89.22 195.329 L 89.109 195.281 C 88.869 194.949 88.974 194.927 89.039 194.379 C 89.201 184.339 91.975 178.416 102.349 176.693 Z" fill="#261d20" style=""/>
      <path d="M 100.981 183.552 L 101.349 183.511 C 101.459 183.706 101.519 183.877 101.696 184.02 C 102.443 184.439 105.986 184.035 107.096 184.011 C 108.105 183.991 110.265 184.159 111.155 184.039 C 114.171 185.224 117.43 188.466 118.737 191.435 C 119.716 193.674 120.858 197.621 119.855 199.965 C 119.768 200.288 119.603 200.843 119.544 201.149 C 119.239 202.181 118.858 203.718 118.315 204.587 C 115.115 210.476 108.579 214.01 102.252 210.4 C 100.01 209.124 98.096 207.11 97.041 204.747 C 95.874 202.553 95.548 200.891 95.175 198.45 C 94.556 195.583 95.882 190.952 97.207 188.37 L 96.704 188.512 C 96.705 188.297 96.848 188.116 96.957 187.915 L 96.811 187.547 C 97.255 186.734 98.312 185.876 99.026 185.256 C 99.498 184.595 100.315 184.061 100.981 183.552 Z" fill="#5a0b0b" style=""/>
      <path d="M 115.795 200.784 C 117.177 202.1 117.504 202.894 118.315 204.587 C 115.115 210.476 108.579 214.01 102.252 210.401 C 100.01 209.124 98.096 207.11 97.041 204.747 C 97.924 203.398 98.617 202.475 99.599 201.212 C 103.694 208.91 113.072 210.521 115.795 200.784 Z" fill="#e26568" style=""/>
      <path d="M 96.811 187.547 C 97.255 186.734 98.312 185.876 99.026 185.256 C 99.642 185.409 100.051 185.303 100.776 185.505 C 108.501 187.063 99.685 194.813 97.554 188.297 L 97.207 188.37 L 96.704 188.512 C 96.705 188.297 96.848 188.116 96.957 187.915 L 96.811 187.547 Z" fill="#f6f6f6" style=""/>
      <path d="M 96.811 187.547 C 97.255 186.734 98.312 185.876 99.026 185.256 C 99.642 185.409 100.051 185.303 100.776 185.505 C 98.819 185.751 97.917 186.238 97.554 188.297 L 97.207 188.37 L 96.704 188.512 C 96.705 188.297 96.848 188.116 96.957 187.915 L 96.811 187.547 Z" fill="#350d14" style=""/>
      <path d="M 98.803 195.041 C 98.86 197.061 98.947 199.279 99.599 201.212 C 98.617 202.475 97.924 203.398 97.041 204.747 C 95.874 202.553 95.548 200.891 95.175 198.45 C 95.379 196.871 97.631 195.867 98.803 195.041 Z" fill="url(#color-1)" style=""/>
      <path d="M 116.316 198.118 L 116.675 198.087 C 117.42 198.713 119.229 200.259 119.544 201.149 C 119.239 202.181 118.858 203.718 118.315 204.587 C 117.504 202.894 117.177 202.1 115.795 200.784 C 116.067 199.936 116.175 199.004 116.316 198.118 Z" fill="#862228" style=""/>
      <path d="M 116.502 196.101 C 117.773 197.614 118.776 198.239 119.855 199.965 C 119.768 200.288 119.603 200.843 119.544 201.149 C 119.229 200.259 117.42 198.713 116.675 198.087 L 116.316 198.118 C 116.352 197.378 116.404 196.836 116.502 196.101 Z" fill="#68242a" style=""/>
      <path d="M 104.443 189.959 C 104.828 189.945 105.158 190.226 105.198 190.611 C 105.242 190.991 104.978 191.342 104.598 191.406 C 104.33 191.452 104.056 191.35 103.89 191.133 C 103.726 190.915 103.696 190.626 103.809 190.374 C 103.927 190.134 104.17 189.972 104.443 189.959 Z" fill="#f6f6f6" style=""/>
      <path d="M 89.22 195.329 C 90.182 194.372 92.625 192.417 93.753 191.658 L 94.064 191.735 C 93.108 196.376 93.445 200.463 96.046 204.524 C 100.101 210.855 108.914 212.108 115.005 207.997 C 117.812 206.101 119.13 203.944 120.585 200.989 C 121.658 201.304 121.57 202.271 122.276 202.967 C 120.063 207.47 115.427 211.569 110.41 212.539 C 110.196 212.516 108.293 212.694 107.939 212.721 C 104.833 212.956 102.153 212.469 99.406 210.951 C 95.321 208.702 92.221 205.021 90.715 200.621 C 90.151 199.02 89.706 197.009 89.22 195.329 Z" fill="#f6f6f6" style=""/>
      <path d="M 100.82 181.897 C 100.164 182.395 99.365 182.92 98.896 183.566 C 98.196 184.174 97.159 185.019 96.725 185.817 C 95.235 188.022 94.845 189.133 94.064 191.735 L 93.753 191.658 C 92.625 192.417 90.182 194.372 89.22 195.329 L 89.109 195.281 C 88.869 194.949 88.974 194.927 89.039 194.379 C 89.859 193.203 90.561 189.685 91.923 187.786 C 94.414 184.317 96.711 182.791 100.82 181.897 Z" fill="#a9a7af" style=""/>
      <path d="M 101.696 184.02 C 104.813 182.155 107.986 182.544 111.155 184.039 C 110.266 184.159 108.105 183.991 107.096 184.011 C 105.986 184.035 102.443 184.439 101.696 184.02 Z" fill="#68242a" style=""/>
      <path d="M 84.559 142.436 C 85.205 142.565 86.21 142.718 86.681 143.19 C 86.297 144.336 85.93 148.358 85.772 149.771 C 85.326 153.928 84.851 158.079 84.349 162.233 C 83.368 169.972 82.114 177.704 81.233 185.444 C 81.056 187.004 80.559 190.715 80.552 192.126 C 80.279 193.426 80.185 195.466 79.998 196.842 C 79.423 201.137 79.091 206.671 78.052 210.845 C 74.345 207.074 71.035 201.399 67.454 197.369 C 65.938 195.662 64.757 193.624 63.122 191.896 C 61.895 191.663 59.756 189.67 58.761 188.778 C 51.272 182.097 43.868 174.326 37.978 166.21 C 36.754 168.688 34.948 171.695 33.907 173.972 C 38.958 173.291 42.831 175.33 45.513 179.618 C 40.789 177.814 41.445 176.602 35.282 176.225 C 35.942 176.854 36.707 177.52 37.211 178.265 C 32.438 178.41 29.586 179.349 26.213 182.937 C 25.829 183.34 25.239 184.008 24.854 184.387 C 23.816 185.638 19.375 198.96 18.832 201.154 C 17.743 203.347 16.027 210.893 15.161 213.716 C 12.969 210.441 18.276 197.009 19.578 193.299 C 22.295 185.554 25.09 177.329 28.64 169.94 C 31.414 164.16 34.125 158.143 37.324 152.605 C 37.695 151.97 40.436 150.163 41.183 149.626 C 43.01 155.397 45.887 161.157 48.793 166.449 C 56.057 179.667 65.02 191.703 74.24 203.606 C 75.083 204.695 76.409 206.325 77.069 207.47 L 77.189 207.611 L 77.318 207.529 C 77.532 206.687 77.52 205.894 77.595 205.038 C 78.485 195.688 79.712 186.384 80.702 177.037 C 81.918 165.582 82.814 153.815 84.559 142.436 Z" fill="#68242a" style=""/>
      <path d="M 39.511 153.096 L 39.623 153.288 C 40.965 155.591 41.971 158.232 43.219 160.598 C 47.156 168.067 51.516 175.212 56.294 182.176 C 58.372 185.201 61.311 188.738 63.122 191.896 C 61.895 191.663 59.756 189.67 58.761 188.778 C 51.272 182.097 43.868 174.326 37.978 166.21 C 36.754 168.688 34.948 171.695 33.907 173.972 C 38.958 173.291 42.831 175.33 45.513 179.618 C 40.789 177.814 41.445 176.602 35.282 176.225 C 35.942 176.854 36.707 177.52 37.211 178.265 C 32.438 178.41 29.586 179.349 26.213 182.937 C 25.829 183.34 25.239 184.008 24.854 184.387 C 24.959 181.744 37.47 155.701 39.511 153.096 Z" fill="#bb898c" style=""/>
      <path d="M 37.211 178.265 C 41.036 179.084 43.687 180.925 45.803 184.248 C 47.235 186.494 50.718 193.135 50.557 195.691 C 50.211 195.765 50.357 195.715 50.109 195.832 C 49.971 196.729 49.993 197.57 49.859 198.462 C 49.354 201.871 47.704 205.821 44.834 207.937 C 40.173 211.373 31.995 209.433 28.749 204.819 C 26.889 202.181 26.652 199.579 26.678 196.49 C 26.682 196.028 26.685 195.813 26.636 195.346 C 26.53 195.378 23.569 197.911 23.041 198.281 C 22.987 199.148 22.925 199.922 22.952 200.793 C 21.503 201.32 20.782 202.183 19.394 202.706 L 18.832 201.154 C 19.375 198.96 23.816 185.638 24.854 184.387 C 25.239 184.008 25.829 183.34 26.213 182.937 C 29.586 179.349 32.438 178.41 37.211 178.265 Z" fill="url(#color-2)" style=""/>
      <path d="M 41.886 183.876 C 45.861 185.523 50.084 193.853 48.551 197.659 L 48.505 198.368 C 48.04 199.912 47.263 202.373 46.322 203.711 C 46.235 203.861 46.144 204.008 46.051 204.157 C 44.632 206.432 42.334 207.815 39.751 208.442 C 34.293 209.762 29.753 206.336 28.612 201.014 L 28.306 199.164 C 28.266 198.008 28.303 196.732 28.486 195.59 C 27.76 194.121 28.781 190.159 30.267 189.298 C 30.109 188.46 30.129 188.082 30.139 187.25 C 30.463 186.867 30.779 186.526 31.119 186.158 L 32.545 185.672 L 33.738 185.818 C 33.91 185.603 33.923 185.643 34.189 185.491 C 35.665 185.621 40.008 184.284 41.886 183.876 Z" fill="#5a0b0b" style=""/>
      <path d="M 29.243 197.989 C 29.323 197.882 29.404 197.771 29.487 197.663 C 29.929 197.094 30.052 196.918 30.703 196.834 C 31.276 199.323 31.954 201.669 33.848 203.521 C 35.464 205.103 37.808 205.589 39.963 205.009 C 42.184 204.408 43.372 202.744 44.595 200.956 C 45.89 202.035 45.684 202.224 46.322 203.711 C 46.235 203.861 46.144 204.008 46.051 204.157 C 44.632 206.432 42.334 207.815 39.751 208.442 C 34.293 209.762 29.753 206.336 28.612 201.014 C 28.552 199.817 28.769 199.081 29.243 197.989 Z" fill="#e26568" style=""/>
      <path d="M 32.545 185.672 L 33.738 185.818 C 35.083 186.575 35.696 187.844 34.84 189.259 C 34.47 189.874 33.873 190.315 33.177 190.491 C 31.879 190.808 31.047 190.266 30.267 189.298 C 30.109 188.46 30.129 188.082 30.139 187.25 C 30.463 186.867 30.779 186.526 31.119 186.158 L 32.545 185.672 Z" fill="#f6f6f6" style=""/>
      <path d="M 46.029 197.28 C 46.782 197.454 47.586 197.587 48.256 197.947 L 48.505 198.368 C 48.04 199.912 47.263 202.373 46.322 203.711 C 45.684 202.224 45.89 202.035 44.595 200.956 C 44.952 199.869 45.594 198.378 46.029 197.28 Z" fill="#862228" style=""/>
      <path d="M 30.696 193.552 L 30.663 195.399 L 30.703 196.834 C 30.052 196.918 29.929 197.094 29.487 197.663 C 29.404 197.771 29.323 197.882 29.243 197.989 C 28.769 199.081 28.552 199.817 28.612 201.014 L 28.306 199.164 C 28.266 198.008 28.303 196.732 28.486 195.59 C 29.244 194.571 29.633 194.295 30.696 193.552 Z" fill="#ac4347" style=""/>
      <path d="M 29.243 197.989 C 29.233 197.23 29.611 195.138 30.663 195.399 L 30.703 196.834 C 30.052 196.918 29.929 197.094 29.487 197.663 C 29.404 197.771 29.323 197.882 29.243 197.989 Z" fill="#c75f62" style=""/>
      <path d="M 46.932 195.297 C 47.587 196.139 47.985 196.752 48.551 197.659 L 48.505 198.368 L 48.256 197.947 C 47.586 197.587 46.782 197.454 46.029 197.28 C 46.332 196.41 46.501 196.093 46.932 195.297 Z" fill="#68242a" style=""/>
      <path d="M 35.359 189.208 C 35.597 189.032 35.915 188.998 36.186 189.124 C 36.459 189.248 36.641 189.507 36.665 189.804 C 36.688 190.104 36.548 190.388 36.3 190.552 C 35.927 190.801 35.427 190.704 35.171 190.34 C 34.914 189.974 34.999 189.472 35.359 189.208 Z" fill="#f6f6f6" style=""/>
      <path d="M 23.041 198.281 C 23.295 195.13 24.777 190.879 26.581 188.275 C 28.777 185.1 30.883 183.554 34.628 182.769 C 33.717 183.318 30.904 185.012 31.119 186.158 C 30.779 186.526 30.463 186.867 30.139 187.25 C 29.368 187.882 28.856 188.992 28.428 189.887 C 27.783 191.46 27.365 192.758 27.044 194.436 C 26.99 194.713 26.74 196.331 26.678 196.49 C 26.682 196.028 26.685 195.813 26.636 195.346 C 26.53 195.378 23.569 197.911 23.041 198.281 Z" fill="#a9a7af" style=""/>
      <path d="M 32.545 185.672 C 33.236 185.421 33.804 184.256 35.401 183.691 C 37.884 182.807 39.52 182.925 41.886 183.876 C 40.008 184.284 35.665 185.621 34.189 185.491 C 33.923 185.643 33.91 185.603 33.738 185.818 L 32.545 185.672 Z" fill="#68242a" style=""/>
      <path d="M 28.428 189.887 C 28.856 188.992 29.368 187.882 30.139 187.25 C 30.129 188.082 30.109 188.46 30.267 189.298 C 28.781 190.159 27.761 194.121 28.486 195.59 C 28.303 196.732 28.266 198.008 28.306 199.164 C 27.139 197.171 28.033 194.283 28.249 192.059 C 28.302 191.519 29.036 190.349 28.89 189.79 L 28.428 189.887 Z" fill="#350d14" style=""/>
      <path d="M 86.849 143.179 C 87.652 143.206 89.191 143.501 89.701 144.161 C 90.249 145.714 91.318 146.674 91.983 147.987 C 92.418 148.684 94.741 152.478 95.236 152.782 C 97.363 156.831 103.273 164.339 106.24 168.152 C 110.606 173.818 115.031 179.44 119.513 185.015 C 122.35 188.479 125.406 191.854 127.937 195.552 C 128.323 196.115 128.445 198.656 128.091 199.315 C 127.564 198.557 126.972 197.78 126.427 197.032 L 126.371 196.748 L 126.168 196.636 L 125.896 197.06 C 124.937 197.344 124.516 197.188 123.518 197.032 C 123.123 197.304 122.932 197.469 122.467 197.621 C 122.341 197.026 122.327 197.02 122.049 196.468 C 122.627 194.913 122.16 193.404 123.074 192.475 C 120.654 189.905 113.202 179.173 111.237 178.183 C 108.12 176.601 105.757 176.42 102.349 176.693 C 101.091 175.489 99.926 173.838 98.946 172.937 C 100.306 172.598 102.408 171.982 103.673 171.478 C 101.332 170.873 99.564 170.564 97.191 170.943 C 95.264 169.025 92.562 166.292 91.232 163.961 C 89.147 170.842 84.39 186.442 80.552 192.126 C 80.559 190.715 81.056 187.004 81.233 185.444 C 82.114 177.704 83.368 169.972 84.349 162.233 C 84.851 158.079 85.326 153.928 85.772 149.771 C 85.93 148.358 86.297 144.336 86.681 143.19 L 86.849 143.179 Z" fill="#bb898c" style=""/>
      <path d="M 86.849 143.179 C 87.652 143.206 89.191 143.501 89.701 144.161 C 90.249 145.714 91.318 146.674 91.983 147.987 C 92.418 148.684 94.741 152.478 95.236 152.782 C 97.363 156.831 103.273 164.339 106.24 168.152 C 110.606 173.818 115.031 179.44 119.513 185.015 C 122.35 188.479 125.406 191.854 127.937 195.552 C 128.323 196.115 128.445 198.656 128.091 199.315 C 127.564 198.557 126.972 197.78 126.427 197.032 L 126.371 196.748 L 126.168 196.636 L 125.896 197.06 C 124.937 197.344 124.516 197.188 123.518 197.032 C 123.123 197.304 122.932 197.469 122.467 197.621 C 122.341 197.026 122.327 197.02 122.049 196.468 C 122.627 194.913 122.16 193.404 123.074 192.475 C 120.654 189.905 113.202 179.173 111.237 178.183 C 111.039 177.116 108.139 173.78 107.354 172.79 C 103.987 168.534 101.017 163.906 97.706 159.615 C 93.621 154.329 89.948 149.097 86.849 143.179 Z" fill="#68242a" style=""/>
      <path d="M 123.648 194.325 C 124.627 195.427 125.797 196.827 126.362 198.195 C 125.502 198.358 124.854 198.486 124.099 198.964 C 123.695 199.245 123.504 199.411 123.028 199.565 C 122.901 198.959 122.885 198.955 122.605 198.395 C 123.194 196.81 122.716 195.272 123.648 194.325 Z" fill="#350d14" style=""/>
      <path d="M 122.605 198.395 C 122.885 198.955 122.901 198.959 123.028 199.565 C 123.504 199.411 123.695 199.245 124.099 198.964 C 125.118 199.126 125.545 199.286 126.52 198.996 L 126.797 198.565 L 127.003 198.678 L 127.062 198.964 C 127.62 199.727 128.22 200.52 128.757 201.291 C 129.269 202.712 129.213 203.781 129.217 205.272 C 128.2 205.339 127.639 205.89 127.092 205.733 L 127.02 205.335 C 126.559 206.318 126.117 206.827 125.807 207.468 C 125.3 207.897 125.238 207.952 124.652 208.245 L 124.452 208.208 C 124.436 207.786 124.437 207.481 124.446 207.062 C 124.187 207.069 124.263 207.017 124.012 207.298 C 123.385 207.984 122.844 208.826 122.252 209.552 C 119.213 213.25 116.456 214.733 111.627 214.835 C 111.203 214.846 111.168 214.835 110.75 214.758 C 115.861 213.773 120.581 209.598 122.835 205.009 C 122.115 204.305 122.205 203.32 121.115 202.998 C 121.787 201.42 122.194 200.048 122.605 198.395 Z" fill="url(#color-3)" style=""/>
      <path d="M 127.062 198.964 C 127.62 199.727 128.22 200.52 128.757 201.291 C 129.269 202.712 129.213 203.781 129.217 205.272 C 128.2 205.339 127.639 205.89 127.092 205.733 L 127.02 205.335 C 128.147 202.837 127.143 201.241 127.062 198.964 Z" fill="#f6d0cf" style=""/>
      <path d="M 122.605 198.395 C 122.885 198.955 122.901 198.959 123.028 199.565 C 123.407 201.506 123.707 203.109 122.835 205.009 C 122.115 204.305 122.205 203.32 121.115 202.998 C 121.787 201.42 122.194 200.048 122.605 198.395 Z" fill="#a9a7af" style=""/>
      <path d="M 23.515 203.432 C 25.311 206.738 27.381 208.964 30.888 210.519 C 31.902 210.969 33.232 211.366 34.153 211.798 C 28.742 211.645 23.53 209.501 20.461 204.887 C 21.502 204.639 22.475 203.935 23.515 203.432 Z" fill="#68242a" style=""/>
      <path d="M 97.191 170.943 C 99.564 170.564 101.332 170.873 103.673 171.478 C 102.408 171.982 100.306 172.598 98.946 172.937 C 95.275 174.02 93.661 175.435 90.691 177.694 C 92.106 173.602 92.985 172.363 97.191 170.943 Z" fill="#68242a" style=""/>
      <path d="M 19.394 202.706 C 20.782 202.183 21.503 201.32 22.952 200.793 C 23.121 201.833 23.212 202.422 23.515 203.432 C 22.475 203.937 21.502 204.639 20.461 204.887 C 20.041 204.161 19.741 203.468 19.394 202.706 Z" fill="#350d14" style=""/>
      <path d="M 127.02 205.335 L 127.092 205.733 C 127.639 205.89 128.2 205.339 129.217 205.272 L 129.18 206.978 C 127.927 207.108 127.041 207.23 125.807 207.468 C 126.117 206.827 126.559 206.318 127.02 205.335 Z" fill="#bb898c" style=""/>
      <path d="M 87.54 232.751 C 88.104 232.687 88.646 232.633 89.158 232.941 C 89.486 233.137 89.739 233.437 89.803 233.818 C 89.872 234.235 89.709 234.619 89.48 234.957 C 88.312 236.644 78.804 239.151 76.632 239.592 C 70.85 240.756 62.87 241.34 57.707 237.938 C 57.041 237.237 56.494 236.476 57.404 235.544 C 57.554 235.38 58.159 235.221 58.346 235.347 C 62.517 238.128 66.402 239.664 71.579 239.302 C 75.617 239.017 80.399 237.663 83.962 235.536 C 85.216 234.787 86.36 233.697 87.54 232.751 Z" fill="#68242a" style=""/>
      <path d="M 65.069 212.134 C 66.328 213.342 64.816 219.029 64.494 220.61 C 65.047 222.363 66.032 223.898 66.848 225.586 C 66.269 225.266 65.667 224.888 65.091 224.548 C 58.586 220.753 62.207 217.573 65.069 212.134 Z" fill="#bb898c" style=""/>
      <path d="M 78.965 244.488 L 79.078 244.537 C 77.982 246.773 73.806 248.989 71.457 248.093 C 70.734 247.82 70.27 247.602 69.616 247.219 C 68.903 246.759 68.383 246.29 67.742 245.745 C 72.48 245.588 74.305 245.574 78.965 244.488 Z" fill="#bb898c" style=""/>
      <path d="M 44.124 148.032 C 44.4 147.851 44.682 147.674 44.972 147.51 C 56.975 140.667 71.209 138.846 84.559 142.436 C 82.814 153.815 81.918 165.582 80.702 177.037 C 79.712 186.384 78.485 195.688 77.595 205.038 C 77.52 205.894 77.532 206.686 77.318 207.529 L 77.189 207.611 L 77.069 207.47 C 76.885 206.024 76.834 203.018 76.758 201.473 C 76.436 195.233 76.387 188.983 76.612 182.738 C 76.724 179.623 77.06 174.914 76.937 171.923 C 76.766 172.258 76.844 173.899 76.749 174.341 C 76.477 175.608 76.96 180.611 76.026 181.15 C 70.925 181.265 67.607 173.903 65.392 170.295 C 62.245 165.178 59.766 159.983 57.199 154.582 C 57.438 155.771 57.866 157.031 58.153 158.299 C 59.527 164.369 61.202 170.993 64.186 176.479 C 64.504 177.064 64.501 176.769 64.609 177.55 L 64.379 177.49 C 63.117 175.323 61.411 173.552 60.111 171.431 C 58.36 168.571 56.996 165.469 55.722 162.377 C 55.341 161.452 55.219 160.671 54.785 159.68 L 54.637 159.772 C 54.662 160.446 55.553 162.799 55.806 163.608 C 57.431 168.695 58.96 174.244 61.116 179.119 C 59.23 177.032 57.242 175.01 55.456 172.839 C 48.963 164.925 46.388 157.761 44.124 148.032 Z" fill="#e26568" style=""/>
      <path d="M 73.467 72.019 C 74.148 71.989 74.764 72.129 75.418 72.313 C 77.507 72.908 78.651 75.587 78.07 77.604 C 77.135 80.853 75.343 83.979 74.252 87.199 C 72.928 91.088 72.184 95.224 70.822 99.108 C 69.891 101.714 68.757 103.183 66.211 104.34 C 62.144 104.748 61.29 100.779 61.325 97.565 C 61.407 89.909 65.105 74.4 73.467 72.019 Z" fill="#c75f62" style=""/>
      <path d="M 89.701 144.161 C 90.24 144.007 90.347 144.02 90.855 144.381 C 94.251 145.867 96.945 147.129 100.104 149.099 C 110.07 155.307 119.059 165.909 123.272 176.868 C 123.458 177.363 123.632 177.865 123.788 178.368 C 117.324 173.879 112.846 170.207 107.126 164.769 C 105.749 163.454 104.417 162.097 103.126 160.701 C 102.82 160.375 101.281 158.705 101.063 158.541 C 100.224 158.33 95.791 152.77 95.002 151.751 L 94.855 151.556 C 94.751 152.131 95.26 151.785 95.236 152.782 C 94.741 152.478 92.418 148.684 91.983 147.987 C 91.318 146.674 90.249 145.714 89.701 144.161 Z" fill="#e26568" style=""/>
      <path d="M 91.983 149.017 C 92.423 149.198 92.543 149.281 93.016 149.366 C 96.045 153.886 98.049 155.703 101.231 159.767 C 100.374 159.552 95.862 153.889 95.058 152.852 L 94.908 152.653 C 94.804 153.239 95.32 152.886 95.293 153.902 C 94.795 153.59 92.425 149.728 91.983 149.017 Z" fill="#a34043" style=""/>
      <path d="M 89.701 144.161 C 90.24 144.007 90.347 144.02 90.855 144.381 L 90.689 144.637 C 91.443 145.84 92.395 147.068 92.999 148.33 C 92.533 148.246 92.417 148.166 91.983 147.987 C 91.318 146.674 90.249 145.714 89.701 144.161 Z" fill="#c75f62" style=""/>
      <path d="M 62.233 110.869 C 64 111.056 65.304 111.889 65.526 113.751 C 65.918 117.041 64.884 122.026 61.058 122.601 C 57.291 122.127 57.039 118.903 57.858 115.881 C 58.56 113.289 59.37 111.411 62.233 110.869 Z" fill="#c75f62" style=""/>
      <path d="M 30.107 159.036 L 30.247 159.175 C 30.077 159.831 27.971 163.345 27.468 164.309 C 22.321 174.159 17.299 182.378 14.651 193.309 L 14.546 193.168 C 14.436 191.807 15.473 187.576 15.842 186.08 C 18.64 174.716 22.934 168.059 30.107 159.036 Z" fill="#e26568" style=""/>
      <path d="M 170.65 168.57 C 175.173 167.555 179.672 165.846 184.177 164.65 C 186.131 164.134 188.477 163.176 190.506 162.56 L 229.951 150.69 C 231.349 150.28 239.787 147.501 240.732 147.541 C 240.741 147.929 240.632 148.069 240.47 148.427 L 240.64 148.503 C 241.014 148.282 241.115 147.823 241.288 147.388 C 241.749 147.054 245.578 145.806 246.316 145.601 C 246.638 145.71 246.826 145.866 247.144 145.711 C 249.029 144.824 258.702 141.822 260.148 142.386 C 260.495 142.521 260.574 142.63 260.784 142.919 C 260.282 145.218 244.736 148.762 242.023 149.577 C 239.038 150.474 235.841 151.777 232.853 152.703 L 222.522 155.919 C 221.276 156.294 219.786 156.589 218.605 157.018 C 220.672 164.619 223.184 172.173 225.109 179.83 C 225.565 181.647 225.876 183.607 226.384 185.387 C 228.988 184.845 231.374 183.92 233.92 183.172 C 238.858 181.727 243.876 180.467 248.708 178.671 C 250.061 178.168 250.811 177.898 252.241 177.671 C 252.726 177.066 252.994 177.039 253.84 176.964 C 257.616 176.624 265.873 172.954 269.269 173.462 C 269.641 173.87 269.535 173.639 269.606 174.177 L 269.483 174.363 C 269.061 174.132 269.049 174.13 268.697 173.803 L 268.57 173.851 C 268.693 174.553 268.836 174.619 268.573 175.099 C 265.097 176.595 260.921 177.848 257.285 178.927 C 255.135 179.57 252.663 180.368 250.501 180.885 L 250.313 180.808 L 250.242 180.511 C 250.2 180.515 249.079 181.328 247.972 181.699 C 233.881 186.448 216.114 191.455 202.187 195.681 L 186.518 200.356 C 184.977 200.813 183.474 201.381 181.926 201.806 C 181.839 201.245 181.583 199.82 181.558 199.315 C 179.754 190.296 177.527 182.487 173.508 174.08 C 172.774 172.624 171.47 169.854 170.65 168.57 Z" fill="#171718" style=""/>
      <path d="M 170.65 168.57 C 175.173 167.555 179.672 165.846 184.177 164.65 C 186.131 164.134 188.477 163.176 190.506 162.56 L 229.951 150.69 C 231.349 150.28 239.787 147.501 240.732 147.541 C 240.741 147.929 240.632 148.069 240.47 148.427 L 240.64 148.503 C 241.014 148.282 241.115 147.823 241.288 147.388 C 241.749 147.054 245.578 145.806 246.316 145.601 C 246.638 145.71 246.826 145.866 247.144 145.711 C 249.029 144.824 258.702 141.822 260.148 142.386 C 260.495 142.521 260.574 142.63 260.784 142.919 C 260.282 145.218 244.736 148.762 242.023 149.577 C 239.038 150.474 235.841 151.777 232.853 152.703 L 222.522 155.919 C 221.276 156.294 219.786 156.589 218.605 157.018 C 220.672 164.619 223.184 172.173 225.109 179.83 C 225.565 181.647 225.876 183.607 226.384 185.387 C 228.988 184.845 231.374 183.92 233.92 183.172 C 238.858 181.727 243.876 180.467 248.708 178.671 C 250.061 178.168 250.811 177.898 252.241 177.671 C 252.726 177.066 252.994 177.039 253.84 176.964 C 257.616 176.624 265.873 172.954 269.269 173.462 C 269.641 173.87 269.535 173.639 269.606 174.177 L 269.483 174.363 C 269.061 174.132 269.049 174.13 268.697 173.803 L 268.57 173.851 C 268.693 174.553 268.836 174.619 268.573 175.099 C 265.097 176.595 260.921 177.848 257.285 178.927 C 255.135 179.57 252.663 180.368 250.501 180.885 L 250.313 180.808 L 250.242 180.511 C 250.2 180.515 249.079 181.328 247.972 181.699 C 233.881 186.448 216.114 191.455 202.187 195.681 L 186.518 200.356 C 184.977 200.813 183.474 201.381 181.926 201.806 C 181.839 201.245 181.583 199.82 181.558 199.315 C 185.848 197.421 192.582 195.922 197.174 194.506 C 199.844 193.681 203.138 192.324 205.922 191.641 C 206.155 191.58 206.202 191.728 206.45 191.952 C 206.834 191.948 207.049 191.826 207.357 191.595 C 209.292 190.144 215.052 189.034 217.595 188.331 C 219.915 187.693 222.659 186.866 224.784 185.764 C 224.424 185.171 223.117 182.738 223.123 182.164 C 223.486 182.047 223.311 182.113 223.639 181.965 C 223.407 181.086 222.448 179.663 222.142 178.665 C 221.913 178.449 222.246 177.583 222.216 177.5 C 221.327 175.076 220.541 172.681 219.555 170.293 L 219.824 169.832 C 219.789 169.065 219.076 168.37 218.928 167.715 C 218.171 164.283 217.024 160.982 216.132 157.58 C 214.122 158.537 206.874 160.552 204.392 161.318 C 193.929 164.51 183.439 167.607 172.918 170.614 C 173.27 171.87 173.525 172.774 173.508 174.08 C 172.774 172.624 171.47 169.854 170.65 168.57 Z" fill="#a9a7af" style=""/>
      <path d="M 250.592 178.894 L 250.761 179.136 C 250.437 179.666 250.221 179.644 249.585 179.998 L 249.462 179.748 C 249.86 179.414 250.166 179.194 250.592 178.894 Z" fill="#75737f" style=""/>
      <path d="M 82.313 56.973 C 79.07 42.519 74.988 28.52 63.682 18.258 C 63.223 17.841 61.917 16.377 61.785 15.856 C 60.968 12.653 67.242 4.633 70.267 6.471 C 72.089 7.949 74.198 11.709 75.456 13.793 C 83.969 27.891 89.121 45.312 92.109 61.456 C 89.22 62.604 86.759 63.283 83.601 63.271 C 83.384 62.248 82.327 57.659 82.313 56.973 Z" fill="#862228" style=""/>
      <path d="M 70.267 6.471 C 72.089 7.949 74.197 11.709 75.456 13.793 C 83.969 27.891 89.121 45.312 92.109 61.456 C 89.22 62.604 86.759 63.283 83.601 63.271 C 83.384 62.248 82.327 57.659 82.313 56.973 L 82.712 57.602 L 82.815 57.444 L 82.64 57.47 L 82.816 57.346 C 82.226 48.127 81.62 43.884 77.986 35.402 C 78.066 35.334 78.254 35.231 78.356 35.171 C 79.386 35.782 83.258 45.632 83.764 47.403 C 84.321 49.352 85.067 52.367 85.704 54.448 C 85.589 52.3 85.199 50.289 84.97 48.239 C 83.8 37.787 79.67 27.747 74.28 18.773 C 72.458 15.746 71.985 13.934 69.422 11.159 C 70.252 9.569 70.273 8.2 70.267 6.471 Z" fill="#68242a" style=""/>
      <path d="M 82.313 56.973 C 79.07 42.519 74.988 28.52 63.682 18.258 C 63.223 17.841 61.917 16.377 61.785 15.856 C 60.968 12.653 67.242 4.633 70.267 6.471 C 70.273 8.2 70.252 9.569 69.422 11.159 C 68.091 13.191 66.797 13.87 64.792 15.264 C 67.135 18.548 69.931 21.255 72.082 24.666 C 73.416 26.781 74.611 28.847 75.788 31.046 C 76.294 31.997 77.499 34.675 77.986 35.402 C 81.62 43.884 82.226 48.127 82.816 57.346 L 82.64 57.47 L 82.815 57.444 L 82.712 57.602 L 82.313 56.973 Z" fill="#a34043" style=""/>
      <path d="M 276.315 205.069 C 277.056 205.308 277.96 204.83 278.399 205.316 C 278.174 205.63 278.174 205.615 278.004 205.965 L 278.353 206.173 L 278.389 206.376 C 278.117 206.548 277.841 206.715 277.587 206.912 C 275.896 208.228 263.309 211.586 260.282 212.488 C 251.737 215.036 243.263 217.835 234.711 220.363 L 220.797 224.563 C 217.951 225.424 216.016 225.882 213.151 227.006 C 214.008 228.977 214.061 230.459 214.741 232.353 C 215.815 235.36 216.452 238.387 217.362 241.411 C 217.694 242.513 218.116 243.72 217.626 244.782 C 217.102 245.153 217.159 245.026 216.377 245.041 C 215.449 244.304 211.454 229.696 210.851 227.552 C 208.626 228.327 206.209 228.846 203.972 229.622 C 201.391 230.514 198.481 230.956 195.972 231.964 C 193.552 232.706 191.154 233.515 188.702 234.139 C 184.911 235.105 181.027 236.172 177.334 237.468 L 177.237 237.323 C 177.849 236.262 177.574 235.912 178.287 234.577 C 180.29 233.929 182.408 233.394 184.398 232.668 C 184.631 232.583 184.728 232.756 184.945 232.91 C 185.561 232.866 188.001 231.561 189.123 231.232 L 219.092 222.145 C 221.745 221.345 224.537 220.724 227.196 219.885 C 229.191 219.256 231.084 218.239 233.042 217.608 C 233.192 217.719 233.343 217.835 233.497 217.942 C 237.847 216.253 243.275 214.905 247.775 213.554 C 251.015 212.579 254.11 211.549 257.425 210.633 C 259.775 209.904 262.11 209.099 264.446 208.311 C 264.674 208.235 264.914 208.431 265.077 208.555 C 266.79 207.952 275.819 205.44 276.315 205.069 Z" fill="#a9a7af" style=""/>
      <path d="M 214.23 205.9 C 214.656 205.499 222.014 203.703 222.79 203.776 C 223.039 204.194 223.23 205.382 222.615 205.626 C 219.372 206.903 215.973 207.843 212.654 208.911 C 206.933 210.544 201.299 212.662 195.656 214.335 L 187.309 216.775 C 185.553 217.277 183.509 217.786 181.833 218.466 C 181.887 217.892 182.051 215.568 182.366 215.466 C 190.118 212.954 203.909 208.732 211.149 206.686 L 211.629 206.997 C 211.986 206.271 213.466 205.977 214.23 205.9 Z" fill="#a9a7af" style=""/>
      <path d="M 211.629 206.997 C 211.986 206.271 213.466 205.977 214.23 205.9 C 213.461 206.987 212.993 207.769 211.629 206.997 Z" fill="#898890" style=""/>
      <path d="M 94.451 57.688 C 96.396 57.651 98.341 57.719 100.28 57.889 L 100.318 58.114 L 100.133 58.392 C 99.224 57.909 96.21 59.791 95.022 60.233 L 94.776 60.326 C 94.686 59.443 94.578 58.564 94.451 57.688 Z" fill="#a34043" style=""/>
      <path d="M 141.17 97.617 C 148.597 93.252 156.373 89.026 163.891 84.801 L 204.392 62.051 C 211.545 57.964 218.72 53.919 225.919 49.914 C 228.437 48.5 233.598 45.388 236.052 44.299 C 237.067 43.845 238.205 43.74 239.283 44.008 C 241.43 44.555 243.305 47.12 244.173 49.039 C 245.335 51.615 248.159 55.546 248.808 58.114 C 249.041 59.019 249.028 59.973 248.769 60.871 C 248.297 62.534 247.454 63.382 246.028 64.257 C 242.295 66.537 238.29 68.687 234.484 70.844 L 208.335 85.513 C 193.851 93.802 179.318 102.009 164.742 110.136 C 159.266 113.202 153.537 116.653 148.013 119.58 C 147.57 119.811 147.128 120.039 146.68 120.259 C 146.544 119.95 146.228 118.68 146.124 118.283 C 147.86 117.436 150.3 115.973 152.055 115.016 C 153.793 114.07 157.136 112.293 158.583 111.159 C 157.209 110.798 153.793 109.297 152.341 108.687 C 149.369 107.436 145.955 106.15 143.076 104.763 C 142.591 103.186 142.161 101.317 141.716 99.693 L 141.17 97.617 Z" fill="#75737f" style=""/>
      <path d="M 155.518 92.069 C 156.648 91.048 162.387 87.993 164.019 87.058 C 165.756 86.061 173.839 81.248 175.029 81.182 C 177.971 82.295 180.895 83.562 183.803 84.774 C 187.774 86.429 192.109 88.186 195.974 90.044 C 195.011 91.026 177.199 100.815 176.869 100.805 C 174.811 100.087 172.161 98.903 170.098 98.05 C 165.248 96.029 160.391 94.034 155.518 92.069 Z" fill="#350d14" style=""/>
      <path d="M 175.029 81.182 C 175.239 80.717 177.843 79.247 178.37 79.038 C 180.369 78.25 192.04 70.949 193.081 70.991 C 199.402 73.312 205.65 76.145 211.915 78.626 C 212.763 78.96 213.641 79.335 214.474 79.705 L 202.533 86.393 C 201.088 87.214 197.34 89.48 195.974 90.044 C 192.109 88.186 187.774 86.429 183.803 84.774 C 180.895 83.562 177.971 82.296 175.029 81.182 Z" fill="#f6f6f6" style=""/>
      <path d="M 142.631 99.833 C 144.778 98.615 147.266 97.257 149.416 96.075 C 150.871 95.276 155.493 92.413 156.691 92.069 C 161.652 94.071 166.601 96.101 171.537 98.163 C 173.636 99.027 176.339 100.234 178.435 100.968 C 177.783 101.592 160.77 111.173 159.811 111.51 C 158.41 111.144 154.932 109.614 153.456 108.993 C 150.427 107.72 146.948 106.411 144.018 104.997 C 143.522 103.39 143.087 101.486 142.631 99.833 Z" fill="#f6f6f6" style=""/>
      <path d="M 193.081 70.991 L 193.19 70.72 C 194.994 69.679 209.101 61.441 209.946 61.335 C 216.857 63.886 224.433 67.274 231.27 70.103 C 230.705 70.746 216.105 79.044 214.474 79.705 C 213.641 79.335 212.763 78.96 211.915 78.626 C 205.65 76.145 199.402 73.312 193.081 70.991 Z" fill="#350d14" style=""/>
      <path d="M 226.905 51.834 C 231.033 53.414 235.142 55.04 239.231 56.708 C 241.607 57.67 244.295 58.843 246.697 59.635 C 246.245 61.503 246.019 61.856 244.348 62.833 C 241.779 64.337 239.133 65.808 236.521 67.232 C 234.895 68.119 232.892 69.366 231.27 70.103 C 224.433 67.274 216.857 63.886 209.946 61.335 C 210.654 60.591 225.049 52.773 226.905 51.834 Z" fill="#f6f6f6" style=""/>
      <path d="M 226.905 51.834 C 228.649 50.546 236.922 45.574 238.826 45.993 C 240.645 46.395 242.082 49.654 242.917 51.159 C 243.673 52.517 247.216 58.157 246.755 59.512 C 246.738 59.553 246.716 59.593 246.697 59.635 C 244.295 58.843 241.607 57.67 239.231 56.708 C 235.142 55.04 231.033 53.414 226.905 51.834 Z" fill="#350d14" style=""/>
    </g>
  </svg>
</svg>
