<?xml version="1.0" encoding="utf-8"?>
<svg id="svg" version="1.1" viewBox="0 0 300 300" width="300" height="300" xmlns="http://www.w3.org/2000/svg">
  <svg xmlns="http://www.w3.org/2000/svg" style="">
    <defs>
      <clipPath id="clip-1">
        <rect x="0" y="0" transform="scale(0.14648,0.14648)" width="2048" height="2048" fill="none"/>
      </clipPath>
      <linearGradient x1="101.14893" y1="195.44971" x2="103.06626" y2="202.7666" gradientUnits="userSpaceOnUse" id="color-1" gradientTransform="matrix(1.457552, 0, 0, 1.452513, -25.512446, -92.575822)">
        <stop offset="0" stop-color="#681717"/>
        <stop offset="1" stop-color="#963736"/>
      </linearGradient>
      <linearGradient x1="47.58193" y1="210.58594" x2="35.36997" y2="183.34863" gradientUnits="userSpaceOnUse" id="color-2" gradientTransform="matrix(1.431169, 0, 0, 1.426225, -22.957758, -89.992646)">
        <stop offset="0" stop-color="#361414"/>
        <stop offset="1" stop-color="#1d1618"/>
      </linearGradient>
      <linearGradient x1="119.74043" y1="204.53027" x2="127.33096" y2="208.19971" gradientUnits="userSpaceOnUse" id="color-3" gradientTransform="matrix(1.457552, 0, 0, 1.452513, -25.512446, -92.575822)">
        <stop offset="0" stop-color="#4b2229"/>
        <stop offset="1" stop-color="#834a4e"/>
      </linearGradient>
    </defs>
    <g clip-path="url(#clip-1)" fill="none" fill-rule="nonzero" stroke="none" stroke-width="1" stroke-linecap="butt" stroke-linejoin="miter" stroke-miterlimit="10" stroke-dasharray="" stroke-dashoffset="0" font-family="none" font-weight="none" font-size="none" text-anchor="none" style="mix-blend-mode: normal">
      <path d="M 163.21 304.227 C 161.842 304.785 156.636 309.332 154.89 310.576 C 151.191 313.18 147.326 315.544 143.323 317.656 C 121.183 329.387 98.847 329.468 74.704 324.982 C 67.99 323.734 60.991 326.212 56.289 320.942 C 46.754 310.255 48.227 264.521 47.694 228.859 C 143.803 209.739 153.529 204.87 1.717 166.467 C -26.998 159.203 -16.972 138.054 25.12 129.623 C 45.319 125.577 0.659 96.197 42.772 69.753 C 105.132 30.595 88.922 33.341 75.487 37.725 C 75.633 37.655 75.768 37.589 75.889 37.525 C 75.624 34.862 73.116 27.712 72.297 25.058 C 71.308 21.963 70.661 17.909 69.248 15.007 C 66.202 8.751 63.167 2.473 58.599 -2.842 C 56.199 -5.632 51.995 -7.398 51.021 -11.357 C 50.393 -14.047 51.09 -17.618 52.626 -19.844 C 56.831 -25.905 64.182 -32.434 69.726 -23.438 C 71.022 -21.331 72.995 -18.969 74.334 -16.872 C 75.471 -15.094 76.282 -12.924 77.321 -11.056 C 81.714 -3.037 85.289 5.353 88.089 14.056 C 89.44 18.267 90.193 22.815 91.837 26.983 C 92.208 27.925 93.013 34.841 93.604 34.919 C 96.403 35.281 99.557 34.959 102.407 35.21 C 109.604 36.001 116.914 38.162 122.874 42.358 C 135.746 50.883 143.623 65.27 149.311 79.191 C 150.118 81.172 152.354 87.011 152.718 88.909 L 153.395 91.486 C 153.948 93.502 154.482 95.822 155.084 97.779 C 158.659 99.5 162.895 101.098 166.585 102.651 C 168.388 103.408 172.629 105.27 174.333 105.72 C 172.538 107.127 168.388 109.332 166.231 110.508 C 164.051 111.694 161.023 113.511 158.867 114.562 C 158.997 115.056 159.389 116.632 159.558 117.016 C 159.973 118.804 162.972 129.082 163.78 130.536 C 177.823 126.253 191.894 122.061 205.986 117.949 L 255.916 102.961 L 283.477 94.695 C 287.861 93.352 292.284 91.84 296.668 90.616 C 298.733 90.004 302.108 91.367 303.078 93.272 C 305.236 97.501 306.385 102.527 307.765 107.086 C 309.17 111.721 309.918 114.832 306.351 118.596 C 308.928 128.234 311.934 138.04 314.709 147.639 L 330.351 201.981 L 335.545 220.265 C 338.335 229.881 341.655 237.216 336.143 246.693 C 333.884 250.645 330.423 253.782 326.259 255.649 C 323.406 256.942 319.65 258.01 316.617 258.909 L 305.211 262.306 L 264.786 274.4 L 200.298 293.636 L 179.728 299.794 C 176.04 300.903 171.873 302.268 168.175 303.232 C 166.538 303.647 164.88 303.978 163.21 304.227 Z" fill="#261d20" style="pointer-events: none;"/>
      <path d="M 8.229 236.694 C 8.365 236.372 8.5 236.051 8.634 235.732 L 13.261 235.686 C 11.6 236.018 9.923 236.354 8.229 236.694 Z" fill="#261d20" style="pointer-events: none;"/>
      <path d="M 75.487 37.725 C 72.15 39.316 62.688 42.442 65.851 41.219 C 66.157 41.101 70.642 39.306 75.487 37.725 Z" fill="#261d20" style="pointer-events: none;"/>
      <path d="M 55.611 -10.888 C 60.313 -11.047 65.782 -10.918 70.55 -10.918 L 98.166 -10.908 L 181.622 -10.918 L 226.133 -10.929 C 235.13 -10.929 248.095 -11.421 256.622 -9.806 C 268.819 -7.486 280.156 -1.905 289.428 6.339 C 302.99 18.57 311.074 35.732 311.856 53.974 C 312.094 58.506 311.967 63.897 311.962 68.493 L 311.95 92.734 L 311.941 171.452 L 311.943 222.675 L 311.951 237.042 C 311.955 244.333 312.093 248.889 310.73 256.129 C 308.445 268.187 302.856 279.383 294.587 288.453 C 281.883 302.564 265.234 309.868 246.417 310.854 C 241.828 311.134 236.54 310.928 231.889 310.927 L 205.747 310.921 L 124.877 310.925 L 77.105 310.927 L 63.594 310.926 C 57.196 310.924 52.24 311.002 45.849 309.816 C 33.402 307.6 21.825 301.934 12.444 293.457 C -1.041 281.407 -9.081 264.417 -9.847 246.354 C -10.091 241.106 -9.971 235.254 -9.966 229.959 L -9.971 204.325 L -9.965 123.046 L -9.978 76.363 L -9.977 62.805 C -9.971 56.562 -9.986 51.13 -8.853 44.95 C -3 12.905 23.273 -9.357 55.611 -10.888 Z" style="fill: rgb(65, 14, 30); transform-origin: 140px 147.129px;"/>
      <path d="M 146.214 69.398 C 155.434 63.978 165.086 58.733 174.419 53.488 L 224.696 25.246 C 233.574 20.172 242.483 15.151 251.419 10.179 C 254.545 8.425 260.952 4.562 263.997 3.209 C 265.257 2.647 266.672 2.516 268.009 2.848 C 270.674 3.528 273.001 6.712 274.079 9.093 C 275.521 12.292 279.027 17.171 279.833 20.359 C 280.122 21.483 280.106 22.667 279.785 23.781 C 279.2 25.846 278.154 26.898 276.382 27.986 C 271.747 30.815 266.776 33.483 262.05 36.164 L 229.592 54.371 C 211.61 64.661 193.57 74.849 175.475 84.939 C 168.679 88.743 161.566 93.028 154.709 96.661 C 154.159 96.948 153.61 97.231 153.054 97.505 C 152.885 97.121 152.493 95.545 152.363 95.051 C 154.519 94 157.547 92.183 159.727 90.997 C 161.884 89.821 166.034 87.616 167.829 86.209 C 166.125 85.759 161.884 83.897 160.081 83.14 C 156.391 81.587 152.155 79.989 148.58 78.268 C 147.978 76.311 147.444 73.991 146.891 71.975 L 146.214 69.398 Z" fill="#75737f" style=""/>
      <path d="M 148.027 72.148 C 150.693 70.636 153.781 68.951 156.451 67.485 C 158.256 66.491 163.993 62.936 165.481 62.511 C 171.64 64.996 177.782 67.516 183.911 70.075 C 186.516 71.148 189.871 72.646 192.475 73.556 C 191.664 74.332 170.544 86.225 169.354 86.644 C 167.615 86.189 163.297 84.29 161.465 83.519 C 157.705 81.939 153.386 80.313 149.749 78.558 C 149.134 76.564 148.594 74.2 148.027 72.148 Z" fill="#f6f6f6" style=""/>
      <path d="M 158.606 111.92 C 172.909 107.558 187.236 103.283 201.592 99.101 L 252.44 83.836 L 280.507 75.417 C 284.974 74.053 289.478 72.51 293.943 71.266 C 296.043 70.639 299.487 72.029 300.477 73.971 C 302.672 78.278 303.841 83.394 305.245 88.038 C 306.673 92.759 307.438 95.93 303.805 99.756 C 306.429 109.576 309.489 119.56 312.319 129.341 L 328.249 184.68 L 333.536 203.306 C 336.377 213.094 339.759 220.564 334.146 230.22 C 331.848 234.244 328.32 237.437 324.079 239.338 C 321.175 240.657 317.35 241.742 314.259 242.656 L 302.643 246.118 L 261.473 258.436 L 195.797 278.023 L 174.847 284.294 C 171.091 285.425 166.847 286.816 163.082 287.796 C 161.415 288.22 159.728 288.558 158.026 288.81 C 158.196 287.859 164.839 281.786 165.961 281.312 C 168.643 280.181 172.595 279.216 175.498 278.341 C 183.049 276.001 190.629 273.741 198.227 271.562 L 284.916 245.649 L 308.117 238.735 C 316.408 236.275 325.029 235.097 329.554 226.932 C 331.273 223.875 331.95 220.34 331.482 216.863 C 331.154 214.376 329.799 209.846 329.105 207.3 C 327.241 200.464 325.105 193.676 323.213 186.845 L 298.701 101.687 L 214.167 127.111 L 184.661 135.928 C 181.602 136.861 175.898 138.272 173.227 139.351 C 172.628 138.341 172.211 137.504 171.694 136.45 C 170.285 134.08 168.434 131.074 167.284 128.643 C 169.186 123.376 172.768 115.82 175.087 110.538 C 174.912 110.495 174.738 110.451 174.567 110.408 C 170.56 111.599 163.866 113.386 160.069 114.801 C 159.695 113.977 159.133 112.596 158.606 111.92 Z" fill="#75737f" style=""/>
      <path d="M 271.893 81.719 C 271.92 81.641 271.928 81.556 271.977 81.486 C 272.385 80.873 293.773 74.577 295.589 74.416 C 296.238 74.68 295.943 74.48 296.395 75.18 C 292.595 84.448 288.136 93.494 284.307 102.656 C 282.222 103.443 260.279 109.978 259.363 109.93 C 263.459 100.489 267.635 91.085 271.893 81.719 Z" fill="#f6f6f6" style=""/>
      <path d="M 224.337 95.716 C 224.403 95.667 248.563 88.262 249.481 88.202 C 246.805 94.315 244.081 100.405 241.299 106.47 C 239.942 109.468 238.092 113.951 236.562 116.744 C 235.899 117.426 225.055 120.526 223.455 120.977 C 219.739 122.008 215.347 123.663 211.633 124.6 C 215.989 115.347 220.215 105.144 224.337 95.716 Z" fill="#f6f6f6" style=""/>
      <path d="M 200.128 102.927 C 201.521 102.245 223.698 95.556 224.337 95.716 C 220.215 105.144 215.988 115.347 211.633 124.6 C 210.797 125.107 188.199 131.735 187.316 131.762 C 189.307 127.6 190.973 123.353 192.885 119.177 C 195.384 113.71 197.916 108.529 200.128 102.927 Z" fill="#350d14" style=""/>
      <path d="M 175.087 110.538 C 175.412 110.188 197.745 103.419 200.128 102.927 C 197.916 108.529 195.384 113.71 192.885 119.177 C 190.973 123.353 189.307 127.6 187.316 131.762 C 185.556 132.448 182.983 133.109 181.105 133.653 C 177.961 134.563 174.824 135.498 171.691 136.45 C 170.285 134.08 168.434 131.074 167.284 128.643 C 169.186 123.376 172.768 115.82 175.087 110.538 Z" fill="#f6f6f6" style=""/>
      <path d="M 249.481 88.202 C 250.326 87.536 269.321 81.672 271.572 81.376 L 271.893 81.719 C 267.635 91.085 263.459 100.489 259.363 109.93 C 258.977 110.259 258.136 110.733 257.682 110.832 C 255.056 111.425 237.779 117.282 236.562 116.744 C 238.092 113.951 239.942 109.468 241.299 106.47 C 244.081 100.405 246.805 94.315 249.481 88.202 Z" fill="#350d14" style=""/>
      <path d="M 296.395 75.18 C 297.176 74.934 296.805 74.92 297.548 75.206 C 298.009 75.684 298.561 76.577 298.773 77.373 C 300.186 82.792 302.604 88.907 303.462 94.31 C 303.607 95.198 302.101 96.862 301.625 97.203 C 299.997 98.383 285.03 102.674 284.307 102.656 C 288.136 93.494 292.595 84.448 296.395 75.18 Z" fill="#350d14" style=""/>
      <path d="M 182.81 157.478 C 188.424 156.218 194.008 154.096 199.602 152.61 C 202.027 151.971 204.941 150.782 207.46 150.016 L 256.425 135.281 C 258.159 134.772 268.635 131.322 269.808 131.372 C 269.819 131.853 269.683 132.028 269.483 132.472 L 269.694 132.566 C 270.157 132.292 270.284 131.722 270.498 131.183 C 271.07 130.767 275.824 129.219 276.74 128.964 C 277.139 129.099 277.373 129.293 277.767 129.1 C 280.107 127.999 292.115 124.272 293.91 124.973 C 294.342 125.14 294.438 125.276 294.699 125.635 C 294.076 128.488 274.78 132.887 271.409 133.9 C 267.705 135.012 263.736 136.631 260.026 137.779 L 247.202 141.772 C 245.656 142.236 243.806 142.603 242.34 143.136 C 244.906 152.572 248.024 161.95 250.414 171.455 C 250.98 173.711 251.366 176.143 251.996 178.355 C 255.229 177.681 258.19 176.532 261.351 175.603 C 267.481 173.81 273.711 172.247 279.709 170.016 C 281.388 169.392 282.319 169.056 284.095 168.774 C 284.696 168.025 285.03 167.991 286.08 167.896 C 290.768 167.474 301.017 162.919 305.233 163.549 C 305.695 164.056 305.562 163.769 305.651 164.438 L 305.498 164.668 C 304.975 164.381 304.959 164.379 304.523 163.973 L 304.366 164.033 C 304.517 164.903 304.696 164.986 304.369 165.583 C 300.054 167.439 294.87 168.996 290.357 170.334 C 287.686 171.132 284.618 172.122 281.935 172.765 L 281.701 172.67 L 281.613 172.3 C 281.561 172.306 280.17 173.316 278.795 173.775 C 261.302 179.67 239.247 185.886 221.96 191.132 L 202.508 196.936 C 200.595 197.502 198.728 198.208 196.808 198.736 C 196.699 198.039 196.381 196.269 196.35 195.645 C 194.11 184.447 191.346 174.755 186.358 164.318 C 185.445 162.509 183.827 159.072 182.81 157.478 Z" fill="#171718" style=""/>
      <path d="M 182.81 157.478 C 188.424 156.218 194.008 154.096 199.602 152.61 C 202.027 151.971 204.941 150.782 207.46 150.016 L 256.425 135.281 C 258.159 134.772 268.635 131.322 269.808 131.372 C 269.819 131.853 269.683 132.028 269.483 132.472 L 269.694 132.566 C 270.157 132.292 270.284 131.722 270.498 131.183 C 271.07 130.767 275.824 129.219 276.74 128.964 C 277.139 129.099 277.373 129.293 277.767 129.1 C 280.107 127.999 292.115 124.272 293.91 124.973 C 294.342 125.14 294.438 125.276 294.699 125.635 C 294.076 128.488 274.78 132.887 271.409 133.9 C 267.705 135.012 263.736 136.631 260.026 137.779 L 247.202 141.772 C 245.656 142.236 243.806 142.603 242.34 143.136 C 244.906 152.572 248.024 161.95 250.414 171.455 C 250.98 173.711 251.366 176.143 251.996 178.355 C 255.229 177.681 258.19 176.532 261.351 175.603 C 267.481 173.81 273.711 172.247 279.709 170.016 C 281.388 169.392 282.319 169.056 284.095 168.774 C 284.696 168.025 285.03 167.991 286.08 167.896 C 290.768 167.474 301.017 162.919 305.233 163.549 C 305.695 164.056 305.562 163.769 305.651 164.438 L 305.498 164.668 C 304.975 164.381 304.959 164.379 304.523 163.973 L 304.366 164.033 C 304.517 164.903 304.696 164.986 304.369 165.583 C 300.054 167.439 294.87 168.996 290.357 170.334 C 287.686 171.132 284.618 172.122 281.935 172.765 L 281.701 172.67 L 281.613 172.3 C 281.561 172.306 280.17 173.316 278.795 173.775 C 261.302 179.67 239.247 185.886 221.96 191.132 L 202.508 196.936 C 200.595 197.502 198.728 198.208 196.808 198.736 C 196.699 198.039 196.381 196.269 196.35 195.645 C 201.676 193.292 210.035 191.431 215.736 189.674 C 219.05 188.649 223.139 186.964 226.595 186.116 C 226.883 186.041 226.943 186.224 227.252 186.502 C 227.727 186.498 227.994 186.347 228.377 186.061 C 230.779 184.26 237.928 182.879 241.087 182.008 C 243.967 181.215 247.373 180.19 250.01 178.821 C 249.562 178.085 247.941 175.064 247.949 174.351 C 248.399 174.207 248.182 174.289 248.589 174.106 C 248.301 173.014 247.11 171.247 246.731 170.009 C 246.446 169.74 246.86 168.665 246.823 168.563 C 245.72 165.554 244.742 162.58 243.518 159.615 L 243.853 159.043 C 243.811 158.092 242.925 157.229 242.742 156.416 C 241.801 152.155 240.377 148.057 239.269 143.834 C 236.775 145.023 227.777 147.523 224.696 148.476 C 211.707 152.438 198.685 156.281 185.625 160.014 C 186.061 161.573 186.379 162.697 186.358 164.318 C 185.445 162.509 183.827 159.072 182.81 157.478 Z" fill="#a9a7af" style=""/>
      <path d="M 282.048 170.292 L 282.258 170.594 C 281.855 171.251 281.587 171.223 280.798 171.664 L 280.645 171.353 C 281.138 170.94 281.519 170.664 282.048 170.292 Z" fill="#75737f" style=""/>
      <path d="M 313.98 202.786 C 314.9 203.082 316.021 202.49 316.567 203.093 C 316.287 203.483 316.287 203.464 316.076 203.898 L 316.509 204.155 L 316.554 204.409 C 316.217 204.622 315.874 204.83 315.56 205.074 C 313.46 206.707 297.834 210.877 294.076 211.996 C 283.469 215.159 272.949 218.633 262.333 221.771 L 245.061 226.985 C 241.527 228.054 239.127 228.622 235.569 230.019 C 236.633 232.466 236.699 234.305 237.542 236.655 C 238.877 240.389 239.667 244.146 240.796 247.9 C 241.208 249.267 241.733 250.767 241.125 252.085 C 240.473 252.545 240.545 252.388 239.574 252.406 C 238.423 251.491 233.462 233.357 232.714 230.695 C 229.953 231.658 226.951 232.302 224.175 233.266 C 220.97 234.372 217.359 234.922 214.243 236.172 C 211.24 237.094 208.262 238.098 205.219 238.873 C 200.512 240.073 195.692 241.397 191.106 243.005 L 190.986 242.825 C 191.746 241.509 191.405 241.074 192.289 239.417 C 194.776 238.612 197.406 237.947 199.876 237.048 C 200.164 236.941 200.286 237.157 200.555 237.347 C 201.32 237.293 204.348 235.673 205.741 235.263 L 242.944 223.984 C 246.238 222.99 249.704 222.219 253.005 221.178 C 255.481 220.397 257.83 219.135 260.261 218.352 C 260.448 218.489 260.635 218.633 260.826 218.766 C 266.226 216.67 272.963 214.996 278.552 213.319 C 282.573 212.108 286.415 210.831 290.529 209.693 C 293.446 208.788 296.346 207.788 299.246 206.811 C 299.528 206.716 299.826 206.96 300.029 207.113 C 302.155 206.365 313.365 203.247 313.98 202.786 Z" fill="#a9a7af" style=""/>
      <path d="M 236.909 203.817 C 237.439 203.32 246.57 201.09 247.535 201.182 C 247.845 201.699 248.081 203.174 247.318 203.477 C 243.291 205.062 239.072 206.23 234.954 207.556 C 227.849 209.582 220.857 212.211 213.851 214.289 L 203.491 217.318 C 201.309 217.941 198.773 218.573 196.692 219.417 C 196.76 218.703 196.962 215.819 197.353 215.693 C 206.976 212.574 224.097 207.334 233.085 204.794 L 233.679 205.18 C 234.123 204.279 235.961 203.915 236.909 203.817 Z" fill="#a9a7af" style=""/>
      <path d="M 233.679 205.18 C 234.123 204.279 235.961 203.915 236.909 203.817 C 235.954 205.167 235.372 206.137 233.679 205.18 Z" fill="#898890" style=""/>
      <path d="M 164.025 62.511 C 165.428 61.242 172.552 57.45 174.577 56.291 C 176.734 55.052 186.769 49.076 188.245 48.994 C 191.898 50.378 195.526 51.949 199.137 53.456 C 204.066 55.508 209.448 57.69 214.245 59.996 C 213.05 61.216 190.939 73.368 190.531 73.356 C 187.975 72.463 184.684 70.993 182.124 69.935 C 176.104 67.426 170.074 64.949 164.025 62.511 Z" fill="#350d14" style=""/>
      <path d="M 188.245 48.994 C 188.506 48.419 191.738 46.594 192.392 46.334 C 194.874 45.356 209.363 36.292 210.655 36.345 C 218.501 39.226 226.258 42.743 234.035 45.822 C 235.087 46.238 236.178 46.703 237.21 47.162 L 222.389 55.463 C 220.595 56.483 215.941 59.296 214.245 59.996 C 209.448 57.69 204.066 55.508 199.137 53.456 C 195.526 51.949 191.898 50.379 188.245 48.994 Z" fill="#f6f6f6" style=""/>
      <path d="M 210.655 36.345 L 210.79 36.007 C 213.03 34.717 230.542 24.488 231.591 24.358 C 240.169 27.526 249.575 31.73 258.061 35.242 C 257.359 36.04 239.237 46.34 237.21 47.162 C 236.178 46.703 235.087 46.238 234.035 45.822 C 226.258 42.743 218.501 39.226 210.655 36.345 Z" fill="#350d14" style=""/>
      <path d="M 252.644 12.563 C 257.767 14.525 262.868 16.544 267.944 18.614 C 270.894 19.807 274.232 21.263 277.212 22.248 C 276.652 24.566 276.371 25.006 274.296 26.216 C 271.107 28.084 267.822 29.91 264.58 31.678 C 262.561 32.779 260.075 34.328 258.061 35.242 C 249.575 31.73 240.169 27.526 231.591 24.358 C 232.47 23.433 250.339 13.728 252.644 12.563 Z" fill="#f6f6f6" style=""/>
      <path d="M 252.644 12.563 C 254.808 10.966 265.077 4.791 267.442 5.312 C 269.7 5.812 271.483 9.857 272.52 11.725 C 273.458 13.411 277.856 20.413 277.283 22.095 C 277.264 22.145 277.236 22.195 277.212 22.248 C 274.232 21.263 270.894 19.807 267.944 18.614 C 262.868 16.544 257.767 14.525 252.644 12.563 Z" fill="#350d14" style=""/>
      <path d="M 126.928 3.641 C 163.147 5.991 177.402 51.79 183.525 80.919 C 185.171 88.73 187.157 96.627 189.983 104.082 C 193.871 113.996 198.602 121.591 203.696 130.625 C 207.499 137.34 211.171 144.141 214.699 151.012 C 225.403 171.637 233.205 190.828 231.398 214.541 C 229.104 244.599 212.214 271.644 189.661 290.933 C 168.339 309.155 144.477 316.741 116.597 314.338 C 98.348 312.763 78.789 309.52 62.383 301.118 C 59.9 299.847 56.668 298.43 54.499 296.76 C 53.628 296.266 52.764 295.762 51.903 295.253 C 28.243 281.282 11.175 255.922 4.773 229.552 C -0.442 208.036 1.933 187.364 10.011 166.948 C 21.063 139.001 44.144 119.003 52.627 89.978 C 55.905 79.517 58.819 68.556 61.45 57.927 C 67.521 33.406 71.136 13.375 99.324 6.443 L 100.253 11.005 L 99.553 10.992 C 98.069 10.971 94.246 10.7 93.308 11.611 C 93.497 11.839 93.495 11.897 93.729 11.993 C 99.903 14.603 106.576 15.637 113.041 13.63 C 117.787 12.149 124.331 8.737 126.725 4.325 L 126.979 3.95 L 126.928 3.641 Z" fill="#ac4347" style=""/>
      <path d="M 126.928 3.641 C 163.147 5.991 177.402 51.79 183.525 80.919 C 185.171 88.73 187.157 96.627 189.983 104.082 C 193.871 113.996 198.602 121.591 203.696 130.625 C 207.499 137.34 211.171 144.141 214.699 151.012 C 225.403 171.637 233.205 190.828 231.398 214.541 C 229.104 244.599 212.214 271.644 189.661 290.933 C 168.339 309.155 144.477 316.741 116.597 314.338 C 98.348 312.763 78.789 309.52 62.383 301.118 C 59.9 299.847 56.668 298.43 54.499 296.76 C 56.124 296.708 63.193 298.747 65.921 299.233 C 77.075 301.311 88.482 301.659 99.743 300.271 C 129.187 296.456 157.077 282.596 175.006 258.677 C 192.088 235.883 199.629 206.883 196.088 178.674 C 192.604 150.912 175.954 127.487 167.748 101.207 C 160.305 76.724 159.322 50.349 149.213 26.639 C 144.601 15.819 135.723 10.633 126.979 3.95 L 126.928 3.641 Z" fill="#862228" style=""/>
      <path d="M 105.538 118.672 C 106.416 118.847 107.784 119.055 108.425 119.698 L 108.652 119.685 C 109.745 119.719 111.839 120.12 112.534 121.017 C 113.28 123.13 114.737 124.436 115.64 126.224 C 116.227 127.173 119.39 132.334 120.065 132.747 C 122.96 138.256 130.998 148.469 135.035 153.661 C 140.976 161.369 146.995 169.017 153.099 176.602 C 156.953 181.314 161.113 185.905 164.557 190.938 C 165.082 191.705 165.247 195.162 164.765 196.06 C 165.448 197.95 165.372 199.384 165.376 201.374 L 165.332 203.657 C 164.093 246.034 128.442 283.34 85.149 281.892 C 51.073 280.756 20.959 255.181 12.496 222.679 C 12.181 221.467 10.758 216.545 11.121 215.65 C 8.138 211.195 15.357 192.922 17.131 187.875 C 20.826 177.334 24.63 166.143 29.461 156.091 C 33.234 148.228 36.921 140.04 41.275 132.505 C 41.778 131.643 45.504 129.186 46.524 128.453 C 49.01 136.308 52.924 144.141 56.878 151.34 C 66.76 169.327 78.954 185.702 91.502 201.898 C 92.648 203.378 94.449 205.594 95.345 207.155 L 95.512 207.346 L 95.689 207.234 C 95.977 206.088 95.961 205.009 96.064 203.844 C 97.276 191.123 98.942 178.467 100.292 165.749 C 101.946 150.162 103.165 134.153 105.538 118.672 Z" fill="#f6d0cf" style=""/>
      <path d="M 129.742 165.279 C 134.379 164.909 137.591 165.156 141.838 167.307 C 144.508 168.653 154.647 183.254 157.94 186.751 C 156.695 188.015 157.329 190.07 156.546 192.185 C 155.998 194.396 155.452 196.228 154.553 198.335 C 156.013 198.762 155.892 200.08 156.855 201.026 C 153.843 207.155 147.533 212.729 140.711 214.051 C 140.418 214.019 137.827 214.259 137.348 214.298 C 133.124 214.616 129.476 213.953 125.741 211.889 C 120.18 208.828 115.962 203.819 113.912 197.834 C 113.147 195.656 112.539 192.922 111.879 190.637 L 111.731 190.571 C 111.402 190.116 111.545 190.089 111.632 189.341 C 111.853 175.68 115.629 167.626 129.742 165.279 Z" fill="#261d20" style=""/>
      <path d="M 127.882 174.611 L 128.382 174.557 C 128.532 174.82 128.613 175.053 128.854 175.251 C 129.873 175.82 134.693 175.269 136.2 175.236 C 137.574 175.208 140.514 175.439 141.721 175.275 C 145.826 176.886 150.26 181.296 152.038 185.335 C 153.371 188.381 154.927 193.752 153.562 196.941 C 153.439 197.381 153.217 198.138 153.137 198.553 C 152.723 199.958 152.204 202.05 151.466 203.231 C 147.11 211.243 138.218 216.053 129.609 211.14 C 126.561 209.404 123.955 206.662 122.521 203.447 C 120.934 200.465 120.491 198.204 119.984 194.88 C 119.138 190.98 120.946 184.678 122.748 181.167 L 122.064 181.361 C 122.065 181.067 122.257 180.821 122.405 180.546 L 122.206 180.046 C 122.81 178.94 124.248 177.774 125.221 176.93 C 125.864 176.031 126.975 175.305 127.882 174.611 Z" fill="#5a0b0b" style=""/>
      <path d="M 148.039 198.056 C 149.916 199.845 150.361 200.927 151.466 203.231 C 147.11 211.243 138.218 216.053 129.609 211.141 C 126.561 209.404 123.955 206.662 122.521 203.447 C 123.722 201.614 124.666 200.357 126.002 198.639 C 131.571 209.112 144.33 211.306 148.039 198.056 Z" fill="#e26568" style=""/>
      <path d="M 122.206 180.046 C 122.81 178.94 124.248 177.774 125.221 176.93 C 126.058 177.138 126.616 176.994 127.605 177.269 C 138.114 179.389 126.115 189.931 123.221 181.067 L 122.748 181.167 L 122.064 181.361 C 122.065 181.067 122.257 180.821 122.405 180.546 L 122.206 180.046 Z" fill="#f6f6f6" style=""/>
      <path d="M 122.206 180.046 C 122.81 178.94 124.248 177.774 125.221 176.93 C 126.058 177.138 126.616 176.994 127.605 177.269 C 124.939 177.603 123.715 178.265 123.221 181.067 L 122.748 181.167 L 122.064 181.361 C 122.065 181.067 122.257 180.821 122.405 180.546 L 122.206 180.046 Z" fill="#350d14" style=""/>
      <path d="M 124.918 190.245 C 124.996 192.99 125.112 196.008 126.002 198.639 C 124.666 200.357 123.722 201.614 122.521 203.447 C 120.934 200.465 120.491 198.204 119.984 194.88 C 120.261 192.732 123.323 191.365 124.918 190.245 Z" fill="url(#color-1)" style=""/>
      <path d="M 148.746 194.429 L 149.232 194.387 C 150.247 195.24 152.708 197.341 153.137 198.553 C 152.723 199.958 152.204 202.05 151.466 203.231 C 150.361 200.927 149.916 199.845 148.039 198.056 C 148.408 196.904 148.555 195.636 148.746 194.429 Z" fill="#862228" style=""/>
      <path d="M 148.996 191.687 C 150.728 193.742 152.091 194.594 153.562 196.941 C 153.439 197.381 153.217 198.138 153.137 198.553 C 152.708 197.341 150.247 195.24 149.232 194.387 L 148.746 194.429 C 148.793 193.422 148.865 192.685 148.996 191.687 Z" fill="#68242a" style=""/>
      <path d="M 132.592 183.327 C 133.118 183.308 133.564 183.692 133.618 184.216 C 133.676 184.733 133.32 185.21 132.802 185.297 C 132.437 185.362 132.064 185.22 131.839 184.925 C 131.614 184.63 131.574 184.237 131.73 183.894 C 131.889 183.567 132.221 183.346 132.592 183.327 Z" fill="#f6f6f6" style=""/>
      <path d="M 111.879 190.637 C 113.189 189.332 116.514 186.673 118.046 185.64 L 118.47 185.747 C 117.17 192.059 117.63 197.62 121.168 203.144 C 126.685 211.759 138.676 213.464 146.96 207.869 C 150.78 205.291 152.572 202.356 154.553 198.335 C 156.013 198.762 155.892 200.08 156.855 201.026 C 153.843 207.155 147.533 212.729 140.711 214.051 C 140.418 214.019 137.827 214.259 137.348 214.298 C 133.124 214.616 129.476 213.953 125.741 211.889 C 120.18 208.828 115.962 203.819 113.912 197.834 C 113.147 195.656 112.539 192.922 111.879 190.637 Z" fill="#f6f6f6" style=""/>
      <path d="M 127.662 172.359 C 126.769 173.036 125.682 173.753 125.046 174.63 C 124.092 175.456 122.682 176.608 122.093 177.694 C 120.063 180.695 119.533 182.205 118.47 185.747 L 118.046 185.64 C 116.514 186.673 113.189 189.332 111.879 190.637 L 111.731 190.571 C 111.402 190.116 111.545 190.089 111.632 189.341 C 112.749 187.74 113.702 182.956 115.558 180.371 C 118.946 175.654 122.072 173.577 127.662 172.359 Z" fill="#a9a7af" style=""/>
      <path d="M 128.854 175.251 C 133.096 172.71 137.411 173.239 141.721 175.275 C 140.514 175.439 137.574 175.208 136.2 175.236 C 134.693 175.269 129.873 175.82 128.854 175.251 Z" fill="#68242a" style=""/>
      <path d="M 105.538 118.672 C 106.416 118.847 107.784 119.055 108.425 119.698 C 107.903 121.255 107.405 126.727 107.189 128.65 C 106.581 134.305 105.936 139.956 105.253 145.606 C 103.919 156.135 102.209 166.657 101.014 177.185 C 100.769 179.309 100.096 184.356 100.085 186.279 C 99.714 188.047 99.588 190.821 99.334 192.695 C 98.55 198.537 98.095 206.064 96.684 211.745 C 91.642 206.615 87.14 198.894 82.266 193.41 C 80.204 191.09 78.596 188.313 76.375 185.965 C 74.703 185.646 71.795 182.935 70.44 181.72 C 60.252 172.633 50.177 162.058 42.163 151.019 C 40.5 154.387 38.042 158.481 36.624 161.58 C 43.497 160.651 48.768 163.427 52.414 169.258 C 45.987 166.804 46.878 165.157 38.496 164.643 C 39.392 165.498 40.433 166.406 41.119 167.418 C 34.626 167.616 30.744 168.893 26.157 173.775 C 25.637 174.325 24.829 175.231 24.306 175.746 C 22.895 177.449 16.854 195.575 16.112 198.561 C 14.631 201.543 12.299 211.81 11.121 215.65 C 8.138 211.195 15.357 192.922 17.131 187.875 C 20.826 177.334 24.63 166.143 29.461 156.091 C 33.234 148.228 36.921 140.04 41.275 132.505 C 41.778 131.643 45.504 129.186 46.524 128.453 C 49.01 136.308 52.924 144.144 56.878 151.341 C 66.76 169.327 78.954 185.702 91.502 201.898 C 92.648 203.378 94.449 205.594 95.345 207.155 L 95.512 207.346 L 95.689 207.234 C 95.977 206.089 95.961 205.009 96.064 203.844 C 97.276 191.123 98.942 178.467 100.292 165.749 C 101.946 150.162 103.165 134.153 105.538 118.672 Z" fill="#68242a" style=""/>
      <path d="M 44.248 133.177 L 44.403 133.434 C 46.228 136.57 47.597 140.163 49.295 143.382 C 54.65 153.545 60.582 163.265 67.08 172.74 C 69.912 176.856 73.909 181.667 76.375 185.965 C 74.703 185.646 71.795 182.935 70.44 181.72 C 60.252 172.633 50.177 162.058 42.163 151.019 C 40.5 154.387 38.042 158.481 36.624 161.58 C 43.497 160.651 48.768 163.427 52.414 169.258 C 45.987 166.804 46.878 165.157 38.496 164.643 C 39.392 165.498 40.433 166.406 41.119 167.418 C 34.626 167.616 30.744 168.893 26.157 173.775 C 25.637 174.325 24.829 175.231 24.306 175.746 C 24.45 172.152 41.474 136.72 44.248 133.177 Z" fill="#bb898c" style=""/>
      <path d="M 41.119 167.418 C 46.324 168.533 49.932 171.036 52.809 175.558 C 54.758 178.615 59.495 187.652 59.276 191.127 C 58.806 191.227 59.005 191.159 58.669 191.321 C 58.482 192.541 58.509 193.682 58.325 194.896 C 57.638 199.536 55.396 204.908 51.489 207.789 C 45.15 212.464 34.02 209.824 29.608 203.545 C 27.076 199.958 26.755 196.415 26.79 192.214 C 26.795 191.585 26.798 191.293 26.734 190.656 C 26.586 190.704 22.56 194.148 21.839 194.649 C 21.767 195.831 21.684 196.883 21.721 198.067 C 19.746 198.785 18.767 199.961 16.878 200.675 L 16.112 198.561 C 16.854 195.575 22.895 177.449 24.306 175.746 C 24.829 175.231 25.637 174.325 26.157 173.775 C 30.744 168.893 34.626 167.616 41.119 167.418 Z" fill="url(#color-2)" style=""/>
      <path d="M 47.478 175.052 C 52.888 177.292 58.634 188.627 56.547 193.806 L 56.484 194.771 C 55.852 196.87 54.798 200.218 53.516 202.041 C 53.397 202.242 53.272 202.442 53.148 202.646 C 51.215 205.739 48.091 207.625 44.573 208.476 C 37.149 210.27 30.971 205.611 29.419 198.371 L 29.006 195.852 C 28.948 194.279 29.003 192.544 29.252 190.991 C 28.26 188.992 29.648 183.598 31.671 182.429 C 31.456 181.289 31.482 180.774 31.495 179.642 C 31.937 179.122 32.367 178.657 32.831 178.158 L 34.774 177.497 L 36.395 177.695 C 36.628 177.401 36.647 177.458 37.005 177.251 C 39.016 177.427 44.927 175.608 47.478 175.052 Z" fill="#5a0b0b" style=""/>
      <path d="M 30.277 194.254 C 30.39 194.107 30.496 193.958 30.613 193.811 C 31.212 193.036 31.382 192.796 32.266 192.683 C 33.045 196.072 33.966 199.26 36.541 201.78 C 38.743 203.933 41.933 204.591 44.866 203.803 C 47.884 202.986 49.502 200.723 51.164 198.29 C 52.928 199.76 52.648 200.015 53.516 202.041 C 53.397 202.242 53.272 202.442 53.148 202.646 C 51.215 205.739 48.091 207.625 44.573 208.476 C 37.149 210.27 30.971 205.611 29.419 198.371 C 29.338 196.74 29.634 195.739 30.277 194.254 Z" fill="#e26568" style=""/>
      <path d="M 34.774 177.497 L 36.395 177.695 C 38.227 178.726 39.057 180.452 37.893 182.377 C 37.387 183.215 36.578 183.813 35.628 184.052 C 33.866 184.486 32.731 183.747 31.671 182.429 C 31.456 181.289 31.482 180.774 31.495 179.642 C 31.937 179.122 32.367 178.657 32.831 178.158 L 34.774 177.497 Z" fill="#f6f6f6" style=""/>
      <path d="M 53.119 193.289 C 54.14 193.525 55.235 193.704 56.148 194.198 L 56.484 194.771 C 55.852 196.87 54.798 200.218 53.516 202.041 C 52.648 200.015 52.928 199.76 51.164 198.29 C 51.651 196.811 52.525 194.782 53.119 193.289 Z" fill="#862228" style=""/>
      <path d="M 32.256 188.215 L 32.211 190.73 L 32.266 192.683 C 31.382 192.796 31.212 193.036 30.613 193.811 C 30.496 193.958 30.39 194.107 30.277 194.254 C 29.634 195.739 29.338 196.74 29.419 198.371 L 29.006 195.852 C 28.948 194.279 29.003 192.544 29.252 190.991 C 30.278 189.604 30.806 189.228 32.256 188.215 Z" fill="#ac4347" style=""/>
      <path d="M 30.277 194.254 C 30.264 193.221 30.779 190.374 32.211 190.73 L 32.266 192.683 C 31.382 192.796 31.212 193.036 30.613 193.811 C 30.496 193.958 30.39 194.107 30.277 194.254 Z" fill="#c75f62" style=""/>
      <path d="M 54.347 190.593 C 55.236 191.736 55.777 192.569 56.547 193.806 L 56.484 194.771 L 56.148 194.198 C 55.235 193.704 54.14 193.525 53.119 193.289 C 53.528 192.106 53.757 191.676 54.347 190.593 Z" fill="#68242a" style=""/>
      <path d="M 38.599 182.307 C 38.923 182.069 39.358 182.021 39.724 182.192 C 40.098 182.363 40.345 182.714 40.376 183.118 C 40.408 183.528 40.215 183.914 39.881 184.137 C 39.375 184.475 38.693 184.341 38.342 183.846 C 37.995 183.348 38.109 182.665 38.599 182.307 Z" fill="#f6f6f6" style=""/>
      <path d="M 21.839 194.649 C 22.187 190.364 24.203 184.581 26.654 181.038 C 29.643 176.716 32.513 174.614 37.606 173.547 C 36.367 174.294 32.539 176.598 32.831 178.158 C 32.367 178.657 31.937 179.122 31.495 179.642 C 30.451 180.502 29.751 182.013 29.167 183.231 C 28.291 185.37 27.723 187.138 27.285 189.421 C 27.214 189.796 26.87 191.998 26.79 192.214 C 26.795 191.585 26.798 191.293 26.734 190.656 C 26.586 190.704 22.56 194.148 21.839 194.649 Z" fill="#a9a7af" style=""/>
      <path d="M 34.774 177.497 C 35.712 177.154 36.483 175.567 38.659 174.801 C 42.035 173.598 44.259 173.76 47.478 175.052 C 44.927 175.608 39.016 177.427 37.005 177.251 C 36.647 177.458 36.628 177.401 36.395 177.695 L 34.774 177.497 Z" fill="#68242a" style=""/>
      <path d="M 29.167 183.231 C 29.751 182.013 30.451 180.502 31.495 179.642 C 31.482 180.774 31.456 181.289 31.671 182.429 C 29.648 183.598 28.261 188.992 29.252 190.991 C 29.003 192.544 28.948 194.279 29.006 195.852 C 27.418 193.14 28.633 189.213 28.926 186.187 C 29.002 185.451 29.999 183.859 29.799 183.097 L 29.167 183.231 Z" fill="#350d14" style=""/>
      <path d="M 108.652 119.685 C 109.745 119.719 111.839 120.12 112.534 121.017 C 113.28 123.13 114.737 124.436 115.64 126.224 C 116.227 127.173 119.39 132.334 120.065 132.747 C 122.96 138.256 130.998 148.469 135.035 153.661 C 140.976 161.369 146.995 169.017 153.099 176.602 C 156.953 181.314 161.113 185.905 164.557 190.938 C 165.082 191.705 165.247 195.162 164.765 196.06 C 164.048 195.027 163.245 193.97 162.504 192.951 L 162.424 192.565 L 162.148 192.413 L 161.778 192.989 C 160.474 193.376 159.901 193.165 158.543 192.951 C 158.006 193.322 157.746 193.548 157.111 193.752 C 156.942 192.944 156.923 192.938 156.546 192.185 C 157.329 190.07 156.695 188.015 157.94 186.751 C 154.647 183.254 144.508 168.653 141.838 167.307 C 137.591 165.156 134.379 164.909 129.742 165.279 C 128.03 163.643 126.45 161.395 125.111 160.169 C 126.964 159.708 129.823 158.87 131.543 158.184 C 128.359 157.361 125.954 156.941 122.723 157.456 C 120.103 154.846 116.425 151.13 114.617 147.956 C 111.78 157.318 105.309 178.544 100.085 186.279 C 100.096 184.356 100.769 179.309 101.014 177.185 C 102.209 166.657 103.919 156.135 105.253 145.606 C 105.936 139.956 106.581 134.305 107.189 128.65 C 107.405 126.727 107.903 121.255 108.425 119.698 L 108.652 119.685 Z" fill="#bb898c" style=""/>
      <path d="M 108.652 119.685 C 109.745 119.719 111.839 120.12 112.534 121.017 C 113.28 123.13 114.737 124.436 115.64 126.224 C 116.227 127.173 119.39 132.334 120.065 132.747 C 122.96 138.256 130.998 148.469 135.035 153.661 C 140.976 161.369 146.995 169.017 153.099 176.602 C 156.953 181.314 161.113 185.905 164.557 190.938 C 165.082 191.705 165.247 195.162 164.765 196.06 C 164.048 195.027 163.245 193.97 162.504 192.951 L 162.424 192.565 L 162.148 192.413 L 161.778 192.989 C 160.474 193.376 159.901 193.165 158.543 192.951 C 158.006 193.322 157.746 193.548 157.111 193.752 C 156.942 192.944 156.923 192.938 156.546 192.185 C 157.329 190.07 156.695 188.015 157.94 186.751 C 154.647 183.254 144.508 168.653 141.838 167.307 C 141.564 165.854 137.621 161.315 136.554 159.97 C 131.973 154.178 127.931 147.882 123.426 142.045 C 117.866 134.851 112.871 127.734 108.652 119.685 Z" fill="#68242a" style=""/>
      <path d="M 158.717 189.269 C 160.052 190.768 161.643 192.672 162.414 194.535 C 161.239 194.755 160.362 194.931 159.334 195.579 C 158.784 195.961 158.525 196.187 157.877 196.397 C 157.705 195.573 157.684 195.567 157.301 194.805 C 158.102 192.651 157.455 190.559 158.717 189.269 Z" fill="#350d14" style=""/>
      <path d="M 157.301 194.805 C 157.684 195.567 157.705 195.573 157.877 196.397 C 158.525 196.187 158.784 195.961 159.334 195.579 C 160.722 195.8 161.301 196.017 162.627 195.624 L 163.005 195.037 L 163.286 195.19 L 163.365 195.579 C 164.125 196.618 164.942 197.697 165.67 198.747 C 166.366 200.681 166.289 202.133 166.295 204.162 C 164.912 204.254 164.15 205.005 163.407 204.792 L 163.306 204.249 C 162.679 205.583 162.08 206.276 161.656 207.149 C 160.966 207.732 160.884 207.807 160.085 208.206 L 159.814 208.157 C 159.793 207.583 159.794 207.171 159.806 206.597 C 159.451 206.607 159.557 206.536 159.216 206.919 C 158.363 207.853 157.625 208.999 156.822 209.986 C 152.685 215.016 148.937 217.036 142.365 217.172 C 141.787 217.189 141.742 217.172 141.173 217.068 C 148.127 215.73 154.547 210.049 157.612 203.803 C 156.635 202.847 156.757 201.507 155.273 201.067 C 156.186 198.922 156.744 197.056 157.301 194.805 Z" fill="url(#color-3)" style=""/>
      <path d="M 163.365 195.579 C 164.125 196.618 164.942 197.697 165.67 198.747 C 166.366 200.681 166.289 202.133 166.295 204.162 C 164.912 204.254 164.15 205.005 163.407 204.792 L 163.306 204.249 C 164.839 200.849 163.476 198.68 163.365 195.579 Z" fill="#f6d0cf" style=""/>
      <path d="M 157.301 194.805 C 157.684 195.567 157.705 195.573 157.877 196.397 C 158.392 199.038 158.799 201.22 157.612 203.803 C 156.635 202.847 156.757 201.507 155.273 201.067 C 156.186 198.922 156.744 197.056 157.301 194.805 Z" fill="#a9a7af" style=""/>
      <path d="M 22.486 201.661 C 24.931 206.156 27.744 209.183 32.518 211.303 C 33.898 211.916 35.708 212.455 36.959 213.041 C 29.597 212.834 22.503 209.916 18.328 203.64 C 19.745 203.301 21.07 202.343 22.486 201.661 Z" fill="#68242a" style=""/>
      <path d="M 122.723 157.456 C 125.954 156.941 128.359 157.361 131.543 158.184 C 129.823 158.87 126.964 159.708 125.111 160.169 C 120.118 161.642 117.923 163.567 113.88 166.642 C 115.807 161.075 117.003 159.388 122.723 157.456 Z" fill="#68242a" style=""/>
      <path d="M 16.878 200.675 C 18.767 199.961 19.746 198.785 21.721 198.067 C 21.951 199.483 22.072 200.287 22.486 201.661 C 21.07 202.349 19.745 203.301 18.328 203.64 C 17.763 202.65 17.351 201.707 16.878 200.675 Z" fill="#350d14" style=""/>
      <path d="M 163.306 204.249 L 163.407 204.792 C 164.15 205.005 164.912 204.254 166.295 204.162 L 166.247 206.485 C 164.541 206.659 163.336 206.825 161.656 207.149 C 162.08 206.276 162.679 205.583 163.306 204.249 Z" fill="#bb898c" style=""/>
      <path d="M 109.595 241.55 C 110.363 241.461 111.098 241.391 111.793 241.807 C 112.242 242.077 112.584 242.482 112.674 243.002 C 112.766 243.567 112.544 244.089 112.235 244.549 C 110.643 246.845 97.709 250.258 94.756 250.855 C 86.887 252.438 76.029 253.234 69.007 248.605 C 68.101 247.654 67.355 246.616 68.593 245.347 C 68.797 245.127 69.618 244.909 69.875 245.08 C 75.547 248.862 80.833 250.955 87.879 250.461 C 93.375 250.075 99.877 248.232 104.725 245.338 C 106.435 244.318 107.988 242.837 109.595 241.55 Z" fill="#68242a" style=""/>
      <path d="M 79.02 213.498 C 80.735 215.143 78.68 222.879 78.238 225.029 C 78.99 227.415 80.329 229.503 81.443 231.801 C 80.653 231.365 79.838 230.85 79.052 230.387 C 70.201 225.228 75.127 220.897 79.02 213.498 Z" fill="#bb898c" style=""/>
      <path d="M 97.929 257.518 L 98.078 257.582 C 96.593 260.626 90.908 263.642 87.714 262.424 C 86.729 262.052 86.098 261.755 85.208 261.233 C 84.236 260.609 83.529 259.969 82.658 259.23 C 89.102 259.013 91.585 258.997 97.929 257.518 Z" fill="#bb898c" style=""/>
      <path d="M 50.523 126.286 C 50.901 126.039 51.287 125.799 51.679 125.574 C 68.007 116.266 87.376 113.788 105.538 118.672 C 103.165 134.153 101.946 150.162 100.292 165.749 C 98.942 178.467 97.276 191.123 96.064 203.844 C 95.961 205.009 95.977 206.088 95.689 207.234 L 95.512 207.346 L 95.345 207.155 C 95.097 205.185 95.027 201.095 94.925 198.992 C 94.489 190.502 94.419 181.999 94.726 173.503 C 94.877 169.265 95.334 162.86 95.171 158.789 C 94.937 159.246 95.04 161.479 94.915 162.081 C 94.544 163.802 95.201 170.61 93.927 171.345 C 86.987 171.501 82.473 161.483 79.46 156.577 C 75.18 149.611 71.808 142.545 68.315 135.197 C 68.639 136.816 69.224 138.529 69.609 140.254 C 71.482 148.512 73.756 157.525 77.819 164.988 C 78.252 165.785 78.248 165.384 78.398 166.446 L 78.081 166.363 C 76.366 163.419 74.047 161.007 72.276 158.119 C 69.897 154.23 68.038 150.007 66.306 145.802 C 65.787 144.543 65.621 143.482 65.027 142.133 L 64.828 142.257 C 64.865 143.174 66.074 146.375 66.419 147.476 C 68.628 154.398 70.709 161.947 73.644 168.582 C 71.077 165.741 68.371 162.99 65.942 160.037 C 57.109 149.268 53.606 139.522 50.523 126.286 Z" fill="#e26568" style=""/>
      <path d="M 90.446 22.867 C 91.373 22.827 92.214 23.018 93.104 23.267 C 95.942 24.076 97.5 27.72 96.708 30.464 C 95.438 34.885 92.998 39.138 91.517 43.52 C 89.717 48.813 88.7 54.436 86.846 59.72 C 85.583 63.269 84.038 65.266 80.574 66.839 C 75.042 67.396 73.881 61.994 73.927 57.621 C 74.04 47.209 79.07 26.105 90.446 22.867 Z" fill="#c75f62" style=""/>
      <path d="M 112.534 121.017 C 113.268 120.808 113.413 120.828 114.104 121.316 C 118.725 123.339 122.39 125.061 126.688 127.736 C 140.247 136.182 152.477 150.607 158.208 165.52 C 158.464 166.192 158.698 166.876 158.91 167.56 C 150.118 161.45 144.021 156.454 136.241 149.056 C 134.366 147.265 132.558 145.421 130.8 143.522 C 130.384 143.078 128.292 140.807 127.992 140.582 C 126.851 140.296 120.819 132.731 119.746 131.347 L 119.547 131.08 C 119.405 131.861 120.097 131.394 120.065 132.747 C 119.39 132.334 116.227 127.173 115.64 126.224 C 114.737 124.436 113.28 123.13 112.534 121.017 Z" fill="#e26568" style=""/>
      <path d="M 115.64 127.625 C 116.235 127.87 116.4 127.983 117.045 128.102 C 121.167 134.252 123.894 136.722 128.221 142.252 C 127.054 141.96 120.917 134.257 119.821 132.84 L 119.62 132.571 C 119.475 133.371 120.178 132.891 120.14 134.272 C 119.464 133.848 116.237 128.593 115.64 127.625 Z" fill="#a34043" style=""/>
      <path d="M 112.534 121.017 C 113.268 120.808 113.413 120.828 114.104 121.316 L 113.877 121.667 C 114.906 123.302 116.199 124.973 117.023 126.69 C 116.386 126.576 116.227 126.467 115.64 126.224 C 114.737 124.436 113.28 123.13 112.534 121.017 Z" fill="#c75f62" style=""/>
      <path d="M 75.164 75.723 C 77.567 75.977 79.341 77.11 79.642 79.645 C 80.176 84.12 78.769 90.902 73.564 91.685 C 68.437 91.041 68.097 86.654 69.213 82.543 C 70.166 79.013 71.268 76.463 75.164 75.723 Z" fill="#c75f62" style=""/>
      <path d="M 31.453 141.256 L 31.643 141.446 C 31.413 142.338 28.552 147.12 27.865 148.43 C 20.859 161.832 14.027 173.014 10.427 187.888 L 10.282 187.693 C 10.131 185.843 11.547 180.086 12.048 178.05 C 15.852 162.59 21.696 153.534 31.453 141.256 Z" fill="#e26568" style=""/>
      <path d="M 102.481 2.396 C 98.069 -17.272 92.514 -36.317 77.135 -50.279 C 76.508 -50.843 74.735 -52.838 74.555 -53.545 C 73.44 -57.904 81.977 -68.813 86.094 -66.311 C 88.573 -64.305 91.439 -59.186 93.156 -56.351 C 104.734 -37.172 111.746 -13.467 115.81 8.494 C 111.879 10.057 108.533 10.981 104.234 10.966 C 103.941 9.573 102.502 3.33 102.481 2.396 Z" fill="#862228" style=""/>
      <path d="M 86.094 -66.311 C 88.573 -64.305 91.438 -59.186 93.156 -56.351 C 104.734 -37.172 111.746 -13.467 115.81 8.494 C 111.879 10.057 108.533 10.981 104.234 10.966 C 103.941 9.573 102.502 3.33 102.481 2.396 L 103.028 3.25 L 103.165 3.038 L 102.927 3.073 L 103.166 2.903 C 102.365 -9.642 101.536 -15.413 96.597 -26.953 C 96.703 -27.042 96.961 -27.183 97.097 -27.264 C 98.499 -26.436 103.768 -13.031 104.456 -10.624 C 105.213 -7.97 106.23 -3.87 107.097 -1.039 C 106.941 -3.962 106.408 -6.698 106.096 -9.487 C 104.505 -23.708 98.889 -37.366 91.555 -49.581 C 89.074 -53.691 88.429 -56.161 84.944 -59.938 C 86.071 -62.098 86.103 -63.959 86.094 -66.311 Z" fill="#68242a" style=""/>
      <path d="M 102.481 2.396 C 98.069 -17.272 92.514 -36.317 77.135 -50.279 C 76.508 -50.843 74.735 -52.838 74.555 -53.545 C 73.44 -57.904 81.977 -68.813 86.094 -66.311 C 86.103 -63.959 86.071 -62.098 84.944 -59.938 C 83.13 -57.174 81.372 -56.25 78.647 -54.35 C 81.833 -49.883 85.635 -46.201 88.564 -41.561 C 90.379 -38.679 92.006 -35.872 93.605 -32.88 C 94.295 -31.585 95.933 -27.94 96.597 -26.953 C 101.536 -15.413 102.365 -9.642 103.166 2.903 L 102.927 3.073 L 103.165 3.038 L 103.028 3.25 L 102.481 2.396 Z" fill="#a34043" style=""/>
      <path d="M 118.993 3.37 C 121.644 3.318 124.292 3.411 126.928 3.641 L 126.979 3.95 L 126.725 4.325 C 125.492 3.668 121.39 6.228 119.775 6.831 L 119.439 6.961 C 119.317 5.756 119.168 4.56 118.993 3.37 Z" fill="#a34043" style=""/>
    </g>
  </svg>
</svg>